<?xml version="1.0" standalone="no"?>
<!DOCTYPE svg PUBLIC "-//W3C//DTD SVG 1.1//EN" "http://www.w3.org/Graphics/SVG/1.1/DTD/svg11.dtd" >
<svg xmlns="http://www.w3.org/2000/svg" xmlns:xlink="http://www.w3.org/1999/xlink" version="1.1">
<metadata>
Created by FontForge 20170731 at Fri Jul  2 17:32:29 2021
 By Aleksey,,,
(c) 1990, 1991, 1992, 1994, 1997, 1998, 2000, 2002, 2004 Adobe Systems Incorporated. All rights reserved.
</metadata>
<defs>
<font id="MinionPro-Bold" horiz-adv-x="819" >
  <font-face 
    font-family="Minion Pro"
    font-weight="700"
    font-stretch="normal"
    units-per-em="2048"
    panose-1="2 4 7 3 6 3 6 2 2 3"
    ascent="1489"
    descent="-559"
    x-height="905"
    cap-height="1331"
    bbox="-653 -737 3449 2097"
    underline-thickness="102"
    underline-position="-307"
    unicode-range="U+0020-FB06"
  />
<missing-glyph horiz-adv-x="1024" 
d="M1024 0h-1024v1434h1024v-1434zM860 1331h-696l348 -522zM922 195v1044l-349 -522zM164 102h696l-348 523zM102 1239v-1044l349 522z" />
    <glyph glyph-name="T_h" unicode="Th" horiz-adv-x="2263" 
d="M2226 0h-483v66q72 10 88 32t16 107v362q0 111 -41.5 161t-107.5 50q-89 0 -148 -59v-514q0 -83 15.5 -106t79.5 -33v-66h-490v66q36 4 53.5 6.5t35.5 10t24 15t12 26t7 38.5t1 57v1004q-141 18 -399 18h-80v-973q0 -46 1.5 -73.5t10 -51t18.5 -34t33.5 -19.5t48 -12.5
t70.5 -7.5v-70h-633v70q44 4 67.5 7.5t46.5 12t32.5 20t18 34t10.5 50.5t2 74v973h-80q-125 0 -173 -14.5t-75 -50.5q-44 -56 -78 -187h-74q4 66 13.5 201.5t11.5 191.5h45q22 -33 46 -42t71 -9h845q116 0 158.5 9t42.5 32v27q168 25 262 55v-655q58 58 130 94.5t143 36.5
q136 0 210 -86.5t74 -253.5v-373q0 -42 2.5 -63.5t7.5 -39t20.5 -25.5t33.5 -13t55 -10v-66z" />
    <glyph glyph-name="Tcaron_h" unicode="&#x164;h" horiz-adv-x="2263" 
d="M2226 0h-483v66q72 10 88 32t16 107v362q0 111 -41.5 161t-107.5 50q-89 0 -148 -59v-514q0 -83 15.5 -106t79.5 -33v-66h-490v66q36 4 53.5 6.5t35.5 10t24 15t12 26t7 38.5t1 57v1004q-141 18 -399 18h-80v-973q0 -46 1.5 -73.5t10 -51t18.5 -34t33.5 -19.5t48 -12.5
t70.5 -7.5v-70h-633v70q44 4 67.5 7.5t46.5 12t32.5 20t18 34t10.5 50.5t2 74v973h-80q-125 0 -173 -14.5t-75 -50.5q-44 -56 -78 -187h-74q4 66 13.5 201.5t11.5 191.5h45q22 -33 46 -42t71 -9h845q116 0 158.5 9t42.5 32v27q168 25 262 55v-655q58 58 130 94.5t143 36.5
q136 0 210 -86.5t74 -253.5v-373q0 -42 2.5 -63.5t7.5 -39t20.5 -25.5t33.5 -13t55 -10v-66zM944 1700l31 -53q-100 -78 -270 -252h-62q-125 134 -272 252l35 53q135 -56 268 -121q122 59 270 121z" />
    <glyph glyph-name="uni021A_h" unicode="&#x21a;h" horiz-adv-x="2263" 
d="M2226 0h-483v66q72 10 88 32t16 107v362q0 111 -41.5 161t-107.5 50q-89 0 -148 -59v-514q0 -83 15.5 -106t79.5 -33v-66h-490v66q36 4 53.5 6.5t35.5 10t24 15t12 26t7 38.5t1 57v1004q-141 18 -399 18h-80v-973q0 -46 1.5 -73.5t10 -51t18.5 -34t33.5 -19.5t48 -12.5
t70.5 -7.5v-70h-633v70q44 4 67.5 7.5t46.5 12t32.5 20t18 34t10.5 50.5t2 74v973h-80q-125 0 -173 -14.5t-75 -50.5q-44 -56 -78 -187h-74q4 66 13.5 201.5t11.5 191.5h45q22 -33 46 -42t71 -9h845q116 0 158.5 9t42.5 32v27q168 25 262 55v-655q58 58 130 94.5t143 36.5
q136 0 210 -86.5t74 -253.5v-373q0 -42 2.5 -63.5t7.5 -39t20.5 -25.5t33.5 -13t55 -10v-66zM649 -63q71 0 123.5 -55t52.5 -136q0 -95 -69 -156t-181 -88l-20 54q131 64 131 141q0 72 -104 98q-12 3 -21.5 17.5t-9.5 35.5q0 40 30 64.5t68 24.5z" />
    <glyph glyph-name="f_b" unicode="fb" horiz-adv-x="1746" 
d="M1042 854l74 35q91 41 144 41q118 0 216.5 -60t154 -159t55.5 -213q0 -223 -156.5 -373t-384.5 -150q-168 0 -365 74v1176q-39 48 -100.5 79t-112.5 31q-70 0 -92 -75q-22 -65 -22 -283v-72h192q7 -20 -0.5 -54.5t-26.5 -45.5h-165v-576q0 -44 2.5 -66.5t9 -42t24 -28
t41.5 -14t68 -10.5v-68h-535v68q44 5 64.5 10.5t37 22.5t21 45.5t4.5 82.5v576h-137l-8 24l59 76h86v45q0 65 27 144q46 136 180 235q123 94 252 111q109 -5 182 -51q132 24 199 51l12 -15v-571zM1042 780v-557q0 -47 9 -71q13 -33 49 -65.5t82 -33.5q86 -2 153.5 99
t67.5 288q0 93 -23.5 164.5t-62.5 112.5t-85 61.5t-97 20.5q-45 0 -93 -19z" />
    <glyph glyph-name="f_f_b" unicode="ffb" horiz-adv-x="2334" 
d="M1630 1423v-569q32 16 76 33q84 43 143 43q178 0 301 -128.5t123 -301.5q0 -223 -156 -374t-384 -151q-168 0 -365 74v1170q-40 54 -94 88t-109 34q-67 0 -100 -84q-25 -64 -25 -280v-72h193q11 -14 4 -48.5t-29 -47.5h-168v-594q0 -34 1.5 -55t8.5 -37.5t14 -25
t26.5 -15t37 -8.5l52.5 -6v-68h-500v68q46 6 64.5 15.5t27 38.5t8.5 95v592h-329v-596q0 -90 18.5 -113t89.5 -32v-68h-498v68q90 9 109.5 31t19.5 114v596h-137l-10 25l61 71h86v35q0 69 41 156q56 114 177 194q132 95 286 107q173 -5 252 -92q139 123 297 135
q105 -2 182 -51q92 17 193 51zM780 905v43q0 50 15 110t41 105q-34 54 -90 95.5t-132 41.5q-50 0 -87.5 -35t-53.5 -89q-20 -76 -20 -207v-64h327zM1630 778v-555q0 -49 10 -69q11 -32 47 -64t82 -33q89 -2 155.5 100.5t66.5 282.5q0 93 -23 163.5t-62.5 111t-86 60.5
t-97.5 20q-50 0 -92 -17z" />
    <glyph glyph-name="f_f_h" unicode="ffh" horiz-adv-x="2349" 
d="M2310 0h-481v68q73 9 88.5 29t15.5 102v370q0 111 -40.5 161t-106.5 50q-93 0 -156 -63v-518q0 -81 15.5 -101.5t80.5 -29.5v-68h-458v68q27 4 40 6t27 8.5t19 13.5t10 23t5.5 35.5t0.5 52.5v1016q-38 53 -92 86.5t-107 33.5q-75 0 -106 -96q-23 -73 -23 -270v-72h191
q10 -14 2.5 -50t-27.5 -46h-166v-606q0 -83 22 -104.5t110 -30.5v-68h-494v68q47 5 65.5 15t26.5 36t8 86v604h-327v-602q0 -61 9 -87.5t28 -35.5t69 -16v-68h-489v68q81 9 100.5 31t19.5 108v602h-131l-10 22l62 74h79v35q0 66 46 160q61 116 172 190q140 102 292 107
q156 -2 250 -88q139 119 293 131q107 -5 176 -47q118 19 201 47l10 -13v-628q60 58 133 94.5t146 36.5q135 0 209.5 -88.5t74.5 -255.5v-385q0 -83 18.5 -103.5t98.5 -29.5v-68zM780 905v47q0 55 15 115t43 102q-85 129 -226 129q-55 0 -89.5 -37.5t-49.5 -97.5
q-20 -83 -20 -194v-64h327z" />
    <glyph glyph-name="f_f_j" unicode="ffj" horiz-adv-x="1759" 
d="M1036 905h209q252 0 375 25v-668q0 -114 -13 -186t-44 -146q-55 -130 -146 -247.5t-141 -153.5q-42 -31 -74 -31q-25 0 -53.5 33.5t-28.5 79.5q0 54 47 57q141 6 158 41q19 36 25 146q8 159 8 383v424v43t-1.5 33t-4 26t-7.5 17.5t-12 13.5t-18.5 7t-24.5 4.5t-33 0.5
h-221v-592q0 -50 3 -74t20 -40.5t38 -21.5t72 -13v-66h-495v66q46 7 64.5 17t27 38.5t8.5 93.5v592h-323v-594q0 -49 3 -73.5t16.5 -40.5t31.5 -21.5t57 -11.5v-66h-498v66q47 6 68 11.5t37.5 22t20 41.5t3.5 74v592h-139l-10 24l61 74h88v35q0 81 37 156q58 120 176 202
q135 97 281 109q96 -3 164.5 -34.5t105.5 -76.5q171 141 330 146q146 -2 240 -92q49 -52 24 -111q-17 -41 -63 -72q-56 -38 -90 -4q-4 5 -31.5 40t-50.5 59.5t-65 47.5t-87 23q-80 0 -108 -121q-17 -72 -17 -231v-76zM774 905v43q0 54 21 121q15 56 36 86q-15 30 -45 63.5
t-83 63t-109 29.5q-45 0 -77 -32.5t-46 -86.5q-20 -76 -20 -223v-64h323z" />
    <glyph glyph-name="f_f_k" unicode="ffk" horiz-adv-x="2277" 
d="M2322 0l-358 -4q-104 128 -281 405q-22 35 -36 35q-12 4 -21 4v-229q0 -90 21.5 -112t113.5 -31v-68h-501v68q75 9 91.5 30.5t16.5 112.5v1008q-38 54 -93 87t-106 33q-75 0 -106 -96q-23 -70 -23 -266v-72h197q5 -18 -3.5 -55t-25.5 -45h-168v-604q0 -82 20.5 -103
t100.5 -30v-68h-489v68q71 8 89.5 29.5t18.5 103.5v604h-329v-596q0 -86 18 -109t90 -32v-68h-498v68q88 9 108.5 31t20.5 108v598h-137l-12 24l61 76h88v31q0 81 48 172q55 102 165 180q62 45 142.5 75.5t159.5 33.5q161 -2 247 -88q61 55 138.5 90t152.5 41
q123 -6 172 -49q129 25 201 49l10 -13v-927q34 7 68 28t57 47q27 31 65 86t56 87q24 33 12 56.5t-74 31.5v63l443 19v-64q-92 -14 -147 -38.5t-103 -67.5q-73 -65 -152 -168q45 -73 146.5 -208.5t152.5 -191.5q48 -54 82.5 -77t89.5 -35v-68zM780 905v47q0 125 56 213
q-34 53 -92.5 95.5t-131.5 42.5q-54 0 -90.5 -39t-52.5 -101q-16 -61 -16 -194v-64h327z" />
    <glyph glyph-name="f_f_t" unicode="fft" horiz-adv-x="1892" 
d="M1874 76l-170 -78q-53 -23 -84 -23q-122 0 -186 62t-64 196v576h-328v-608q0 -31 1 -49.5t8 -34t14 -22.5t26 -13t36 -8t53 -6v-68h-500v68q48 5 67 15t26 34.5t7 85.5v606h-327v-608q0 -81 18.5 -102.5t89.5 -30.5v-68h-500v68q90 9 109.5 29t19.5 104v608h-139l-10 25
l61 71h88v35q0 78 43 160q54 105 168 186q140 103 301 111q152 -3 248 -90q138 122 285 133q125 -5 192 -72q39 -39 19 -86q-20 -46 -66 -76q-37 -27 -67 0q-42 44 -100.5 82.5t-96.5 38.5q-49 0 -69 -65q-17 -66 -7 -285l2 -72h328v121l232 168l28 -16v-273h205
q18 -15 14 -49.5t-28 -46.5h-191v-502q0 -56 11.5 -95.5t30 -58.5t35.5 -26.5t34 -7.5q55 0 110 24zM780 905v47q0 113 54 213q-34 50 -95 94t-135 44q-47 0 -81 -33.5t-50 -83.5q-11 -32 -16 -72t-5.5 -64t-0.5 -81v-64h329z" />
    <glyph glyph-name="f_h" unicode="fh" horiz-adv-x="1759" 
d="M1722 0h-483v68q72 9 88 30.5t16 106.5v362q0 110 -41 159.5t-108 49.5q-94 0 -152 -61v-510q0 -83 15.5 -105.5t79.5 -31.5v-68h-471v68q44 5 62.5 9t32.5 20t16.5 39t2.5 73v1012q-36 48 -96.5 81t-116.5 33q-66 0 -92 -73q-22 -67 -22 -289v-68h190q12 -17 4.5 -53.5
t-29.5 -46.5h-165v-590q0 -50 2.5 -73.5t16 -40.5t33 -22t62.5 -11v-68h-501v68q33 4 49.5 6.5t33.5 9.5t22.5 14.5t11 25t6.5 37t1 54.5v590h-129l-8 24l60 76h77v39q0 69 27 148q54 140 176 233q127 97 256 115q104 -5 180 -49q135 26 201 49l12 -13v-628q58 58 131 94.5
t146 36.5q137 0 212 -87.5t75 -252.5v-375q0 -35 0.5 -53.5t5.5 -36.5t11 -25.5t21 -14.5t31 -10t47 -7v-68z" />
    <glyph glyph-name="f_j" unicode="fj" horiz-adv-x="1177" 
d="M453 905h209q249 0 374 25v-672q0 -112 -13.5 -183.5t-45.5 -144.5q-53 -130 -144 -247.5t-141 -153.5q-42 -31 -76 -31q-24 0 -54 35t-30 78q0 25 13 40t35 15q135 0 159 43q19 36 25 146q10 198 10 383v424q0 97 -15.5 121t-88.5 24h-217v-602q0 -59 11 -85t34 -35.5
t82 -18.5v-66h-514v66q87 12 105.5 32.5t18.5 106.5v602h-133l-10 24l62 74h81v45q0 91 50 193q48 95 159 178q68 54 151 85t155 34q155 -5 233 -94q48 -54 20 -111q-20 -44 -63 -68q-57 -34 -86 7q-3 3 -19.5 25t-27 35t-32.5 34t-41.5 33.5t-47.5 22t-57 9.5
q-88 0 -113 -127q-18 -74 -18 -237v-64z" />
    <glyph glyph-name="f_k" unicode="fk" horiz-adv-x="1691" 
d="M1735 0l-361 -4q-119 156 -278 405q-22 35 -39 35q-12 4 -19 4v-225q0 -51 3 -75.5t19 -41t37.5 -21t69.5 -9.5v-68h-495v68q75 9 91.5 31t16.5 116v1010q-35 49 -94.5 79.5t-114.5 30.5q-72 0 -96 -82q-22 -70 -22 -282v-66h190q11 -17 4 -54.5t-29 -45.5h-165v-580
q0 -54 2.5 -79.5t16.5 -43.5t33.5 -23t63.5 -11v-68h-508v68q40 5 59.5 9.5t36.5 12.5t22.5 26.5t8 41.5t2.5 67v580h-137l-8 22l59 78h86v39q0 69 27 148q50 136 184 237q123 94 248 111q113 -5 178 -49q149 31 199 49l12 -13v-927q35 7 70 29t57 49q71 82 125 174
q11 19 15 30.5t-0.5 23t-24 19t-55.5 11.5v63l440 19v-64q-95 -17 -149.5 -40t-100.5 -64q-70 -68 -149 -170q40 -66 142 -203.5t155 -196.5q47 -54 82 -78t90 -34v-68z" />
    <glyph glyph-name="f_t" unicode="ft" horiz-adv-x="1304" 
d="M1286 76l-172 -78q-50 -23 -82 -23q-252 0 -252 258v574h-327v-602q0 -86 19.5 -107t107.5 -30v-68h-521v68q50 6 72 10.5t38 20.5t18.5 37.5t2.5 68.5v602h-137l-10 24l61 74h86v37q0 62 29 154q47 134 174 233q110 93 250 111q132 -6 193 -70q39 -39 16 -86
q-17 -42 -68 -78q-37 -25 -67 2q-40 42 -96.5 75.5t-96.5 33.5q-52 0 -67 -60q-20 -64 -6 -288l2 -64h327v129l232 160l30 -14v-275h205q18 -17 13.5 -51.5t-29.5 -46.5h-189v-500q0 -56 11.5 -96t30.5 -58.5t36.5 -26t34.5 -7.5q48 0 111 24z" />
    <glyph glyph-name="longs_b" unicode="&#x17f;b" horiz-adv-x="1728" 
d="M1034 854l72 35q80 41 139 41q180 0 301 -127t121 -307q0 -223 -153.5 -372t-380.5 -149q-164 0 -361 74v1182q-94 112 -186 112q-82 0 -109 -100q-26 -94 -26 -350v-670q0 -37 1 -58t7 -39t12.5 -26t24.5 -15.5t35.5 -10.5t52.5 -8v-66h-518v66q34 5 51 8t33.5 11
t22.5 15.5t11 27t5.5 38.5t0.5 57v584h-133l-10 24l62 74h81v43q0 67 25 137q14 50 57.5 117t118.5 125q120 95 254 113q109 -5 182 -51q124 24 195 51l12 -17v-569zM1034 782v-559q0 -44 13 -67q12 -33 45.5 -64t78.5 -31q86 -2 149.5 96.5t63.5 286.5q0 173 -76 264
t-184 91q-16 0 -90 -17z" />
    <glyph glyph-name="longs_h" unicode="&#x17f;h" horiz-adv-x="1748" 
d="M1708 0h-479v66q72 10 88 32t16 105v372q0 109 -43 157t-110 48q-85 0 -146 -61v-514q0 -84 15 -106.5t81 -32.5v-66h-468v66q56 8 75 17t27 34.5t8 91.5v1024q-40 48 -92.5 78t-101.5 30q-71 0 -101 -94q-26 -95 -26 -370v-664q0 -91 18.5 -113t99.5 -34v-66h-503v66
q48 8 68 13t35.5 21.5t18 39.5t2.5 73v594h-137l-10 22l59 76h88v43q0 67 25 137q15 52 57 117t121 125q126 96 252 113q106 -5 176 -49q138 26 205 49l8 -13v-626q57 57 129 93t144 36q137 0 211.5 -86.5t74.5 -253.5v-381q0 -33 1 -52t6.5 -36t10.5 -24t21.5 -14
t30.5 -9.5t45 -7.5v-66z" />
    <glyph glyph-name="longs_i" unicode="&#x17f;i" horiz-adv-x="1189" 
d="M104 905h86v33q0 98 48 192q51 106 165 191q69 53 151 84.5t157 34.5q148 -5 233 -94q48 -51 23 -109q-18 -43 -64 -74q-53 -36 -86 0q-5 6 -23.5 32.5t-36 45.5t-43.5 42t-61 35.5t-75 12.5q-82 0 -107 -123q-20 -82 -20 -360v-647q0 -82 19 -103t93 -32v-66h-502v66
q35 5 52 7.5t34.5 9.5t23.5 13.5t12 23t6.5 33.5t0.5 48v606h-139l-8 24zM1161 0h-502v66q33 5 47.5 7t31 10.5t21 15.5t9.5 27.5t5.5 40.5t0.5 62v410q0 97 -17.5 121t-99.5 39v57q209 25 377 74v-701q0 -40 0.5 -61.5t6.5 -41.5t11.5 -28t23.5 -15.5t34 -10t51 -6.5v-66z
" />
    <glyph glyph-name="longs_k" unicode="&#x17f;k" horiz-adv-x="1669" 
d="M1716 0l-360 -4q-32 41 -118.5 170.5t-152.5 234.5q-22 35 -38 35q-12 4 -17 4v-227q0 -50 3 -74t20 -40.5t39.5 -21.5t74.5 -11v-66h-503v66q42 6 59.5 10.5t31.5 20t16.5 38.5t2.5 70v1026q-41 48 -95.5 80t-100.5 32q-76 0 -101 -98q-26 -98 -26 -352v-678
q0 -66 8.5 -92.5t30.5 -37t83 -19.5v-66h-514v66q92 12 111.5 34t19.5 115v592h-137l-10 24l59 74h88v43q0 63 23 137q44 140 184 244q130 96 244 111q120 -6 176 -49q146 29 201 49l12 -13v-927q53 11 115 73q55 55 121 172q9 17 13.5 27.5t4.5 22t-7.5 18.5t-25 13
t-45.5 10v63l439 19v-64q-96 -15 -150.5 -37.5t-99.5 -66.5q-66 -64 -148 -170q39 -63 134 -193.5t161 -208.5q45 -52 81 -75.5t93 -36.5v-66z" />
    <glyph glyph-name="longs_l" unicode="&#x17f;l" horiz-adv-x="1189" 
d="M1161 0h-499v66q52 8 72.5 18.5t29 39t8.5 95.5v1010q-36 50 -83.5 81t-96.5 31q-76 0 -105 -81q-36 -82 -36 -381v-658q0 -36 1 -56.5t6 -38.5t10.5 -26t21 -15.5t30.5 -10.5t45 -8v-66h-502v66q34 4 52 7t34.5 11t23 15.5t11.5 26.5t5.5 38.5t0.5 56.5v586h-137l-8 22
l59 76h86v43q0 62 25 142q14 48 57.5 112.5t118.5 120.5q131 100 264 117q116 -6 181 -49q141 33 186 49l12 -15v-1206q0 -95 20 -118t107 -35v-66z" />
    <glyph glyph-name="longs_longs" unicode="&#x17f;&#x17f;" horiz-adv-x="1189" 
d="M190 905v19q0 71 48 159q49 106 168 197q135 104 299 113q158 -5 243 -86q128 113 271 133q115 -6 170 -64q41 -38 20 -88q-19 -38 -61 -69q-41 -29 -70 0q-106 106 -174 106q-55 0 -68 -78q-5 -33 -5.5 -90t1.5 -160.5t2 -169.5v-602q0 -36 1 -57.5t7.5 -39.5t12 -26
t23.5 -16t32.5 -11t48.5 -9v-66h-500v66q35 5 51.5 10t32 13.5t20.5 26.5t8 42t3 67v578h-137l-10 24l59 78h88v35q0 109 62 217q-108 141 -226 141q-96 0 -135 -139q-24 -91 -24 -358v-600q0 -45 2.5 -66.5t15.5 -37t31.5 -20.5t58.5 -11v-66h-491v66q86 12 104 32t18 103
v602h-135l-8 24l62 78h81z" />
    <glyph glyph-name="longs_longs_i" unicode="&#x17f;&#x17f;i" horiz-adv-x="1781" 
d="M190 905v19q0 71 41 155q52 110 172 199q64 49 147 79.5t163 35.5q151 -5 245 -99q67 61 164 103.5t185 42.5q77 -3 136.5 -31t96.5 -68q48 -50 23 -108q-19 -46 -64 -74q-53 -36 -86 0q-2 2 -23.5 32t-38 47.5t-45 42.5t-64 37.5t-75.5 12.5q-43 0 -71 -36t-39 -93
q-9 -35 -12.5 -92.5t-4 -98.5t-0.5 -155v-639q0 -40 2.5 -62t8 -39.5t19.5 -26t32.5 -13.5t52.5 -10v-66h-489v66q76 10 94 34.5t18 116.5v588h-139l-8 22l61 78h86v35q0 133 56 215q-101 137 -226 137q-53 0 -86.5 -36.5t-48.5 -96.5q-9 -36 -14 -93.5t-5.5 -106
t-0.5 -150.5v-602q0 -85 17 -108t89 -33v-66h-496v66q47 7 68.5 13t37 22t18.5 38.5t3 67.5v598h-139l-10 22l61 78h88zM1755 0h-493v66q71 9 88.5 34.5t17.5 118.5v420q0 54 -2 78t-16 43t-34 25t-65 14v57q226 27 377 74v-703q0 -54 3 -80.5t18.5 -45t37 -24t68.5 -11.5
v-66z" />
    <glyph glyph-name="longs_longs_l" unicode="&#x17f;&#x17f;l" horiz-adv-x="1781" 
d="M1757 0h-504v68q76 9 95.5 34.5t19.5 124.5v1000q-40 49 -89.5 78.5t-98.5 29.5q-82 0 -111 -80q-29 -77 -29 -385v-649q0 -95 18 -119.5t95 -33.5v-68h-498v68q60 7 83.5 19t31.5 39t8 95v584h-139l-8 22l61 78h86v39q0 112 60 217q-86 133 -226 133q-49 0 -84 -36.5
t-53 -100.5q-22 -81 -22 -350v-596q0 -88 17 -111t89 -32v-68h-491v68q45 6 66.5 11.5t35.5 22t17 39t3 70.5v594h-139l-8 22l59 78h88v15q0 82 43 161q49 105 175 201q64 47 145.5 76.5t157.5 34.5q150 -5 247 -93q150 132 293 140q112 -6 174 -49q146 33 193 49l10 -13
v-1200q0 -37 1 -58.5t6.5 -40t12.5 -27.5t23.5 -16.5t35 -10.5t50.5 -6v-68z" />
    <glyph glyph-name="f_f" unicode="ff" horiz-adv-x="1259" 
d="M190 905v37q0 86 46 174q50 101 155 178q133 98 275 111q179 -5 268 -102q133 124 276 139q120 0 185 -72q35 -40 12 -88q-14 -39 -64 -74q-42 -30 -71 4q-2 2 -14 13.5t-16 15t-16 14.5t-17.5 15.5t-17 14t-18.5 13.5t-18 10.5t-19 9t-17.5 5t-18.5 2.5q-58 0 -68 -63
q-14 -73 0 -281l4 -76h238q9 -16 1 -52.5t-28 -47.5h-211v-590q0 -33 1.5 -53.5t9 -37t16 -25t29 -15.5t40.5 -10t58 -8v-66h-514v66q64 9 81 34.5t17 116.5v588h-323v-590q0 -88 19 -113t91 -36v-66h-502v66q46 6 68.5 12t38.5 22.5t20 41.5t4 73v590h-139l-10 24l59 76h90
zM774 905v39q0 58 14 119q10 38 33 86q-32 61 -94.5 111.5t-136.5 50.5q-85 0 -117 -111q-22 -79 -22 -231v-64h323z" />
    <glyph glyph-name="f_f_i" unicode="ffi" horiz-adv-x="1775" 
d="M1745 0h-483v66q62 9 79 33.5t17 107.5v455q0 97 -16.5 121t-90.5 24h-215v-592q0 -49 3.5 -75t18 -42t31.5 -21t56 -11v-66h-471v66q65 9 82.5 34t17.5 115v592h-323v-594q0 -48 3 -72.5t16.5 -41t31.5 -22t57 -11.5v-66h-493v66q44 6 65 11.5t36 22t19 42t4 73.5v592
h-135l-10 24l61 74h84v35q0 87 37 160q30 62 70 109.5t104 93.5q144 97 277 108q100 -3 170.5 -33t103.5 -75q166 137 336 143q152 -2 246 -96q51 -54 27 -111q-19 -43 -66 -72q-56 -38 -90 -4q-4 4 -33 41t-53 62.5t-67.5 50t-88.5 24.5q-41 0 -69 -34t-41 -90
q-17 -72 -17 -236v-76h205q256 0 379 25v-723q0 -83 20 -106t105 -35v-66zM774 905v43q0 66 19 127q13 47 36 84q-25 52 -90 104t-145 52q-47 0 -79 -32.5t-46 -86.5q-18 -70 -18 -227v-64h323z" />
    <glyph glyph-name="f_f_l" unicode="ffl" horiz-adv-x="1775" 
d="M1751 0h-481v66q58 9 73 31t15 108v1040q-24 45 -68 76t-100 31q-65 0 -111 -66q-43 -65 -43 -239v-142h215q7 -18 -0.5 -53t-27.5 -45h-187v-592q0 -50 3.5 -76t19 -41.5t33.5 -20.5t61 -11v-66h-479v66q46 7 64.5 17t27 39t8.5 95v590h-323v-594q0 -49 3 -73.5
t16 -40.5t31 -21.5t56 -11.5v-66h-489v66q30 5 46 8t32.5 10t23 15.5t12 25t7 37t1.5 53.5v592h-131l-10 24l60 74h81v39q0 81 43 166q57 107 168 186q150 106 295 111q169 -3 262 -92q151 121 306 127q124 3 221 -53q32 10 112 45l23 -11v-1218q0 -46 3.5 -69t20 -38
t37.5 -20t70 -12v-66zM774 905v41q0 27 3 48.5t9.5 48.5t8.5 36q7 25 41 95q-32 57 -91 97t-137 40q-54 0 -89 -38t-50 -97q-18 -69 -18 -213v-58h323z" />
    <glyph glyph-name="longs_t" unicode="&#x17f;t" horiz-adv-x="1290" 
d="M102 905h88v39q0 64 29 146q15 47 57 110t119 125q117 97 258 115q119 -5 185 -68q37 -40 18 -90q-22 -44 -68 -74q-38 -27 -67 2q-40 44 -91 78.5t-91 34.5q-50 0 -70 -66q-18 -59 -18 -368v-674q0 -39 3.5 -61t10.5 -39t24.5 -25.5t39 -13.5t61.5 -10v-66h-527v66
q88 12 107.5 35t19.5 114v592h-139l-10 24zM1272 74l-162 -76q-50 -23 -86 -23q-252 0 -252 261v571h-129l-12 24l59 74h82v129l232 160l30 -14v-275h201q17 -14 14 -50.5t-28 -47.5h-187v-502q0 -56 12 -95.5t31 -58.5t36.5 -26.5t35.5 -7.5q41 0 104 24z" />
    <glyph glyph-name="f_i" unicode="fi" horiz-adv-x="1189" 
d="M1159 0h-483v68q66 7 82 31.5t16 115.5v447q0 96 -16.5 119.5t-89.5 23.5h-217v-594q0 -84 22 -109t98 -34v-68h-505v68q82 7 103 32t21 111v594h-139l-8 26l61 74h86v45q0 95 50 193q48 95 159 178q146 112 303 119q154 -5 238 -97q45 -56 18 -112q-19 -47 -63 -68
q-56 -35 -86 6q-2 2 -19.5 26t-27.5 36.5t-32.5 35t-42 34.5t-48 22t-57.5 10q-41 0 -70 -32.5t-41 -88.5q-20 -79 -20 -243v-64h204q256 0 381 25v-715q0 -91 19.5 -114.5t103.5 -32.5v-68z" />
    <glyph glyph-name="f_l" unicode="fl" horiz-adv-x="1189" 
d="M1163 0h-479v68q42 5 59 16t24 39t7 92v1028q-29 43 -74 73t-94 30q-69 0 -110 -68q-45 -76 -45 -236v-137h211q9 -17 1 -53.5t-28 -46.5h-184v-594q0 -88 17.5 -110t94.5 -33v-68h-504v68q90 12 109.5 33t19.5 110v594h-139l-8 29l61 71h86v35q0 103 50 203
q56 115 163 190q140 99 279 107q117 0 213 -49q20 5 65 21t58 20l18 -11v-1206q0 -40 3 -61.5t8.5 -38t22.5 -24.5t36 -13t59 -10v-68z" />
    <glyph glyph-name=".notdef" horiz-adv-x="1024" 
d="M1024 0h-1024v1434h1024v-1434zM860 1331h-696l348 -522zM922 195v1044l-349 -522zM164 102h696l-348 523zM102 1239v-1044l349 522z" />
    <glyph glyph-name=".null" horiz-adv-x="0" 
 />
    <glyph glyph-name="nonmarkingreturn" horiz-adv-x="682" 
 />
    <glyph glyph-name="space" unicode=" " horiz-adv-x="444" 
 />
    <glyph glyph-name="exclam" unicode="!" horiz-adv-x="583" 
d="M289 1362q168 0 168 -88q0 -17 -21 -150q-44 -251 -100 -675q-3 -19 -47 -19.5t-47 19.5q-53 402 -101 675q-20 109 -20 150q0 88 168 88zM291 -25q-67 0 -110.5 45.5t-43.5 116.5q0 69 44 114.5t110 45.5q68 0 113 -45.5t45 -114.5q0 -71 -45 -116.5t-113 -45.5z" />
    <glyph glyph-name="quotedbl" unicode="&#x22;" horiz-adv-x="778" 
d="M303 1450l19 -14q-4 -70 -74 -533l-78 -39q-89 498 -96 516zM678 1450l18 -14q-3 -49 -29 -232t-46 -301l-76 -39q-14 77 -37.5 210.5t-38.5 212.5t-20 93z" />
    <glyph glyph-name="numbersign" unicode="#" horiz-adv-x="1024" 
d="M958 961l-22 -168h-195l-61 -248h172l-27 -168h-184l-84 -346h-100l84 346h-199l-82 -346h-102l82 346h-197l23 168h215l59 248h-184l20 168h203l72 296h104l-72 -296h197l72 296h100l-72 -296h178zM641 793h-197l-61 -248h199z" />
    <glyph glyph-name="dollar" unicode="$" horiz-adv-x="1024" 
d="M563 780l78 -28q63 -24 114.5 -54t96 -72t69.5 -98t25 -122q-1 -160 -104 -260.5t-279 -120.5v-170h-84v163q-111 1 -201 29t-137 57q-20 64 -55 291l66 13q110 -285 327 -304v431l-61 26q-303 121 -303 338q0 142 96 238.5t268 119.5v154h84v-147q103 0 189 -27
q41 -11 75 -16q37 -195 47 -275l-67 -10q-14 44 -30 78.5t-43.5 71t-71 60.5t-99.5 32v-398zM479 813v365q-79 -11 -121.5 -62t-42.5 -117q0 -119 164 -186zM563 506v-397q76 13 122 62.5t46 137.5q0 115 -139 183z" />
    <glyph glyph-name="percent" unicode="%" horiz-adv-x="1564" 
d="M1231 1278l-838 -1356l-76 55l838 1354zM401 1300q80 0 143.5 -33.5t100.5 -87t56.5 -114.5t19.5 -121q0 -62 -18.5 -123t-55.5 -115t-101 -88t-145 -34q-79 0 -142 34t-100 88t-56 115t-19 121q0 61 19 122t56 115t100 87.5t142 33.5zM406 1227q-34 0 -59 -29.5
t-37.5 -76t-18.5 -90.5t-6 -85q0 -43 6 -88.5t18.5 -93t37.5 -77.5t59 -30t58 30.5t35.5 79t16 92t4.5 85.5q0 46 -4.5 88.5t-15.5 90t-35 76t-59 28.5zM1167 692q64 0 118 -22.5t90.5 -58.5t61.5 -83.5t36.5 -96.5t11.5 -97q0 -62 -18.5 -122.5t-55 -115t-100 -88
t-144.5 -33.5q-64 0 -118.5 22.5t-90.5 59t-61.5 83.5t-37 95.5t-11.5 96.5q0 49 11.5 98t37 96.5t61.5 84t90.5 59t118.5 22.5zM1167 618q-34 0 -58.5 -28t-36.5 -73.5t-17.5 -90t-5.5 -88.5q0 -43 5.5 -88t17.5 -93t37 -78t60 -30q34 0 58 30.5t35.5 79t16.5 92t5 85.5
q0 45 -5 88.5t-16.5 90t-36 75t-59.5 28.5z" />
    <glyph glyph-name="ampersand" unicode="&#x26;" horiz-adv-x="1464" 
d="M1499 872v-69q-94 -10 -141 -37t-103 -100q-35 -44 -172 -240q196 -190 355 -430l-13 -25q-137 0 -231.5 24t-120.5 50q-4 4 -60.5 65t-101.5 105q-187 -244 -395 -244q-100 0 -183.5 34.5t-135.5 90t-80.5 122.5t-28.5 134q0 36 7 68.5t17 58t32.5 53.5t40 46.5t55 47.5
t61.5 46.5t74 52.5q-137 134 -137 291q0 137 110.5 239.5t261.5 102.5q153 0 250.5 -84.5t97.5 -212.5q0 -96 -88 -168q-59 -53 -163 -121q148 -128 319 -287q47 72 100 177q33 69 11.5 97.5t-123.5 43.5v69h485zM592 1280q-59 0 -99 -54t-40 -128q0 -73 43.5 -134
t150.5 -145q103 87 103 252q0 85 -42 147t-116 62zM614 158q66 0 134 34.5t110 83.5q-72 73 -147 143t-121.5 111.5t-161.5 141.5q-41 -44 -63.5 -104.5t-22.5 -121.5q0 -139 80 -213.5t192 -74.5z" />
    <glyph glyph-name="quotesingle" unicode="'" horiz-adv-x="407" 
d="M303 1450l19 -14q-7 -116 -74 -533l-78 -39q-86 479 -100 516z" />
    <glyph glyph-name="parenleft" unicode="(" horiz-adv-x="720" 
d="M643 -297l-55 -55q-432 311 -432 909q0 591 432 905l55 -55q-138 -140 -215.5 -364.5t-77.5 -487.5q0 -262 81 -495t212 -357z" />
    <glyph glyph-name="parenright" unicode=")" horiz-adv-x="720" 
d="M78 1411l53 51q432 -316 432 -907q0 -594 -432 -907l-53 53q136 133 213.5 361t77.5 493q0 260 -81.5 495.5t-209.5 360.5z" />
    <glyph glyph-name="asterisk" unicode="*" horiz-adv-x="829" 
d="M762 989l-268 -57l69 -281l-55 -24l-148 262l-251 -152l-37 54l204 196l-213 215l39 51l250 -161l123 270l60 -14l-50 -287l275 -12z" />
    <glyph glyph-name="plus" unicode="+" horiz-adv-x="1181" 
d="M1087 453h-417v-453h-154v453h-420v133h420v409h154v-409h417v-133z" />
    <glyph glyph-name="comma" unicode="," horiz-adv-x="520" 
d="M207 330q84 0 160.5 -74.5t76.5 -185.5q0 -68 -30 -127t-80.5 -100.5t-110 -70t-125.5 -44.5l-26 71q94 38 139 86.5t45 112.5q0 54 -39.5 95.5t-110.5 56.5q-9 4 -18.5 23.5t-9.5 49.5q0 46 38.5 76.5t90.5 30.5z" />
    <glyph glyph-name="hyphen" unicode="-" horiz-adv-x="700" 
d="M618 543l-32 -148h-502l31 148h503z" />
    <glyph glyph-name="period" unicode="." horiz-adv-x="520" 
d="M258 -25q-64 0 -106.5 44t-42.5 112q0 67 43 111.5t106 44.5q66 0 110 -44.5t44 -111.5q0 -69 -44 -112.5t-110 -43.5z" />
    <glyph glyph-name="slash" unicode="/" horiz-adv-x="669" 
d="M623 1362l-443 -1454h-143l442 1454h144z" />
    <glyph glyph-name="zero" unicode="0" horiz-adv-x="1024" 
d="M512 1300q99 0 178.5 -40.5t130 -106t84 -154t47 -177.5t13.5 -183q0 -95 -13.5 -184.5t-47 -178t-84 -154t-130 -106.5t-178.5 -41t-179 41t-130.5 107t-84 154t-47.5 177.5t-14 182.5q0 95 14.5 185.5t49 178.5t85 153.5t129.5 105.5t177 40zM510 1217q-50 0 -85 -49
t-53.5 -135.5t-26 -181t-7.5 -206.5q0 -110 9 -209t29 -186.5t56 -139t84 -51.5t83 49.5t53 137t26 184.5t8 213q0 115 -9 213t-28.5 181.5t-55 131.5t-83.5 48z" />
    <glyph glyph-name="one" unicode="1" horiz-adv-x="1024" 
d="M838 0h-629v70q63 4 97 12t53.5 31t24.5 53.5t5 89.5v743q0 80 -15 101.5t-77 25.5l-104 9v59q168 25 466 106v-1044q0 -58 4.5 -88t23.5 -53.5t53.5 -32t97.5 -12.5v-70z" />
    <glyph glyph-name="two" unicode="2" horiz-adv-x="1024" 
d="M901 358l68 -24q-18 -66 -44.5 -182.5t-35.5 -151.5h-821v53q2 2 32 31t35 34t32 31.5t35 34.5l32 32t35 35.5t31.5 33t33.5 36.5t29.5 34t31.5 36q112 133 169 249.5t57 229.5q0 109 -56 176.5t-159 67.5q-58 0 -111 -27t-89.5 -64t-74.5 -91l-59 49l131 193
q129 126 309 126q158 0 265.5 -99.5t107.5 -264.5q0 -119 -65.5 -225.5t-221.5 -255.5l-246 -234h334q36 0 54 0.5t39.5 5.5t32 12.5t27 24.5t29.5 37.5t33 56.5z" />
    <glyph glyph-name="three" unicode="3" horiz-adv-x="1024" 
d="M168 987l-53 49l100 138q118 126 293 126q155 0 244.5 -76.5t89.5 -199.5q0 -78 -66 -137q-44 -39 -151 -105v-4q146 -25 225.5 -114t79.5 -209q-1 -95 -48.5 -177.5t-117.5 -136t-151.5 -93t-148 -56.5t-108.5 -17q-72 0 -133 20t-96 48q-47 38 -47 82q0 50 59 94
q40 28 78 2l15 -13q14 -12 18.5 -16t20 -16.5t23.5 -18t25 -16.5t29 -16.5t29.5 -13.5t32.5 -11.5t33 -6.5t36 -3q83 0 134 69.5t51 207.5q0 70 -22.5 124t-59.5 83.5t-78.5 44t-85.5 14.5q-53 0 -111 -15l-14 70q295 98 295 266q0 94 -50.5 140.5t-125.5 46.5
q-73 0 -130.5 -38.5t-113.5 -115.5z" />
    <glyph glyph-name="four" unicode="4" horiz-adv-x="1024" 
d="M995 356h-184v-129q0 -50 4 -75t22.5 -44t49 -25.5t90.5 -12.5v-70h-610v70q67 5 102.5 13.5t54.5 30t23 46.5t4 78v118h-520v84q372 526 633 848h147v-815h184v-117zM551 473v537h-4q-198 -273 -363 -537h367z" />
    <glyph glyph-name="five" unicode="5" horiz-adv-x="1024" 
d="M311 1055l-55 -316q76 29 150.5 48.5t113.5 19.5q95 0 174 -29t130 -77t78.5 -109.5t27.5 -128.5q0 -203 -207 -348q-87 -63 -189 -101t-194 -39q-60 0 -119 19t-94 47q-29 24 -39 41.5t-10 42.5q0 23 18.5 53.5t46.5 50.5q34 22 74 -12q136 -125 264 -125
q92 0 140.5 72.5t48.5 191.5q0 137 -82 220t-221 83q-107 0 -224 -38l93 655h649l12 -21l-66 -200h-520z" />
    <glyph glyph-name="six" unicode="6" horiz-adv-x="1024" 
d="M367 735l102 49q86 39 121 39q177 0 285 -105t108 -278q0 -195 -133 -330t-334 -135q-197 0 -328 142t-131 381q0 126 34 237.5t88.5 192t128 146.5t146 106.5t148.5 66.5q124 43 305 66l15 -78q-117 -24 -220 -74q-266 -136 -335 -426zM481 678q-62 0 -129 -23
q-12 -53 -12 -163q0 -195 66 -314t153 -119q45 1 77 27t48.5 70.5t23.5 92t7 101.5q0 145 -65.5 236.5t-168.5 91.5z" />
    <glyph glyph-name="seven" unicode="7" horiz-adv-x="1024" 
d="M975 1276l18 -25q-46 -97 -182 -381.5t-228.5 -482.5t-176.5 -387l-211 -25l-17 27q309 457 623 1053h-436q-103 0 -136.5 -21.5t-76.5 -113.5h-72q17 96 35.5 223.5t19.5 132.5h840z" />
    <glyph glyph-name="eight" unicode="8" horiz-adv-x="1024" 
d="M535 1300q167 0 271.5 -89.5t104.5 -227.5q0 -88 -67 -152q-68 -60 -150 -112q61 -33 104.5 -64t84.5 -73.5t62.5 -97t21.5 -119.5q0 -75 -28.5 -140t-75 -110t-106.5 -77.5t-123 -47.5t-124 -15q-201 0 -322.5 95t-121.5 252q0 44 15.5 82t30.5 56t40 42q50 45 190 125
q-225 125 -225 317q0 149 118 252.5t300 103.5zM506 1219q-69 0 -111.5 -55.5t-42.5 -125.5q0 -51 18 -91.5t56 -74t80.5 -58.5t109.5 -56q76 72 76 215q0 121 -57.5 183.5t-128.5 62.5zM528 57q88 0 140 61.5t51 162.5q-1 36 -8.5 65.5t-28 56.5t-39.5 46t-60.5 45.5
t-72 43.5t-92.5 50q-46 -35 -76.5 -100.5t-30.5 -141.5q0 -138 67 -213.5t150 -75.5z" />
    <glyph glyph-name="nine" unicode="9" horiz-adv-x="1024" 
d="M516 1300q88 0 161.5 -27t126 -74.5t89.5 -113t54.5 -142t17.5 -161.5q0 -268 -139.5 -461t-366.5 -284q-61 -24 -170.5 -45t-179.5 -23l-13 74q221 39 374 183.5t192 334.5l-99 -51q-67 -37 -119 -37q-179 0 -287 110.5t-108 276.5q0 56 18 115.5t57 118t93 104
t131.5 74t167.5 28.5zM477 1219q-53 0 -90 -43t-52.5 -103.5t-15.5 -130.5q0 -135 67.5 -231.5t176.5 -96.5q48 0 113 27q10 71 10 152q0 80 -11 152t-34 135.5t-65 101t-99 37.5z" />
    <glyph glyph-name="colon" unicode=":" horiz-adv-x="520" 
d="M262 858q65 0 107.5 -44t42.5 -114q0 -66 -42.5 -108.5t-107.5 -42.5t-107 42.5t-42 108.5q0 70 42 114t107 44zM260 -25q-63 0 -105 43.5t-42 112.5q0 67 42 110.5t105 43.5q66 0 109 -43.5t43 -110.5q0 -69 -43 -112.5t-109 -43.5z" />
    <glyph glyph-name="semicolon" unicode=";" horiz-adv-x="520" 
d="M262 858q65 0 107.5 -44t42.5 -114q0 -66 -42.5 -108.5t-107.5 -42.5t-107 42.5t-42 108.5q0 70 42 114t107 44zM209 330q84 0 160.5 -74.5t76.5 -185.5q0 -68 -30 -127t-81 -100.5t-110.5 -70t-126.5 -44.5l-18 71q178 76 178 199q0 54 -39 95.5t-110 56.5q-5 1 -11 9.5
t-12 25.5t-6 38q0 46 38.5 76.5t90.5 30.5z" />
    <glyph glyph-name="less" unicode="&#x3c;" horiz-adv-x="1122" 
d="M1018 0l-909 449v139l909 448v-145l-760 -371v-4l760 -373v-143z" />
    <glyph glyph-name="equal" unicode="=" horiz-adv-x="1181" 
d="M1087 641h-991v133h991v-133zM1087 266h-991v133h991v-133z" />
    <glyph glyph-name="greater" unicode="&#x3e;" horiz-adv-x="1122" 
d="M1018 449l-909 -449v143l759 373v4l-759 371v145l909 -448v-139z" />
    <glyph glyph-name="question" unicode="?" horiz-adv-x="817" 
d="M467 463l-45 -49q-43 17 -86 42.5t-83.5 60t-65.5 79.5t-25 92q0 62 44.5 121.5t153.5 128.5q146 91 177 116q49 39 49 64q0 35 -24 55.5t-70 20.5q-47 0 -96 -22.5t-81.5 -50t-61.5 -50t-40 -22.5q-37 0 -78 43.5t-41 95.5q0 29 10.5 46t36.5 42q45 40 115 63t117 23
q87 0 172.5 -50t140.5 -134.5t55 -176.5q0 -69 -23.5 -118t-96.5 -99q-11 -8 -48 -32.5t-58.5 -40.5t-48.5 -39t-40.5 -44.5t-13.5 -41.5q0 -55 55 -123zM387 -25q-67 0 -111.5 45.5t-44.5 116.5q0 68 45 114t111 46q68 0 113 -46t45 -114q0 -71 -45 -116.5t-113 -45.5z" />
    <glyph glyph-name="at" unicode="@" horiz-adv-x="1568" 
d="M1130 -33l27 -61q-180 -111 -397 -111q-104 0 -199.5 25t-177.5 77t-142 125.5t-93.5 178t-32.5 227.5q1 139 43.5 260.5t116.5 210.5t172 153.5t211.5 97t232.5 32.5q137 0 251 -42.5t188 -114.5t114.5 -165t40.5 -196q0 -142 -64.5 -260t-182 -187.5t-263.5 -69.5
q-79 0 -98.5 34t-4.5 114l17 94l-4 2q-58 -83 -159.5 -163.5t-174.5 -80.5q-44 0 -75 49t-30 136q7 218 162 375q63 64 162 108.5t195 44.5q29 0 112 -16q27 -8 74 -8q-46 -172 -98 -453q-9 -49 -9.5 -78t8 -42.5t27.5 -12.5q49 0 99 25.5t94 74t71.5 130.5t26.5 184
q0 135 -65.5 234t-172.5 147.5t-239 48.5q-177 0 -319.5 -85.5t-222 -236t-79.5 -336.5q0 -79 18.5 -153.5t60.5 -145t103.5 -123t155 -84.5t207.5 -32q186 0 313 69zM864 770q-65 0 -116 -57q-39 -44 -67.5 -131.5t-31.5 -178.5q-3 -100 39 -100q17 0 49 21t79 73.5
t87 122.5q39 110 62 223q-52 27 -101 27z" />
    <glyph glyph-name="A" unicode="A" horiz-adv-x="1445" 
d="M1407 0h-586v72q89 13 107.5 39.5t-8.5 93.5q-26 79 -82 231h-394q-38 -104 -73 -219q-27 -73 -5 -102.5t130 -42.5v-72h-459l2 72q71 8 106 25.5t60 56t61 129.5l420 1052l105 27q373 -1020 391 -1067q23 -58 38.5 -91.5t33 -59.5t39.5 -39t47.5 -20.5t66.5 -12.5v-72z
M799 545l-152 442h-6q-12 -30 -162 -442h320z" />
    <glyph glyph-name="B" unicode="B" horiz-adv-x="1304" 
d="M821 723v-8q187 -23 291.5 -101t104.5 -219q0 -100 -51.5 -179t-141.5 -128q-155 -88 -432 -88h-520v72q44 4 68.5 7.5t47 12.5t32 20.5t17.5 35t9.5 51.5t1.5 75v783q0 46 -1.5 74.5t-9 52t-16.5 35t-30 21t-44 13t-63 7.5v71h598q229 0 338 -71q58 -37 89.5 -97.5
t31.5 -136.5q0 -70 -28.5 -125t-77.5 -89.5t-101 -55.5t-113 -33zM518 743h47q147 0 216 60t69 188q0 129 -64 191.5t-157 62.5q-68 0 -92 -24q-19 -19 -19 -88v-390zM518 662v-383q0 -112 33.5 -153.5t116.5 -39.5q97 2 170 74.5t73 212.5q0 143 -89 216t-263 73h-41z" />
    <glyph glyph-name="C" unicode="C" horiz-adv-x="1384" 
d="M1280 381l72 -33q-21 -78 -55.5 -175.5t-59.5 -149.5q-238 -54 -381 -54q-158 0 -289 39.5t-219 105.5t-148.5 154.5t-88 184t-27.5 196.5q0 208 100.5 370t286 252.5t426.5 90.5q47 0 95.5 -4t93.5 -12t75 -14t67 -15t42 -10q33 -208 47 -336l-76 -15q-88 316 -383 316
q-108 0 -197 -48.5t-145.5 -130t-87.5 -185.5t-31 -218q0 -280 135.5 -452t346.5 -172q126 0 224 78.5t177 236.5z" />
    <glyph glyph-name="D" unicode="D" horiz-adv-x="1558" 
d="M84 1331h616q402 0 588 -178q180 -173 180 -434q0 -350 -256 -549q-225 -170 -620 -170h-526v72q45 4 70 7.5t48.5 12.5t33.5 20.5t18 35t10 51.5t2 75v783q0 47 -1.5 75.5t-9 52t-16.5 35t-30.5 20.5t-43.5 12.5t-63 7.5v71zM522 1106v-819q0 -114 35 -156.5t139 -42.5
q208 0 335.5 159.5t127.5 430.5q0 143 -40 257t-111 185q-130 127 -334 127q-101 0 -129 -28q-23 -23 -23 -113z" />
    <glyph glyph-name="E" unicode="E" horiz-adv-x="1189" 
d="M1098 354l71 -14q-18 -138 -71 -340h-1045v72q49 4 75.5 7.5t52 12.5t36 20t19 34.5t10.5 51t2 74.5v787q0 47 -1.5 76t-9.5 52.5t-17 34.5t-31 19.5t-44 12t-63 6.5v71h965l4 -64t8 -119t8 -124l-74 -10q-35 127 -84 176q-26 28 -72 39.5t-132 11.5h-99q-58 0 -71 -11
t-13 -61v-434h137q57 0 87.5 2.5t57.5 10t40.5 26t23.5 44t19 71.5h74v-414h-74q-8 39 -14.5 62.5t-19.5 43t-25.5 28t-39 14.5t-53.5 7t-76 1h-137v-355q0 -77 10 -115t39 -52q49 -21 185 -21q164 0 227 66q57 65 115 200z" />
    <glyph glyph-name="F" unicode="F" horiz-adv-x="1134" 
d="M1073 1020l-72 -14q-38 128 -81 176q-32 33 -79 46t-134 13h-103q-55 0 -67.5 -11t-12.5 -61v-452h166q96 0 137.5 11t59.5 39t31 99h73v-407h-73q-6 38 -11.5 60t-17 41.5t-24.5 28.5t-39.5 15.5t-56 8t-79.5 1.5h-166v-323q0 -53 1.5 -83t10 -56t18.5 -38t36 -21.5
t52.5 -13t76.5 -7.5v-72h-639v72q43 4 65.5 7.5t45 13t31.5 21.5t17 37.5t9.5 57t1.5 82.5v756q0 49 -1.5 79t-9.5 54.5t-17.5 36.5t-31.5 21t-45 12.5t-65 6.5v74h971q9 -154 22 -311z" />
    <glyph glyph-name="G" unicode="G" horiz-adv-x="1488" 
d="M1440 635v-70q-35 -7 -52 -12.5t-32 -14.5t-20.5 -27.5t-8 -43t-2.5 -68.5v-161q0 -129 12 -193q-302 -76 -467 -76q-355 0 -567.5 186t-212.5 494q0 137 43 253t118.5 200t177.5 143t222 88t250 29q40 0 83.5 -3.5t76 -7.5t75.5 -12t63.5 -12t58 -12.5t42.5 -9.5
q3 -38 33 -340l-76 -15q-37 164 -141.5 245t-255.5 81q-92 0 -175.5 -41t-146.5 -115t-100 -186.5t-37 -247.5q0 -95 18 -184.5t57.5 -171t95.5 -142.5t137.5 -97t179.5 -36q77 0 115 25q47 27 47 113v194q0 41 -1.5 62t-10 43t-20.5 31.5t-40 19t-62 13.5t-92 9v70h615z
" />
    <glyph glyph-name="H" unicode="H" horiz-adv-x="1603" 
d="M1528 1331v-71q-45 -4 -69 -7.5t-46.5 -13t-31 -20t-16 -35t-8.5 -51t-1 -74.5v-789q0 -47 1.5 -74t9 -50.5t16.5 -34t31.5 -19.5t46 -12.5t67.5 -7.5v-72h-625v72q45 4 70.5 7.5t48 13t32 20t17 34.5t9 51t1.5 74v381h-559v-381q0 -47 1.5 -74.5t9 -51t16 -34.5
t30.5 -20t45 -12.5t66 -7.5v-72h-610v72q42 4 65 7.5t45 12.5t31 20t16.5 34.5t9 51t1.5 74.5v787q0 47 -1.5 74.5t-9.5 51.5t-17.5 35t-32 20t-47 12.5t-68.5 7.5v71h614v-71q-41 -4 -63.5 -7.5t-44 -12.5t-30 -20t-16 -35t-9 -51.5t-1.5 -74.5v-301h559v301
q0 47 -1.5 74.5t-9 51.5t-16.5 35t-30.5 20t-44.5 12.5t-66 7.5v71h615z" />
    <glyph glyph-name="I" unicode="I" horiz-adv-x="774" 
d="M692 0h-614v72q42 4 65.5 7.5t45.5 12.5t31.5 20.5t17 35t9 51t1.5 73.5v785q0 47 -1.5 75t-9 51.5t-17 35t-31.5 21t-45.5 13t-65.5 7.5v71h614v-71q-42 -4 -65.5 -7.5t-45.5 -13t-31.5 -21t-17 -35t-9 -51.5t-1.5 -75v-785q0 -46 1.5 -73.5t9 -51t17 -35t31.5 -20.5
t45.5 -12.5t65.5 -7.5v-72z" />
    <glyph glyph-name="J" unicode="J" horiz-adv-x="749" 
d="M692 1331v-71q-48 -5 -72.5 -10.5t-45.5 -16.5t-28.5 -34t-11.5 -54.5t-4 -87.5v-676q0 -81 -3.5 -138.5t-15.5 -125t-34 -119.5t-61 -105.5t-94 -99.5q-108 -92 -250 -127l-31 76q85 36 131 94.5t61 153.5q23 147 23 399v668q0 56 -4 87.5t-12.5 54.5t-31 34t-49.5 16.5
t-79 10.5v71h612z" />
    <glyph glyph-name="K" unicode="K" horiz-adv-x="1439" 
d="M1432 0h-412q-211 290 -404 571q-31 45 -53 60t-47 12v-369q0 -47 1.5 -75t9.5 -51.5t17.5 -35t32 -20.5t47 -12.5t68.5 -7.5v-72h-612v72q41 4 64 7.5t44.5 12.5t31 20.5t17 35t9.5 52t2 74.5v783q0 47 -1.5 75t-9 51.5t-17 35t-31.5 21t-46 13t-67 7.5v71h602v-71
q-40 -4 -62.5 -7.5t-43.5 -13t-30 -21t-16 -35t-8.5 -51.5t-1.5 -75v-348q70 20 156 108q150 150 286 330q39 49 29 73t-80 33l-37 7v71h533v-71q-101 -10 -172 -39.5t-152 -104.5q-55 -50 -102.5 -98.5t-113 -118.5t-83.5 -88q197 -293 430 -588q62 -77 110.5 -109.5
t111.5 -41.5v-72z" />
    <glyph glyph-name="L" unicode="L" horiz-adv-x="1128" 
d="M1051 369l71 -23q-46 -245 -75 -346h-998v72q50 4 77.5 7.5t53 12.5t36.5 20.5t19.5 35t10.5 51t2 73.5v785q0 47 -1.5 75.5t-9.5 52t-18 35t-32.5 20.5t-46.5 12.5t-68 7.5v71h626v-71q-53 -5 -79.5 -10.5t-49.5 -16t-31 -34t-12 -54.5t-4 -88v-799q0 -75 10 -107
t41 -45q45 -18 154 -18q147 0 209 70q59 65 115 211z" />
    <glyph glyph-name="M" unicode="M" horiz-adv-x="1818" 
d="M1761 0h-606v72q43 4 66.5 8t44.5 14.5t30 22t15.5 38t7.5 55.5t0 81l-4 788h-10l-453 -1065h-57l-418 1045h-8l-25 -535q-11 -240 0 -329q6 -67 43 -90.5t141 -32.5v-72h-491v72q84 7 120.5 34.5t45.5 83.5q28 152 43 388l33 403q4 64 5 101t-4.5 70.5t-15.5 49.5
t-33 29.5t-51.5 19t-75.5 9.5v71h424l396 -897l401 897h412v-71q-30 -3 -49.5 -5.5t-38.5 -7t-29.5 -9.5t-21.5 -13t-14.5 -18.5t-9 -25t-4.5 -32.5t-1.5 -41t0.5 -51l18 -766q1 -53 2.5 -81t9 -55t16.5 -38.5t31 -22t46.5 -14.5t68.5 -8v-72z" />
    <glyph glyph-name="N" unicode="N" horiz-adv-x="1515" 
d="M1483 1331v-71q-85 -5 -121 -31.5t-43 -95.5q-19 -199 -19 -340v-813h-98l-852 1019h-6v-460q0 -169 16 -332q8 -71 47.5 -101t149.5 -34v-72h-502v72q87 6 125.5 35t44.5 94q21 179 21 338v428q0 104 -7.5 144.5t-35.5 74.5q-27 36 -65 52t-105 22v71h379l782 -899h8
v361q0 62 -2 121t-4.5 91t-5.5 72t-4 51q-8 68 -50.5 97t-152.5 35v71h500z" />
    <glyph glyph-name="O" unicode="O" horiz-adv-x="1568" 
d="M805 1362q139 0 263 -50t216 -138t145.5 -216.5t53.5 -277.5q0 -162 -55.5 -297t-151.5 -225t-224 -139.5t-272 -49.5q-151 0 -281 53.5t-220.5 146.5t-141.5 221t-51 274q0 107 29 208t89.5 190t144.5 156t201.5 105.5t254.5 38.5zM768 1276q-159 0 -264 -157t-105 -417
q0 -177 49 -322.5t145.5 -235t223.5 -89.5q153 0 252.5 148t99.5 420q0 302 -110.5 477.5t-290.5 175.5z" />
    <glyph glyph-name="P" unicode="P" horiz-adv-x="1226" 
d="M88 1331h563q247 0 359 -80q151 -104 151 -301q0 -99 -34.5 -177.5t-94.5 -128.5t-132.5 -79.5t-156.5 -40.5q-31 -4 -86 -4l-139 33v-281q0 -47 1.5 -74.5t10 -51.5t19.5 -35t36 -20.5t52 -13t76 -7.5v-70h-637v70q43 4 66.5 7.5t46 12.5t32 20.5t17 35t9 51.5t1.5 75
v785q0 46 -1.5 74.5t-9 52t-16 34.5t-29.5 20.5t-42.5 13.5t-61.5 8v71zM518 1167v-532q53 -21 111 -21q26 0 54 7.5t62.5 29.5t60.5 57t44 96t18 140q0 83 -22 145t-59.5 96t-81 50t-93.5 16q-51 0 -75 -20q-19 -19 -19 -64z" />
    <glyph glyph-name="Q" unicode="Q" horiz-adv-x="1552" 
d="M1505 -281l-18 -55q-81 -11 -159 -5t-142 22q-65 16 -187.5 85t-296.5 207q-104 7 -228.5 62t-205.5 143q-88 95 -135 217.5t-47 257.5q0 138 47 264t134.5 226t227 159.5t310.5 59.5q139 0 263 -50t216 -138t145.5 -216t53.5 -276q0 -247 -130 -426.5t-323 -239.5
q278 -195 475 -297zM733 61l168 54q9 -6 53 -39q83 35 149 175t66 370q0 303 -111 479t-296 176q-109 0 -192.5 -77t-127 -207.5t-43.5 -291.5q0 -244 88.5 -419t245.5 -220z" />
    <glyph glyph-name="R" unicode="R" horiz-adv-x="1349" 
d="M1352 47l-13 -65q-4 0 -25.5 1t-35.5 1q-127 6 -206.5 29.5t-124.5 61.5t-89 107q-24 37 -51 86t-62.5 114.5t-54.5 100.5q-25 48 -55.5 68.5t-79.5 21.5h-39v-299q0 -45 2 -72.5t9.5 -51t17.5 -35.5t31.5 -21.5t46.5 -13.5t67 -8v-72h-618v72q42 4 67 8t47 13.5
t32.5 21.5t18 35.5t9.5 51t2 72.5v787q0 44 -1.5 71t-9 50t-17 35t-30.5 21.5t-45.5 13.5t-64.5 8v71h575q135 0 219.5 -18t145.5 -60q64 -42 101.5 -111t37.5 -161q0 -227 -256 -334q60 -122 166 -291q116 -177 158 -221q35 -36 63 -56t62 -32zM516 653h53q140 0 201 56
q98 80 98 243q0 150 -71.5 223.5t-169.5 73.5q-72 0 -92 -20q-19 -16 -19 -76v-500z" />
    <glyph glyph-name="S" unicode="S" horiz-adv-x="1034" 
d="M905 1014l-69 -17q-15 44 -30.5 79.5t-41 74.5t-54.5 65.5t-71 44t-90 17.5q-86 0 -142.5 -57.5t-56.5 -145.5q0 -82 57 -140t197 -128q87 -42 148.5 -82t112.5 -91t76.5 -113t25.5 -136q0 -178 -138.5 -297t-359.5 -119q-109 0 -207 29q-51 14 -125 45q-29 83 -59 348
l72 23q14 -43 34 -88t53 -95.5t71.5 -88.5t91 -63.5t108.5 -25.5q93 0 149 59t56 156q0 86 -59.5 149.5t-184.5 129.5q-86 43 -146 82.5t-110 89.5t-75 110t-25 132q0 173 128 287t341 114q139 0 284 -55q4 -41 18 -138.5t21 -154.5z" />
    <glyph glyph-name="T" unicode="T" horiz-adv-x="1312" 
d="M1262 985l-74 -4q-37 158 -90 211q-26 28 -71.5 38.5t-135.5 10.5h-94v-969q0 -47 1.5 -74.5t10.5 -51t20 -34.5t37 -20t53 -12.5t78 -7.5v-72h-667v72q48 4 74.5 7.5t51.5 12.5t35 20t19 34.5t10.5 51t1.5 74.5v969h-69q-116 0 -162.5 -13t-73.5 -42q-43 -46 -86 -207
h-74q4 68 13.5 208t11.5 195h49q23 -33 46.5 -42t70.5 -9h823q41 0 67 11t52 40h49q3 -138 23 -397z" />
    <glyph glyph-name="U" unicode="U" horiz-adv-x="1492" 
d="M1483 1331v-71q-158 -8 -174 -121q-19 -120 -19 -285v-223q0 -175 -32.5 -300t-114.5 -212q-70 -73 -169.5 -111.5t-209.5 -38.5q-229 0 -363 107q-88 67 -129 184t-41 297v481q0 52 -1.5 83t-9.5 57t-17.5 38.5t-32 22.5t-46 13.5t-65.5 7.5v71h617v-71q-42 -4 -65 -7.5
t-45 -13.5t-31.5 -22.5t-17.5 -38.5t-9.5 -57.5t-1.5 -82.5v-444q0 -233 84 -359t248 -126q180 0 265 132.5t85 393.5v219q0 157 -21 285q-8 56 -52.5 85.5t-145.5 35.5v71h514z" />
    <glyph glyph-name="V" unicode="V" horiz-adv-x="1456" 
d="M1438 1331v-74q-53 -6 -83.5 -15t-60.5 -35t-53 -68t-55 -117q-149 -347 -414 -1045h-102q-223 601 -418 1080q-45 119 -85.5 155t-135.5 45v74h610v-74q-108 -17 -127.5 -42.5t8.5 -90.5q35 -97 158 -416.5t137 -355.5h6q194 514 258 713q38 107 18.5 142.5t-141.5 49.5
v74h480z" />
    <glyph glyph-name="W" unicode="W" horiz-adv-x="2004" 
d="M1985 1331v-71q-55 -9 -85.5 -20t-57 -35.5t-44.5 -62t-39 -104.5q-132 -367 -340 -1061h-106q-155 427 -334 910h-4q-212 -617 -307 -910h-109q-247 820 -328 1076q-25 82 -49 122t-57.5 58t-97.5 27v71h606v-71q-112 -13 -134 -44t5 -108q122 -432 209 -705h4
q208 630 295 916h98q236 -638 344 -924h4q107 337 193 690q17 60 11.5 96.5t-40.5 53.5t-119 25v71h482z" />
    <glyph glyph-name="X" unicode="X" horiz-adv-x="1419" 
d="M1432 0h-658v72q50 9 76.5 19t33 26t1.5 31t-21 45q-8 14 -28.5 49t-73 122.5t-115.5 194.5q-146 -216 -225 -360q-36 -66 -16.5 -88t124.5 -39v-72h-514v72q84 9 142 35.5t102 76.5q203 257 334 455q-205 339 -291 473q-45 74 -98 106t-154 42v71h619v-71
q-43 -10 -66 -19.5t-29.5 -22.5t-4 -24.5t13.5 -32.5q35 -66 184 -309q101 135 184 287q32 55 15 78t-113 43v71h494v-71q-101 -14 -155.5 -41.5t-115.5 -100.5q-15 -17 -30.5 -36t-35.5 -44.5t-33.5 -43t-38.5 -52t-36 -49.5t-41.5 -57.5t-40.5 -55.5q47 -73 160 -254
t180 -284q62 -97 113 -128t158 -42v-72z" />
    <glyph glyph-name="Y" unicode="Y" horiz-adv-x="1341" 
d="M1323 1331v-71q-66 -7 -107 -25.5t-70 -50.5t-69 -97q-121 -193 -229 -401q-23 -43 -30 -69t-7 -72v-262q0 -50 1.5 -79t10 -54.5t19 -36.5t36.5 -21t53.5 -14t78.5 -8v-70h-666v70q48 4 75 7.5t52 13.5t35.5 21.5t19 37t10 54.5t1.5 79v227q0 35 -5.5 56t-21.5 55
q-65 134 -254 464q-56 100 -96.5 131.5t-126.5 43.5v71h585v-71q-96 -13 -112.5 -38.5t16.5 -80.5q7 -13 234 -445q10 20 64.5 125t90.5 179t58 130q30 61 8.5 88.5t-129.5 41.5v71h475z" />
    <glyph glyph-name="Z" unicode="Z" horiz-adv-x="1267" 
d="M1174 395l69 -16q-45 -283 -76 -379h-1085l-25 35q266 400 783 1204h-258q-101 0 -159 -9t-80.5 -22.5t-41.5 -40.5q-50 -68 -80 -194l-69 2q3 85 12.5 222.5t11.5 184.5h53q22 -35 43.5 -43t73.5 -8h834l16 -31q-525 -812 -766 -1196q102 -12 254 -12q290 0 363 68
q38 36 66.5 89t60.5 146z" />
    <glyph glyph-name="bracketleft" unicode="[" horiz-adv-x="718" 
d="M618 -332h-378v1774h378v-74q-42 -4 -68.5 -6.5t-52 -8.5t-39 -11t-25.5 -17t-16.5 -22.5t-8.5 -32t-4.5 -40.5t-0.5 -54v-1246q0 -46 1 -67.5t8.5 -46t18.5 -33t38 -19t59 -14t90 -8.5v-74z" />
    <glyph glyph-name="backslash" unicode="\" horiz-adv-x="679" 
d="M623 -92h-144l-422 1454h144z" />
    <glyph glyph-name="bracketright" unicode="]" horiz-adv-x="718" 
d="M479 -332h-379v74q56 5 87.5 9t59 14t38.5 19.5t19.5 33t9.5 47.5t1 69v1242q0 45 -1 69t-9.5 47.5t-19.5 33t-38.5 19.5t-59 14t-87.5 9v74h379v-1774z" />
    <glyph glyph-name="asciicircum" unicode="^" horiz-adv-x="1144" 
d="M1036 436h-157l-310 686l-311 -686h-149l397 840h133z" />
    <glyph glyph-name="underscore" unicode="_" horiz-adv-x="1024" 
d="M1024 -256h-1024v102h1024v-102z" />
    <glyph glyph-name="grave" unicode="`" 
d="M494 1028l-66 -27q-56 69 -149 181t-115 139l8 29q23 15 100.5 29.5t108.5 9.5q66 -205 113 -361z" />
    <glyph glyph-name="a" unicode="a" horiz-adv-x="954" 
d="M952 92l-223 -117q-79 0 -125 43q-34 30 -53 76q-11 -7 -33.5 -22t-36.5 -24t-34 -22t-34 -20.5t-29 -15.5t-26.5 -11.5t-19.5 -3.5q-124 0 -200.5 80.5t-76.5 182.5q0 77 37 121.5t119 74.5q27 10 92.5 33.5t101 36.5t76 32t56.5 33v62q0 95 -33.5 147.5t-91.5 52.5
q-42 0 -68 -36q-33 -38 -59 -142q-18 -69 -86 -69q-42 0 -84.5 32t-42.5 70q0 26 17 48t55 50q67 46 162.5 89t176.5 57q121 0 201 -60q62 -48 84.5 -111.5t22.5 -158.5v-338q0 -121 65 -121q21 0 70 17zM543 162v327q-5 -3 -113 -63q-50 -26 -73 -57.5t-23 -81.5
q0 -78 39.5 -118t83.5 -40q40 0 86 33z" />
    <glyph glyph-name="b" unicode="b" horiz-adv-x="1093" 
d="M401 854l76 37q82 39 131 39q121 0 219 -60t151.5 -159t53.5 -213q0 -223 -153.5 -373t-378.5 -150q-164 0 -361 74v1110q0 90 -20 114.5t-105 31.5v61q211 24 387 74v-586zM401 782v-561q0 -38 11 -67q12 -32 46.5 -64t78.5 -33q89 -2 150 96t61 281q0 182 -77 272.5
t-186 90.5q-26 0 -84 -15z" />
    <glyph glyph-name="c" unicode="c" horiz-adv-x="864" 
d="M817 246l39 -49q-72 -101 -166 -161.5t-186 -60.5q-135 0 -238.5 63.5t-155 161.5t-51.5 212q0 113 54.5 216t152.5 175q91 67 184 97t164 30q115 0 177 -51q36 -25 36 -74q0 -42 -30 -77.5t-58 -35.5q-19 0 -45 23q-123 106 -207 106q-70 0 -121 -72.5t-51 -224.5
q0 -78 21 -142t53 -103.5t71.5 -67t74 -38.5t63.5 -11q65 0 114.5 18.5t104.5 65.5z" />
    <glyph glyph-name="d" unicode="d" horiz-adv-x="1120" 
d="M1108 119v-66q-4 -1 -43 -6.5t-75 -11.5t-85.5 -15.5t-101.5 -21.5t-98 -25v119l-123 -80q-61 -37 -105 -37q-68 0 -139 28t-134.5 81t-104 142t-40.5 198q0 138 73.5 254t203 184t285.5 68q9 0 84 -10v247q0 45 -3.5 66.5t-19.5 37.5t-40 21t-75 11v63q257 31 400 74
v-1182q0 -61 7 -86t24.5 -34.5t64.5 -14.5zM705 164v573q-24 53 -63 80t-85 27q-18 0 -40.5 -7.5t-53 -32t-55 -62t-41.5 -106.5t-17 -157q1 -72 17 -132.5t41.5 -99.5t58 -66t64 -38.5t61.5 -11.5q62 0 113 33z" />
    <glyph glyph-name="e" unicode="e" horiz-adv-x="894" 
d="M817 252l37 -49q-84 -124 -185.5 -176t-183.5 -52q-196 0 -310 127t-114 312q0 112 41.5 207.5t110.5 162.5q146 146 315 146q138 0 236 -100.5t96 -229.5q0 -33 -13 -51.5t-46 -22.5q-184 -20 -488 -32q7 -158 85 -244t192 -86q123 0 227 88zM485 848
q-61 0 -106.5 -69.5t-54.5 -188.5q42 1 121.5 3t121.5 3q25 2 33.5 9t9.5 32q0 84 -34 147.5t-91 63.5z" />
    <glyph glyph-name="f" unicode="f" horiz-adv-x="677" 
d="M106 905h84v45q0 50 25 137q43 133 176 240q114 97 242 113q108 -5 168 -62q39 -39 18 -90q-19 -43 -63 -74q-40 -30 -68 -2q-103 103 -172 103q-50 0 -63 -55q-15 -46 -4 -283l2 -72h235q7 -20 -1 -54t-28 -44h-206v-586q0 -52 3.5 -76t23.5 -42.5t49.5 -24t93.5 -12.5
v-66h-558v66q33 4 51 7.5t34.5 11.5t23 16t11.5 26.5t6 38t1 55.5v586h-133l-10 24z" />
    <glyph glyph-name="g" unicode="g" horiz-adv-x="1007" 
d="M1012 899l8 -14q-10 -30 -36.5 -69.5t-51.5 -55.5l-117 8q55 -65 55 -156q0 -102 -56.5 -176t-143.5 -108.5t-191 -34.5q-23 0 -100 10q-29 -29 -29 -57q0 -31 32 -55t99 -23q33 0 94.5 1t94.5 1q43 0 82 -5t83.5 -21.5t76 -42.5t52.5 -72.5t21 -108.5q0 -113 -80 -211
t-206 -153.5t-261 -55.5q-95 0 -170.5 22.5t-120.5 59.5t-68.5 80t-23.5 88q0 58 64 113q22 18 46 33.5t60 37t49 29.5q-59 21 -93.5 48.5t-59.5 64.5q-35 50 -31 110q115 47 209 136q-93 31 -147 104t-54 168q0 82 36 148.5t94.5 106t127.5 60.5t140 21q110 0 219 -56
q66 3 297 25zM483 854q-51 0 -87 -60t-36 -167q0 -112 37 -185t105 -73q60 0 91.5 59.5t31.5 173.5q0 69 -14.5 124.5t-47.5 91.5t-80 36zM498 -43q-76 0 -113.5 -9t-60.5 -34q-48 -51 -48 -104q0 -78 74.5 -137.5t190.5 -59.5q114 0 180.5 54t66.5 138q0 53 -31.5 87
t-82.5 47q-71 18 -176 18z" />
    <glyph glyph-name="h" unicode="h" horiz-adv-x="1126" 
d="M1090 0h-484v66q73 10 89 32.5t16 108.5v360q0 111 -41 161t-107 50q-90 0 -147 -57v-514q0 -85 15 -108t79 -33v-66h-485v66q49 5 70.5 9.5t37 21.5t18.5 41.5t3 76.5v954q0 34 -0.5 53t-6.5 35.5t-10.5 23t-21.5 13t-30 8t-46 5.5v59q170 22 377 74v-643
q56 58 128.5 95.5t143.5 37.5q135 0 209 -86.5t74 -253.5v-375q0 -35 0.5 -55.5t7.5 -37.5t11 -24t23 -14.5t31 -9.5t46 -8v-66z" />
    <glyph glyph-name="i" unicode="i" horiz-adv-x="604" 
d="M303 1059q-57 0 -100 42.5t-43 100.5q0 61 43 102.5t102 41.5q62 0 104 -41.5t42 -102.5q0 -59 -43 -101t-105 -42zM584 0h-525v66q41 5 60 9.5t36.5 13t23 28t8.5 44.5t3 72v406q0 36 -1 57.5t-6.5 39.5t-11.5 26.5t-21 16t-29.5 10.5t-42.5 8v59q191 22 373 74v-697
q0 -39 1 -60.5t6.5 -41.5t12.5 -28.5t24.5 -17t36 -12t52.5 -7.5v-66z" />
    <glyph glyph-name="j" unicode="j" horiz-adv-x="589" 
d="M303 1059q-57 0 -100 42.5t-43 100.5q0 61 43 102.5t102 41.5q61 0 103.5 -41.5t42.5 -102.5q0 -59 -43.5 -101t-104.5 -42zM63 795v61q150 17 388 74v-666q0 -115 -13 -187t-45 -145q-53 -130 -143.5 -247.5t-140.5 -153.5q-42 -31 -72 -31q-25 0 -53.5 33.5t-28.5 79.5
q0 25 13.5 40t35.5 15q133 3 154 41q18 37 24 146q8 242 8 385v385q0 39 -1 62.5t-7.5 43t-12.5 28t-23.5 16.5t-33 11.5t-49.5 8.5z" />
    <glyph glyph-name="k" unicode="k" horiz-adv-x="1050" 
d="M1098 0l-361 -4q-73 94 -266 405q-24 39 -45 39q-6 0 -14 -2v-217q0 -36 1 -57t7.5 -38.5t13 -26t24.5 -15.5t35 -10t52 -8v-66h-527v66q37 5 53.5 7.5t36 10t25.5 15.5t12.5 26t7.5 39t1 57v946q0 60 -9 86t-32.5 37.5t-81.5 18.5v57q215 27 381 74v-940q53 11 116 78
q31 35 65 87.5t54 90.5q21 32 8 52.5t-69 29.5v61l442 19v-62q-99 -18 -156.5 -41t-99.5 -65q-75 -75 -143 -168q35 -60 135 -197t162 -215q48 -54 82.5 -74.5t89.5 -29.5v-66z" />
    <glyph glyph-name="l" unicode="l" horiz-adv-x="569" 
d="M551 0h-531v66q41 6 61 11.5t37.5 14t23.5 26.5t9 41.5t3 65.5v938q0 50 -2.5 73t-17.5 39.5t-35 21t-68 10.5v59q215 26 383 74v-1215q0 -37 1 -58.5t7 -40.5t13 -27t25.5 -15.5t36.5 -10.5t54 -7v-66z" />
    <glyph glyph-name="m" unicode="m" horiz-adv-x="1726" 
d="M1688 0h-484v66q26 3 39.5 6t28 9.5t20.5 15t11 25t6.5 38t1.5 55.5v352q0 201 -146 201q-75 0 -159 -68q6 -69 6 -82v-413q0 -86 17.5 -108t88.5 -31v-66h-473v66q41 6 57.5 10t30 19.5t15.5 38t2 71.5v373q0 103 -39 147.5t-103 44.5q-71 0 -157 -65v-500
q0 -60 7.5 -86.5t24.5 -36t60 -16.5v-66h-482v66q34 4 50.5 6.5t34.5 9.5t24 15t12 25.5t7 37.5t1 55v430q0 89 -17.5 115.5t-86.5 36.5v59q163 24 360 78v-158q80 58 129 88q101 66 179 66q82 0 143 -44.5t90 -117.5q29 23 83 59.5t65 44.5q84 58 161 58q133 0 204 -86
t71 -244v-395q0 -87 17 -107t100 -32v-66z" />
    <glyph glyph-name="n" unicode="n" horiz-adv-x="1159" 
d="M1124 0h-477v66q25 4 37.5 7t25.5 10t17.5 16t9 28t5.5 42t1 62v349q0 102 -39.5 147t-101.5 45q-70 0 -151 -63v-496q0 -66 7.5 -93t24.5 -36.5t64 -17.5v-66h-494v66q39 5 55 8t36 10.5t25.5 15t12.5 26t7.5 39t0.5 58.5v424q0 40 -2.5 61.5t-7 38.5t-19 25.5t-31 13.5
t-50.5 11v59q173 21 371 78v-152q14 10 39 28.5t46.5 33.5t41.5 28q50 32 83.5 45t75.5 13q125 0 197 -87.5t72 -240.5v-387q0 -35 1 -55t6.5 -37t11 -25t22 -15t31 -9.5t46.5 -7.5v-66z" />
    <glyph glyph-name="o" unicode="o" horiz-adv-x="1075" 
d="M549 930q139 0 247 -64t164 -168.5t56 -228.5q0 -119 -40 -215.5t-107.5 -156t-151.5 -91t-176 -31.5q-94 0 -173.5 26t-135 70.5t-95 103.5t-58 124t-18.5 133q0 96 29 178.5t77.5 140t111.5 99t132 61t138 19.5zM522 850q-70 0 -119 -88.5t-49 -255.5q0 -126 25 -228
t73 -162.5t111 -60.5q33 0 58.5 13.5t50 49t38 109t13.5 181.5q0 214 -52 328t-149 114z" />
    <glyph glyph-name="p" unicode="p" horiz-adv-x="1120" 
d="M432 801l143 90q64 39 113 39q88 0 160 -34t117 -90t69.5 -126t24.5 -145q0 -109 -40.5 -205.5t-110.5 -166t-158.5 -117.5t-188.5 -71q-60 0 -129 25v-260q0 -33 1 -51.5t7.5 -36t16 -25t30.5 -15.5t46.5 -11t68.5 -7v-65h-569v65q52 4 77.5 9.5t40.5 23t18 40t3 71.5
v917q0 84 -20.5 106.5t-98.5 33.5v61q122 20 379 94v-149zM432 725v-567q31 -30 81.5 -55t86.5 -25q85 0 138 96t53 256q0 73 -14 132.5t-37 98t-53.5 64.5t-61.5 37.5t-62 11.5q-68 0 -131 -49z" />
    <glyph glyph-name="q" unicode="q" horiz-adv-x="1097" 
d="M1094 -471h-562v65q41 5 62 8t43 10t30 15t16 25t9.5 37t1.5 53v303l-164 -70q-118 0 -211 39.5t-148 104t-83.5 140t-28.5 153.5q0 107 46.5 203.5t124.5 165.5t183.5 109.5t219.5 39.5q80 -6 147 -29q37 -12 68 -12q36 0 104 24l11 -8q-7 -144 -7 -217v-948
q0 -49 3 -72.5t19 -40.5t40 -22t76 -11v-65zM694 119v643q-31 38 -68 61t-69 23q-80 0 -144.5 -95.5t-64.5 -269.5q0 -88 26.5 -162.5t67.5 -120t88 -71t91 -25.5q38 0 73 17z" />
    <glyph glyph-name="r" unicode="r" horiz-adv-x="827" 
d="M451 715h6q125 215 229 215q60 0 98.5 -36.5t38.5 -90.5t-28.5 -95t-71.5 -57q-39 -13 -64 8q-52 43 -94 43q-68 0 -114 -106v-381q0 -35 1 -54.5t8.5 -37.5t16 -25.5t31 -14.5t45.5 -10t68 -7v-66h-562v66q47 5 68.5 10t38 21.5t20.5 42t4 75.5v447q0 41 -3 62t-17.5 36
t-32 21t-57.5 16v57q203 26 371 78v-217z" />
    <glyph glyph-name="s" unicode="s" horiz-adv-x="784" 
d="M692 659l-61 -18q-44 101 -96.5 155t-120.5 54q-41 0 -73 -31.5t-32 -79.5q0 -47 36.5 -84t115.5 -73q69 -30 114.5 -56t85 -61.5t58 -81.5t18.5 -104q0 -96 -56.5 -167.5t-138 -104t-171.5 -32.5q-76 0 -150 22t-108 48q-9 26 -20.5 114.5t-12.5 159.5l61 7
q24 -70 60.5 -128.5t91 -100.5t113.5 -42q50 0 81 32t31 79q0 49 -33.5 88.5t-122.5 81.5q-31 15 -45 22.5t-47 27t-51 34.5t-43.5 40.5t-39 50t-24 58.5t-10.5 70q0 124 93.5 207.5t250.5 83.5q110 0 197 -37q13 -32 29 -113t20 -121z" />
    <glyph glyph-name="t" unicode="t" horiz-adv-x="694" 
d="M674 76l-166 -78q-61 -23 -84 -23q-122 0 -186 62t-64 196v574h-129l-10 24l57 74h82v150l232 159l28 -12v-297h201q19 -17 15.5 -51.5t-27.5 -46.5h-189v-506q0 -178 117 -178q49 0 102 24z" />
    <glyph glyph-name="u" unicode="u" horiz-adv-x="1136" 
d="M1110 115v-66q-141 -19 -375 -74l-16 15v123q-77 -61 -103 -76q-94 -62 -178 -62q-128 0 -198 77.5t-70 213.5v424q0 73 -17 93t-96 40v60q174 8 379 37q-6 -129 -6 -310v-297q0 -93 40.5 -136.5t100.5 -43.5q88 0 148 57v498q0 30 -0.5 45t-6 31t-12 22.5t-23.5 14
t-35.5 12t-53.5 10.5v60q207 10 391 37v-666q0 -82 15 -105.5t71 -29.5z" />
    <glyph glyph-name="v" unicode="v" horiz-adv-x="952" 
d="M989 905v-65q-75 -15 -106 -41t-64 -99q-96 -209 -299 -723h-80q-212 533 -295 728q-28 68 -58 93t-103 42v65h505v-65q-70 -15 -83.5 -34t6.5 -73q64 -179 155 -426q56 132 152 420q19 50 0 75t-98 38v65h368z" />
    <glyph glyph-name="w" unicode="w" horiz-adv-x="1398" 
d="M1432 905v-65q-72 -12 -97.5 -35.5t-58.5 -104.5q-78 -196 -262 -723h-78q-34 82 -116 276t-124 296q-45 -109 -123 -308.5t-104 -263.5h-78q-47 143 -133 398.5t-113 335.5q-27 75 -51.5 98.5t-87.5 30.5v65h506v-65q-87 -13 -106.5 -33.5t-2.5 -73.5q11 -35 121 -399h4
q32 79 67 170.5t78 208.5t68 182h80q85 -215 232 -565h4q28 82 65 205t49 184q11 38 5.5 62t-32.5 37t-91 22v65h379z" />
    <glyph glyph-name="x" unicode="x" horiz-adv-x="987" 
d="M1012 0h-510v66q58 10 67.5 30t-18.5 66l-102 178q-24 -34 -62.5 -99t-44.5 -75q-27 -43 -14.5 -65t73.5 -35v-66h-387v66q84 17 127 42t95 87q39 43 165 213l-180 297q-47 76 -78 99.5t-110 35.5v65h483v-65q-52 -12 -62.5 -28.5t11.5 -51.5l96 -160q32 47 101 160
q23 35 10.5 51.5t-72.5 28.5v65h375v-65q-83 -13 -117 -30t-90 -71q-19 -21 -42 -50.5t-58.5 -76.5t-61.5 -80l199 -317q50 -78 94 -109t113 -40v-66z" />
    <glyph glyph-name="y" unicode="y" horiz-adv-x="952" 
d="M989 905v-65q-73 -12 -102 -38t-68 -110q-18 -38 -43.5 -97t-48.5 -115t-66.5 -161.5t-78.5 -189.5q-139 -337 -215 -573q-17 -56 -76 -56q-46 0 -95 38.5t-49 90.5q0 24 12.5 42t43.5 38q62 33 100.5 66t67.5 80q30 59 39 84q12 39 -9 96q-167 468 -258 678
q-29 68 -58 92.5t-99 34.5v65h508v-65q-68 -12 -83 -28.5t1 -66.5l153 -454q71 174 154 436q17 51 -3.5 75.5t-94.5 37.5v65h368z" />
    <glyph glyph-name="z" unicode="z" horiz-adv-x="911" 
d="M840 311l59 -28q-14 -41 -35 -105.5t-35.5 -107t-25.5 -70.5h-727l-27 33q136 217 463 784h-109q-102 0 -151.5 -29t-93.5 -116l-35 -68l-64 27q49 158 84 319h45q12 -25 39 -35t86 -10h502l19 -28q-70 -119 -143 -246t-164.5 -289t-143.5 -252h131q112 0 173.5 32.5
t117.5 131.5z" />
    <glyph glyph-name="braceleft" unicode="{" horiz-adv-x="731" 
d="M635 -264v-80q-54 0 -98 6t-92 24t-81 48.5t-54 83.5t-21 125q0 62 6 196.5t6 204.5q0 24 -2 41.5t-12.5 43t-29 42t-55 30.5t-87.5 17v74q52 4 88.5 17.5t55 29.5t28.5 41t12 42.5t2 43.5q0 71 -6 204.5t-6 190.5q0 72 21 126t53.5 85.5t80 50.5t92.5 25t99 6v-80
q-45 -5 -77.5 -19t-51.5 -32t-30.5 -43.5t-15 -49t-3.5 -52.5q0 -62 12 -195t12 -186q0 -202 -184 -238v-8q95 -19 139.5 -83t44.5 -155q0 -55 -12 -186.5t-12 -187.5q0 -44 6 -74.5t24 -60t55 -46.5t93 -22z" />
    <glyph glyph-name="bar" unicode="|" horiz-adv-x="552" 
d="M362 -512h-172v2048h172v-2048z" />
    <glyph glyph-name="braceright" unicode="}" horiz-adv-x="731" 
d="M618 592v-74q-52 -4 -88.5 -18t-55 -31t-28.5 -44.5t-12 -48t-2 -52.5q0 -58 6 -190t6 -197q0 -69 -21 -121t-54 -82t-81.5 -48t-93.5 -24t-100 -6v76q56 6 94 25t57.5 48t27.5 60.5t8 71.5q0 49 -13.5 171t-13.5 197q0 209 184 246v8q-96 19 -140 82.5t-44 155.5
q0 71 13.5 199.5t13.5 185.5q0 37 -7.5 66.5t-27 58t-58 47t-94.5 24.5v76q56 0 100.5 -5.5t93 -23t81 -47.5t54 -83.5t21.5 -125.5q0 -66 -6 -196t-6 -187q0 -24 0.5 -38t4 -36.5t10.5 -35.5t20.5 -29.5t33 -26.5t49.5 -17.5t68 -10.5z" />
    <glyph glyph-name="asciitilde" unicode="~" horiz-adv-x="1181" 
d="M989 659l94 -57q-84 -219 -272 -219q-47 0 -98.5 15.5t-80 29.5t-77.5 41q-102 57 -170 57q-59 0 -104.5 -38t-85.5 -115l-89 71q104 209 285 209q60 0 109.5 -15.5t111.5 -51.5q130 -74 211 -74q100 0 166 147z" />
    <glyph glyph-name="uni00A0" unicode="&#xa0;" horiz-adv-x="444" 
 />
    <glyph glyph-name="exclamdown" unicode="&#xa1;" horiz-adv-x="583" 
d="M291 936q67 0 111 -45.5t44 -116.5q0 -69 -44.5 -114.5t-110.5 -45.5q-67 0 -111.5 45.5t-44.5 114.5q0 72 44 117t112 45zM293 -453q-168 0 -168 88q0 21 20 148q49 262 103 676q3 20 46 20t46 -20q56 -428 100 -676q21 -114 21 -148q0 -42 -37.5 -65t-130.5 -23z" />
    <glyph glyph-name="cent" unicode="&#xa2;" horiz-adv-x="1024" 
d="M893 473l39 -55q-60 -84 -137 -140.5t-162 -70.5v-197h-80v191q-106 4 -194.5 40t-145.5 93.5t-88 129.5t-31 150q0 112 53 210t152 169q113 77 254 101v166h80v-158h35q52 0 108.5 -12t87.5 -35q31 -21 31 -62q0 -39 -29 -71.5t-51 -32.5q-16 0 -35 24q-76 85 -147 99
v-643q153 3 260 104zM553 383v633q-37 -3 -73.5 -21.5t-70 -53t-54.5 -94.5t-21 -136q0 -140 62.5 -220.5t156.5 -107.5z" />
    <glyph glyph-name="sterling" unicode="&#xa3;" horiz-adv-x="1024" 
d="M827 592h-311v-31q0 -91 -66.5 -172t-160.5 -133q121 6 227 -37q9 -4 47.5 -20t53 -21.5t47.5 -17.5t51 -17t41.5 -9.5t40.5 -4.5q80 0 80 49q0 44 -15 82q-13 23 6 49q46 56 80 56q25 0 40.5 -25t15.5 -59q0 -71 -53.5 -141.5t-123.5 -119.5q-103 -75 -211 -75
q-34 0 -76.5 14t-68 26.5t-79.5 43t-68 37.5q-90 45 -140 45q-23 0 -41 -22.5t-26 -59.5q-9 -33 -33 -33q-29 0 -44.5 23.5t-2.5 66.5q7 25 29.5 56.5t55.5 72t46 57.5q80 104 80 230q0 50 -6 90h-195v94h178q-14 130 -14 170q0 90 47 185.5t148 164.5q125 89 237 94
q68 0 120.5 -23.5t80.5 -53.5q38 -44 6 -95q-16 -29 -51 -55q-35 -18 -68 6q-89 69 -129 88q-41 19 -76 19q-45 0 -65.5 -32t-20.5 -99q0 -34 7 -81.5t15 -84.5t22 -101.5t22 -101.5h321v-94z" />
    <glyph glyph-name="currency" unicode="&#xa4;" horiz-adv-x="1024" 
d="M963 279l-103 -103l-137 154q-89 -74 -223 -74q-136 0 -226 76l-137 -156l-100 103l145 139q-43 46 -65.5 112t-22.5 136q0 153 88 247l-145 140l100 102l139 -156q87 76 226 76q134 0 221 -76l137 156l103 -102l-146 -140q88 -94 88 -247q0 -70 -22.5 -136t-65.5 -112z
M502 940q-101 0 -166.5 -78t-65.5 -196q0 -121 65 -198t167 -77q101 0 165 76.5t64 198.5q0 118 -64.5 196t-164.5 78z" />
    <glyph glyph-name="yen" unicode="&#xa5;" horiz-adv-x="1024" 
d="M1001 1276v-70q-74 -9 -107 -34t-75 -107q-18 -34 -37.5 -74t-34.5 -71.5t-48 -102t-58 -123.5h217v-84h-231v-137h233v-84h-233v-110q0 -50 1.5 -78.5t9 -54t18 -37t33.5 -21t49.5 -12.5t72.5 -6v-70h-621v70q44 3 69.5 6t48 12.5t32 21t17 37.5t9 55t1.5 79v108h-222
v84h222v137h-222v84h197q-24 64 -82.5 191.5t-75.5 167.5q-28 64 -52.5 95t-48.5 41t-71 17v70h506v-70l-47 -10q-36 -6 -45 -21.5t2 -46.5q27 -76 79 -202t71 -178q99 215 147 344q20 49 11.5 73t-54.5 31l-55 10v70h374z" />
    <glyph glyph-name="brokenbar" unicode="&#xa6;" horiz-adv-x="552" 
d="M362 666h-172v716h172v-716zM362 -358h-172v716h172v-716z" />
    <glyph glyph-name="section" unicode="&#xa7;" horiz-adv-x="987" 
d="M879 418q-2 -185 -205 -430q-142 -154 -307 -199q-91 0 -148 43q-39 29 -39 64q0 17 23.5 49.5t38.5 40.5q30 19 49 4q72 -56 172 -56q48 0 81.5 25t33.5 61q0 37 -25.5 70.5t-99.5 99.5q-36 37 -116 112.5t-112 109.5q-61 60 -99.5 142t-37.5 171q0 213 174 395
q75 80 146 127.5t161 69.5q40 0 81 -16t67 -39t26 -54q-2 -45 -57 -88q-18 -14 -41 6q-78 56 -172 56q-48 0 -79.5 -23t-31.5 -55q0 -59 78 -123q36 -30 116.5 -94t111.5 -90q48 -39 83 -74.5t66.5 -82t47 -102.5t14.5 -120zM205 852q-2 -79 39.5 -154.5t142.5 -169.5
q207 -191 250 -252q46 -72 49 -157h4q60 99 60 194q2 76 -38.5 151t-142.5 157q-128 99 -217 188q-95 99 -90 201l-2 4q-55 -76 -55 -162z" />
    <glyph glyph-name="dieresis" unicode="&#xa8;" 
d="M197 1063q-55 0 -96.5 40t-41.5 95q0 58 42 97.5t98 39.5q59 0 99 -39.5t40 -97.5q0 -56 -40.5 -95.5t-100.5 -39.5zM618 1063q-56 0 -96.5 40t-40.5 95q0 58 41 97.5t99 39.5q57 0 97 -39.5t40 -97.5q0 -56 -41 -95.5t-99 -39.5z" />
    <glyph glyph-name="copyright" unicode="&#xa9;" horiz-adv-x="1431" 
d="M717 1292q177 0 322.5 -84.5t227 -228.5t81.5 -315q0 -169 -81.5 -312.5t-227 -228t-322.5 -84.5q-180 0 -326 84.5t-226.5 227.5t-80.5 313q0 172 81 315.5t226.5 228t325.5 84.5zM719 1212q-228 0 -377 -157t-149 -389q0 -151 67 -276t188 -198t271 -73q149 0 269 73
t186.5 198t66.5 276q0 114 -39.5 214.5t-107.5 173.5t-165.5 115.5t-209.5 42.5zM975 535l53 -13q-4 -15 -15.5 -58.5t-20 -72t-15.5 -45.5q-126 -41 -225 -41q-95 0 -172 31t-123.5 81.5t-71.5 112.5t-25 127q0 112 57.5 197.5t149 127.5t199.5 42q125 0 217 -37
q6 -80 23 -182l-52 -12q-31 82 -73.5 123.5t-118.5 41.5q-99 0 -158 -80t-59 -204q0 -131 65 -215t158 -84q73 0 121 40t86 120z" />
    <glyph glyph-name="ordfeminine" unicode="&#xaa;" horiz-adv-x="686" 
d="M651 629l-151 -74q-84 0 -117 74q-105 -74 -150 -74q-74 0 -125 50t-51 114q0 49 28 81t87 54q14 5 63.5 21.5t87 31t56.5 27.5v33q0 42 -23 68t-57 26q-56 0 -88 -109q-14 -43 -55 -43q-31 0 -59.5 21.5t-28.5 50.5q0 33 47 66q110 71 231 92q88 0 145.5 -46t57.5 -139
v-217q0 -71 43 -71q24 0 47 10zM379 684v188q-7 -3 -36 -17t-42 -21q-30 -15 -43.5 -33.5t-13.5 -46.5q0 -43 25.5 -65.5t52.5 -22.5q30 0 57 18z" />
    <glyph glyph-name="guillemotleft" unicode="&#xab;" horiz-adv-x="933" 
d="M485 104l-65 -38q-164 225 -324 393q160 168 324 393l65 -39l-170 -354zM844 104l-64 -38q-157 207 -325 393q159 170 325 393l64 -39l-170 -354z" />
    <glyph glyph-name="logicalnot" unicode="&#xac;" horiz-adv-x="1181" 
d="M1087 207h-153v428h-838v133h991v-561z" />
    <glyph glyph-name="uni00AD" unicode="&#xad;" horiz-adv-x="700" 
d="M618 543l-32 -148h-502l31 148h503z" />
    <glyph glyph-name="registered" unicode="&#xae;" horiz-adv-x="653" 
d="M328 1350q116 0 195 -80.5t79 -192.5q0 -109 -79.5 -189.5t-194.5 -80.5q-116 0 -193.5 77.5t-77.5 192.5q0 112 78.5 192.5t192.5 80.5zM330 1300q-93 0 -153 -64t-60 -159t61 -158t152 -63t152 63t61 158q0 94 -61.5 158.5t-151.5 64.5zM485 961l-8 -27q-70 0 -102 45
q-30 41 -41 61q-8 15 -25 15h-8v-45q0 -28 6 -33.5t33 -7.5v-33h-143v33q30 2 35.5 7t5.5 34v143q0 28 -5.5 33.5t-33.5 7.5v31h145q100 0 100 -76q0 -49 -55 -72q24 -47 66 -92q18 -18 30 -24zM301 1092h18q22 0 37 12q23 13 23 41q0 27 -16.5 38t-34.5 11q-15 0 -21 -6
t-6 -21v-75z" />
    <glyph glyph-name="macron" unicode="&#xaf;" 
d="M666 1108h-512v149h512v-149z" />
    <glyph glyph-name="degree" unicode="&#xb0;" horiz-adv-x="677" 
d="M338 1362q118 0 198 -73.5t80 -194.5q0 -123 -79.5 -195t-198.5 -72q-117 0 -197 72t-80 195q0 121 80.5 194.5t196.5 73.5zM342 1272q-67 0 -110.5 -49.5t-43.5 -126.5t43.5 -129t110.5 -52q64 0 105.5 50t41.5 122q0 83 -41 134t-106 51z" />
    <glyph glyph-name="plusminus" unicode="&#xb1;" horiz-adv-x="1181" 
d="M1087 623h-417v-396h-154v396h-420v133h420v370h154v-370h417v-133zM1087 0h-991v133h991v-133z" />
    <glyph glyph-name="twosuperior" unicode="&#xb2;" horiz-adv-x="712" 
d="M604 1036l53 -14q-21 -60 -55 -207h-528v53q323 247 323 410q0 65 -30.5 100t-85.5 35q-92 0 -166 -102l-43 41l69 100q34 43 93 68.5t118 25.5q109 0 179.5 -61t70.5 -164q0 -70 -49.5 -131.5t-173.5 -159.5l-88 -69v-5h184q54 0 77 14t52 66z" />
    <glyph glyph-name="threesuperior" unicode="&#xb3;" horiz-adv-x="712" 
d="M426 1239v-4q97 -13 148 -56t51 -110q0 -52 -28.5 -98t-72 -76.5t-95.5 -53t-97.5 -32.5t-79.5 -10q-43 0 -87.5 14.5t-64.5 30.5q-28 28 -14 67q16 40 51 64q23 12 47 -6q99 -86 154 -86q37 0 63.5 33t26.5 100q0 72 -38 107.5t-97 35.5q-47 0 -82 -14l-14 61
q176 55 176 142q0 35 -25.5 57t-64.5 22q-74 0 -144 -79l-37 36l70 91q30 30 79 50.5t107 20.5q99 0 157 -48t58 -114q0 -47 -38 -81q-39 -31 -109 -64z" />
    <glyph glyph-name="acute" unicode="&#xb4;" 
d="M418 1001l-64 27q16 50 56 185.5t45 152.5q15 10 106 19.5t117 3.5l12 -21z" />
    <glyph glyph-name="mu" unicode="&#xb5;" horiz-adv-x="1101" 
d="M1079 141l25 -57q-33 -45 -96 -77t-140 -32q-149 0 -184 142h-4q-116 -142 -229 -142q-105 0 -160 88h-4v-30q0 -103 24.5 -265t46.5 -241l-30 -27q-45 5 -101.5 29.5t-85.5 56.5q-4 20 -4 100.5t2 225t2 229.5v535q0 117 -8 207l262 49q6 -59 6 -234v-352
q0 -105 44 -156t104 -51q42 0 70.5 16.5t58.5 49.5v678l260 49v-674q0 -71 22.5 -102t55.5 -31q31 0 63 16z" />
    <glyph glyph-name="paragraph" unicode="&#xb6;" horiz-adv-x="1062" 
d="M981 1098l-61 -66l-179 -20v-961q0 -127 -36 -218.5t-115 -170.5q-52 -51 -114.5 -79.5t-84.5 -28.5q-95 0 -151 49q-30 30 -23 65q3 17 18 37.5t27 30.5q24 21 49 6q70 -47 146 -47q27 0 47.5 6t42.5 26t36.5 54t23.5 94t9 141v275l-143 -64q-16 -4 -35 -4
q-40 0 -87.5 18.5t-95 55.5t-87 87t-64 120t-24.5 147q0 103 40.5 192.5t110.5 151.5q67 59 155 94t175 35h412z" />
    <glyph glyph-name="periodcentered" unicode="&#xb7;" horiz-adv-x="520" 
d="M258 322q-64 0 -108 44t-44 113q0 68 44 113t108 45q68 0 112 -44.5t44 -113.5q0 -70 -44 -113.5t-112 -43.5z" />
    <glyph glyph-name="cedilla" unicode="&#xb8;" 
d="M518 0l-49 -51q-19 -20 -16 -37.5t30 -44.5q43 -43 61.5 -75t18.5 -66q0 -67 -66 -120t-188 -87l-26 51q58 25 90.5 59.5t32.5 63.5q0 32 -46 69q-43 40 -46.5 72t34.5 78l76 88h94z" />
    <glyph glyph-name="onesuperior" unicode="&#xb9;" horiz-adv-x="712" 
d="M592 815h-447v59q76 8 99.5 32.5t23.5 101.5v315q0 60 -11 77t-60 23l-52 4v60q158 13 324 59v-538q0 -77 23 -101.5t100 -32.5v-59z" />
    <glyph glyph-name="ordmasculine" unicode="&#xba;" horiz-adv-x="755" 
d="M385 1139q143 0 230 -85.5t85 -205.5q-3 -139 -95 -216t-228 -77q-155 0 -241 84.5t-83 202.5q3 133 104.5 215t227.5 82zM367 1069q-41 0 -69.5 -50t-31.5 -153q-2 -105 32.5 -174t88.5 -69q97 0 102 192q3 120 -29.5 187t-92.5 67z" />
    <glyph glyph-name="guillemotright" unicode="&#xbb;" horiz-adv-x="933" 
d="M96 811l66 41q132 -174 323 -393q-172 -187 -323 -393l-66 36l172 357zM449 811l65 41q144 -198 324 -393q-179 -191 -324 -393l-65 36l169 357z" />
    <glyph glyph-name="onequarter" unicode="&#xbc;" horiz-adv-x="1605" 
d="M602 569h-446v60q78 8 101.5 32t23.5 101v315q0 61 -11.5 79t-60.5 22l-51 4v59q153 13 323 62v-541q0 -77 22.5 -101t98.5 -32v-60zM1266 1272l-832 -1354l-78 57l828 1352zM1450 199h-113v-41q0 -53 21 -75t82 -28v-55h-412v55q77 6 100 27t23 76v41h-317v57
q231 307 378 477h125v-444h113v-90zM1151 289v266h-4q-96 -129 -189 -266h193z" />
    <glyph glyph-name="onehalf" unicode="&#xbd;" horiz-adv-x="1615" 
d="M584 569h-447v60q78 8 101.5 32t23.5 101v315q0 61 -11.5 79t-60.5 22l-51 4v59q153 13 324 62v-541q0 -77 22.5 -101t98.5 -32v-60zM1225 1272l-832 -1354l-78 57l828 1352zM1432 223l51 -16q-29 -87 -56 -207h-528v53q58 44 108.5 88t103 100t83.5 114t31 108
q0 64 -31.5 99.5t-87.5 35.5q-90 0 -164 -102l-45 41l72 100q35 44 93.5 70t117.5 26q108 0 179 -61.5t71 -163.5q0 -71 -49.5 -132t-174.5 -161l-88 -70v-4h185q55 0 77.5 14t51.5 68z" />
    <glyph glyph-name="threequarters" unicode="&#xbe;" horiz-adv-x="1615" 
d="M1266 1272l-830 -1354l-78 57l828 1352zM1448 199h-113v-41q0 -53 21 -75t82 -28v-55h-414v55q79 6 102 27t23 76v41h-318v57q212 286 377 477h127v-444h113v-90zM1149 289v266h-4q-119 -160 -189 -266h193zM494 995v-4q96 -13 147 -57t51 -111q0 -52 -28.5 -98t-72 -76
t-95.5 -52t-98 -32t-81 -10q-44 0 -88 14t-61 29q-29 29 -14 68q12 37 51 63q23 12 47 -6q99 -86 154 -86q36 0 62 33.5t26 101.5q0 72 -38 106.5t-98 34.5q-39 0 -79 -12l-15 60q176 58 176 141q0 35 -25.5 57.5t-64.5 22.5q-76 0 -143 -80l-37 37l68 92q30 30 80 51
t108 21q98 0 156.5 -48.5t58.5 -113.5q0 -52 -41 -84q-35 -27 -106 -62z" />
    <glyph glyph-name="questiondown" unicode="&#xbf;" horiz-adv-x="817" 
d="M424 936q67 0 111.5 -45.5t44.5 -116.5q0 -69 -45 -114.5t-111 -45.5q-68 0 -113 45.5t-45 114.5q0 71 45 116.5t113 45.5zM350 446l45 48q43 -16 87 -42t83.5 -60.5t64.5 -80t25 -92.5q0 -62 -44.5 -121.5t-153.5 -126.5q-22 -14 -66.5 -42t-63.5 -41t-45 -32.5
t-36 -33.5t-10 -27q0 -35 24 -55.5t70 -20.5q47 0 95 22t79.5 49t60 49t39.5 22q37 0 78 -45t41 -97q0 -27 -10.5 -45.5t-36.5 -42.5q-45 -40 -113.5 -62t-116.5 -22q-66 0 -133 29.5t-119 78t-85 116t-33 137.5q0 67 24.5 115.5t96.5 99.5q10 7 40.5 27t48 32t43.5 33
t41 37t25.5 35.5t10.5 36.5q0 53 -56 122z" />
    <glyph glyph-name="Agrave" unicode="&#xc0;" horiz-adv-x="1445" 
d="M1407 0h-586v72q89 13 107.5 39.5t-8.5 93.5q-26 79 -82 231h-394q-38 -104 -73 -219q-27 -73 -5 -102.5t130 -42.5v-72h-459l2 72q71 8 106 25.5t60 56t61 129.5l420 1052l105 27q373 -1020 391 -1067q23 -58 38.5 -91.5t33 -59.5t39.5 -39t47.5 -20.5t66.5 -12.5v-72z
M799 545l-152 442h-6q-12 -30 -162 -442h320zM860 1460l-29 -59l-425 119l-5 24q6 35 42 93t63 75q114 -79 354 -252z" />
    <glyph glyph-name="Aacute" unicode="&#xc1;" horiz-adv-x="1445" 
d="M1407 0h-586v72q89 13 107.5 39.5t-8.5 93.5q-26 79 -82 231h-394q-38 -104 -73 -219q-27 -73 -5 -102.5t130 -42.5v-72h-459l2 72q71 8 106 25.5t60 56t61 129.5l420 1052l105 27q373 -1020 391 -1067q23 -58 38.5 -91.5t33 -59.5t39.5 -39t47.5 -20.5t66.5 -12.5v-72z
M799 545l-152 442h-6q-12 -30 -162 -442h320zM1075 1546l-8 -24l-422 -123l-29 57q136 98 355 250q28 -11 64 -65.5t40 -94.5z" />
    <glyph glyph-name="Acircumflex" unicode="&#xc2;" horiz-adv-x="1445" 
d="M1407 0h-586v72q89 13 107.5 39.5t-8.5 93.5q-26 79 -82 231h-394q-38 -104 -73 -219q-27 -73 -5 -102.5t130 -42.5v-72h-459l2 72q71 8 106 25.5t60 56t61 129.5l420 1052l105 27q373 -1020 391 -1067q23 -58 38.5 -91.5t33 -59.5t39.5 -39t47.5 -20.5t66.5 -12.5v-72z
M799 545l-152 442h-6q-12 -30 -162 -442h320zM1051 1454l-33 -53q-43 16 -88 37t-99.5 48t-82.5 40q-15 -7 -79 -38.5t-106.5 -50.5t-85.5 -36l-31 53q107 88 271 252h63q100 -107 271 -252z" />
    <glyph glyph-name="Atilde" unicode="&#xc3;" horiz-adv-x="1445" 
d="M1407 0h-586v72q89 13 107.5 39.5t-8.5 93.5q-26 79 -82 231h-394q-38 -104 -73 -219q-27 -73 -5 -102.5t130 -42.5v-72h-459l2 72q71 8 106 25.5t60 56t61 129.5l420 1052l105 27q373 -1020 391 -1067q23 -58 38.5 -91.5t33 -59.5t39.5 -39t47.5 -20.5t66.5 -12.5v-72z
M799 545l-152 442h-6q-12 -30 -162 -442h320zM635 1634q45 0 131 -37q80 -34 125 -34q52 0 100 86l62 -31q-36 -112 -84 -156.5t-107 -44.5q-38 0 -143 43q-64 31 -107 31q-57 0 -104 -90l-59 41q68 192 186 192z" />
    <glyph glyph-name="Adieresis" unicode="&#xc4;" horiz-adv-x="1445" 
d="M1407 0h-586v72q89 13 107.5 39.5t-8.5 93.5q-26 79 -82 231h-394q-38 -104 -73 -219q-27 -73 -5 -102.5t130 -42.5v-72h-459l2 72q71 8 106 25.5t60 56t61 129.5l420 1052l105 27q373 -1020 391 -1067q23 -58 38.5 -91.5t33 -59.5t39.5 -39t47.5 -20.5t66.5 -12.5v-72z
M799 545l-152 442h-6q-12 -30 -162 -442h320zM950 1696q59 0 99.5 -39.5t40.5 -97.5q0 -56 -41 -96t-99 -40q-56 0 -96.5 40.5t-40.5 95.5q0 58 40.5 97.5t96.5 39.5zM518 1696q60 0 100.5 -39.5t40.5 -97.5q0 -56 -41 -96t-100 -40q-54 0 -94.5 40.5t-40.5 95.5
q0 58 40 97.5t95 39.5z" />
    <glyph glyph-name="Aring" unicode="&#xc5;" horiz-adv-x="1445" 
d="M1407 0h-586v72q89 13 107.5 39.5t-8.5 93.5q-26 79 -82 231h-394q-38 -104 -73 -219q-27 -73 -5 -102.5t130 -42.5v-72h-459l2 72q71 8 106 25.5t60 56t61 129.5l420 1052l105 27q373 -1020 391 -1067q23 -58 38.5 -91.5t33 -59.5t39.5 -39t47.5 -20.5t66.5 -12.5v-72z
M799 545l-152 442h-6q-12 -30 -162 -442h320zM737 1767q77 0 136 -50.5t59 -131.5q0 -84 -59 -136t-136 -52t-134.5 52t-57.5 136q0 81 57.5 131.5t134.5 50.5zM739 1690q-40 0 -67 -30.5t-27 -74.5q0 -47 27 -77.5t67 -30.5q41 0 66.5 30t25.5 76t-25.5 76.5t-66.5 30.5z
" />
    <glyph glyph-name="AE" unicode="&#xc6;" horiz-adv-x="1806" 
d="M1716 358l70 -18q-35 -189 -76 -340h-1026v72q45 4 71.5 8t49.5 15t33.5 24t18 39.5t9.5 57t2 81.5v301h-344q-42 -84 -71.5 -146.5t-57.5 -126.5t-39 -87q-39 -89 -18 -120t133 -46v-72h-500v72q97 12 147 50t107 142q200 367 463 887q25 49 18.5 68.5t-53.5 25.5
l-123 15v71h1133q10 -182 20 -301l-71 -10q-35 127 -80 172q-46 49 -207 49h-106q-55 0 -68.5 -11t-13.5 -61v-475h133q135 0 174.5 25t56.5 127h76v-412h-76q-6 40 -12 65t-19 44.5t-26 29t-40.5 15.5t-55.5 7t-78 1l-133 2v-313q0 -90 10 -127t41 -52q42 -16 184 -16
q165 0 223 66q73 77 121 202zM868 696v529q-24 0 -45 -8q-28 -58 -78 -158t-91 -184.5t-85 -178.5h299z" />
    <glyph glyph-name="Ccedilla" unicode="&#xc7;" horiz-adv-x="1384" 
d="M1278 379l74 -29q-22 -86 -54.5 -180t-56.5 -143q-195 -50 -342 -54l-20 -24q-18 -19 -15.5 -36t29.5 -48q80 -89 80 -146q0 -63 -64 -119t-192 -98l-35 64q58 30 90.5 63.5t34.5 59.5q0 10 -5 21.5t-10.5 18.5t-15.5 18.5t-12 14.5q-40 43 -45.5 70t20.5 64l62 75
q-147 6 -268 48t-202.5 108t-137.5 152.5t-81 178.5t-26 189q-1 210 99 372t287 252.5t433 90.5q59 0 121.5 -7t100.5 -14.5t86 -18.5t57 -13q32 -198 47 -336l-78 -17q-53 171 -145.5 242.5t-233.5 71.5q-139 0 -245 -79.5t-160 -210t-54 -288.5q0 -282 128 -455.5
t331 -173.5q259 0 418 316z" />
    <glyph glyph-name="Egrave" unicode="&#xc8;" horiz-adv-x="1189" 
d="M1098 354l71 -14q-18 -138 -71 -340h-1045v72q49 4 75.5 7.5t52 12.5t36 20t19 34.5t10.5 51t2 74.5v787q0 47 -1.5 76t-9.5 52.5t-17 34.5t-31 19.5t-44 12t-63 6.5v71h965l4 -64t8 -119t8 -124l-74 -10q-35 127 -84 176q-26 28 -72 39.5t-132 11.5h-99q-58 0 -71 -11
t-13 -61v-434h137q57 0 87.5 2.5t57.5 10t40.5 26t23.5 44t19 71.5h74v-414h-74q-8 39 -14.5 62.5t-19.5 43t-25.5 28t-39 14.5t-53.5 7t-76 1h-137v-355q0 -77 10 -115t39 -52q49 -21 185 -21q164 0 227 66q57 65 115 200zM735 1460l-28 -59l-424 119l-7 24q6 35 42.5 93
t64.5 75q197 -138 352 -252z" />
    <glyph glyph-name="Eacute" unicode="&#xc9;" horiz-adv-x="1189" 
d="M1098 354l71 -14q-18 -138 -71 -340h-1045v72q49 4 75.5 7.5t52 12.5t36 20t19 34.5t10.5 51t2 74.5v787q0 47 -1.5 76t-9.5 52.5t-17 34.5t-31 19.5t-44 12t-63 6.5v71h965l4 -64t8 -119t8 -124l-74 -10q-35 127 -84 176q-26 28 -72 39.5t-132 11.5h-99q-58 0 -71 -11
t-13 -61v-434h137q57 0 87.5 2.5t57.5 10t40.5 26t23.5 44t19 71.5h74v-414h-74q-8 39 -14.5 62.5t-19.5 43t-25.5 28t-39 14.5t-53.5 7t-76 1h-137v-355q0 -77 10 -115t39 -52q49 -21 185 -21q164 0 227 66q57 65 115 200zM932 1546l-8 -24l-422 -123l-29 57q80 57 352 250
q29 -10 65.5 -65t41.5 -95z" />
    <glyph glyph-name="Ecircumflex" unicode="&#xca;" horiz-adv-x="1189" 
d="M1098 354l71 -14q-18 -138 -71 -340h-1045v72q49 4 75.5 7.5t52 12.5t36 20t19 34.5t10.5 51t2 74.5v787q0 47 -1.5 76t-9.5 52.5t-17 34.5t-31 19.5t-44 12t-63 6.5v71h965l4 -64t8 -119t8 -124l-74 -10q-35 127 -84 176q-26 28 -72 39.5t-132 11.5h-99q-58 0 -71 -11
t-13 -61v-434h137q57 0 87.5 2.5t57.5 10t40.5 26t23.5 44t19 71.5h74v-414h-74q-8 39 -14.5 62.5t-19.5 43t-25.5 28t-39 14.5t-53.5 7t-76 1h-137v-355q0 -77 10 -115t39 -52q49 -21 185 -21q164 0 227 66q57 65 115 200zM903 1454l-33 -53q-42 16 -87 37t-98.5 47.5
t-82.5 40.5q-15 -7 -79 -38.5t-106.5 -50.5t-84.5 -36l-33 53q102 82 272 252h62q117 -123 270 -252z" />
    <glyph glyph-name="Edieresis" unicode="&#xcb;" horiz-adv-x="1189" 
d="M1098 354l71 -14q-18 -138 -71 -340h-1045v72q49 4 75.5 7.5t52 12.5t36 20t19 34.5t10.5 51t2 74.5v787q0 47 -1.5 76t-9.5 52.5t-17 34.5t-31 19.5t-44 12t-63 6.5v71h965l4 -64t8 -119t8 -124l-74 -10q-35 127 -84 176q-26 28 -72 39.5t-132 11.5h-99q-58 0 -71 -11
t-13 -61v-434h137q57 0 87.5 2.5t57.5 10t40.5 26t23.5 44t19 71.5h74v-414h-74q-8 39 -14.5 62.5t-19.5 43t-25.5 28t-39 14.5t-53.5 7t-76 1h-137v-355q0 -77 10 -115t39 -52q49 -21 185 -21q164 0 227 66q57 65 115 200zM815 1696q60 0 99.5 -39t39.5 -98q0 -56 -40 -96
t-99 -40q-56 0 -96.5 40.5t-40.5 95.5q0 58 40.5 97.5t96.5 39.5zM385 1696q59 0 99 -39.5t40 -97.5q0 -56 -40.5 -96t-98.5 -40q-56 0 -96.5 40.5t-40.5 95.5q0 58 40.5 97.5t96.5 39.5z" />
    <glyph glyph-name="Igrave" unicode="&#xcc;" horiz-adv-x="774" 
d="M692 0h-614v72q42 4 65.5 7.5t45.5 12.5t31.5 20.5t17 35t9 51t1.5 73.5v785q0 47 -1.5 75t-9 51.5t-17 35t-31.5 21t-45.5 13t-65.5 7.5v71h614v-71q-42 -4 -65.5 -7.5t-45.5 -13t-31.5 -21t-17 -35t-9 -51.5t-1.5 -75v-785q0 -46 1.5 -73.5t9 -51t17 -35t31.5 -20.5
t45.5 -12.5t65.5 -7.5v-72zM528 1460l-30 -59l-424 119l-4 24q6 36 41 93.5t63 74.5q114 -79 354 -252z" />
    <glyph glyph-name="Iacute" unicode="&#xcd;" horiz-adv-x="774" 
d="M692 0h-614v72q42 4 65.5 7.5t45.5 12.5t31.5 20.5t17 35t9 51t1.5 73.5v785q0 47 -1.5 75t-9 51.5t-17 35t-31.5 21t-45.5 13t-65.5 7.5v71h614v-71q-42 -4 -65.5 -7.5t-45.5 -13t-31.5 -21t-17 -35t-9 -51.5t-1.5 -75v-785q0 -46 1.5 -73.5t9 -51t17 -35t31.5 -20.5
t45.5 -12.5t65.5 -7.5v-72zM711 1546l-9 -24l-421 -123l-31 57q297 210 354 250q29 -10 65 -65t42 -95z" />
    <glyph glyph-name="Icircumflex" unicode="&#xce;" horiz-adv-x="774" 
d="M692 0h-614v72q42 4 65.5 7.5t45.5 12.5t31.5 20.5t17 35t9 51t1.5 73.5v785q0 47 -1.5 75t-9 51.5t-17 35t-31.5 21t-45.5 13t-65.5 7.5v71h614v-71q-42 -4 -65.5 -7.5t-45.5 -13t-31.5 -21t-17 -35t-9 -51.5t-1.5 -75v-785q0 -46 1.5 -73.5t9 -51t17 -35t31.5 -20.5
t45.5 -12.5t65.5 -7.5v-72zM688 1454l-33 -53q-55 22 -153.5 69.5t-116.5 55.5q-207 -101 -268 -125l-33 53q102 82 272 252h62q117 -123 270 -252z" />
    <glyph glyph-name="Idieresis" unicode="&#xcf;" horiz-adv-x="774" 
d="M692 0h-614v72q42 4 65.5 7.5t45.5 12.5t31.5 20.5t17 35t9 51t1.5 73.5v785q0 47 -1.5 75t-9 51.5t-17 35t-31.5 21t-45.5 13t-65.5 7.5v71h614v-71q-42 -4 -65.5 -7.5t-45.5 -13t-31.5 -21t-17 -35t-9 -51.5t-1.5 -75v-785q0 -46 1.5 -73.5t9 -51t17 -35t31.5 -20.5
t45.5 -12.5t65.5 -7.5v-72zM600 1696q60 0 99.5 -39t39.5 -98q0 -56 -40 -96t-99 -40q-56 0 -96.5 40.5t-40.5 95.5q0 58 40.5 97.5t96.5 39.5zM170 1696q59 0 99 -39.5t40 -97.5q0 -56 -40.5 -96t-98.5 -40q-56 0 -96.5 40.5t-40.5 95.5q0 58 40.5 97.5t96.5 39.5z" />
    <glyph glyph-name="Eth" unicode="&#xd0;" horiz-adv-x="1556" 
d="M106 1331h615q385 0 573 -180q81 -78 128.5 -187.5t47.5 -242.5q0 -361 -253 -549q-229 -172 -609 -172h-518v70q44 4 70 8.5t48.5 15t33 22.5t17.5 37t9 53t2 75v364h-192v103h192v303q0 57 -3.5 89t-12 56.5t-29 36t-46.5 17.5t-73 10v71zM545 645v-364q0 -56 5.5 -88
t22.5 -57t50 -34.5t88 -9.5q197 0 324.5 161t127.5 425q0 300 -147 450q-115 115 -322 115q-105 0 -131 -29q-18 -18 -18 -100v-366h289v-103h-289z" />
    <glyph glyph-name="Ntilde" unicode="&#xd1;" horiz-adv-x="1515" 
d="M1483 1331v-71q-85 -5 -121 -31.5t-43 -95.5q-19 -199 -19 -340v-813h-98l-852 1019h-6v-460q0 -169 16 -332q8 -71 47.5 -101t149.5 -34v-72h-502v72q87 6 125.5 35t44.5 94q21 179 21 338v428q0 104 -7.5 144.5t-35.5 74.5q-27 36 -65 52t-105 22v71h379l782 -899h8
v361q0 62 -2 121t-4.5 91t-5.5 72t-4 51q-8 68 -50.5 97t-152.5 35v71h500zM664 1634q47 0 131 -37q80 -34 125 -34q56 0 100 86l61 -31q-36 -112 -83 -156.5t-105 -44.5q-38 0 -143 43q-64 31 -109 31q-55 0 -102 -90l-62 41q68 192 187 192z" />
    <glyph glyph-name="Ograve" unicode="&#xd2;" horiz-adv-x="1568" 
d="M805 1362q139 0 263 -50t216 -138t145.5 -216.5t53.5 -277.5q0 -162 -55.5 -297t-151.5 -225t-224 -139.5t-272 -49.5q-151 0 -281 53.5t-220.5 146.5t-141.5 221t-51 274q0 107 29 208t89.5 190t144.5 156t201.5 105.5t254.5 38.5zM768 1276q-159 0 -264 -157t-105 -417
q0 -177 49 -322.5t145.5 -235t223.5 -89.5q153 0 252.5 148t99.5 420q0 302 -110.5 477.5t-290.5 175.5zM934 1479l-29 -62l-426 119l-4 25q6 35 41.5 93t63.5 75q53 -36 112 -78t130.5 -92.5t111.5 -79.5z" />
    <glyph glyph-name="Oacute" unicode="&#xd3;" horiz-adv-x="1568" 
d="M805 1362q139 0 263 -50t216 -138t145.5 -216.5t53.5 -277.5q0 -162 -55.5 -297t-151.5 -225t-224 -139.5t-272 -49.5q-151 0 -281 53.5t-220.5 146.5t-141.5 221t-51 274q0 107 29 208t89.5 190t144.5 156t201.5 105.5t254.5 38.5zM768 1276q-159 0 -264 -157t-105 -417
q0 -177 49 -322.5t145.5 -235t223.5 -89.5q153 0 252.5 148t99.5 420q0 302 -110.5 477.5t-290.5 175.5zM1098 1563l-8 -25l-422 -123l-31 58q53 38 173 122t181 127q29 -10 65 -64.5t42 -94.5z" />
    <glyph glyph-name="Ocircumflex" unicode="&#xd4;" horiz-adv-x="1568" 
d="M805 1362q139 0 263 -50t216 -138t145.5 -216.5t53.5 -277.5q0 -162 -55.5 -297t-151.5 -225t-224 -139.5t-272 -49.5q-151 0 -281 53.5t-220.5 146.5t-141.5 221t-51 274q0 107 29 208t89.5 190t144.5 156t201.5 105.5t254.5 38.5zM768 1276q-159 0 -264 -157t-105 -417
q0 -177 49 -322.5t145.5 -235t223.5 -89.5q153 0 252.5 148t99.5 420q0 302 -110.5 477.5t-290.5 175.5zM1085 1470l-32 -53q-56 22 -156 70t-115 55q-207 -101 -268 -125l-33 53q107 86 273 252h61q117 -123 270 -252z" />
    <glyph glyph-name="Otilde" unicode="&#xd5;" horiz-adv-x="1568" 
d="M805 1362q139 0 263 -50t216 -138t145.5 -216.5t53.5 -277.5q0 -162 -55.5 -297t-151.5 -225t-224 -139.5t-272 -49.5q-151 0 -281 53.5t-220.5 146.5t-141.5 221t-51 274q0 107 29 208t89.5 190t144.5 156t201.5 105.5t254.5 38.5zM768 1276q-159 0 -264 -157t-105 -417
q0 -177 49 -322.5t145.5 -235t223.5 -89.5q153 0 252.5 148t99.5 420q0 302 -110.5 477.5t-290.5 175.5zM682 1651q47 0 131 -37q82 -35 125 -35q56 0 100 86l62 -31q-36 -112 -83.5 -156t-107.5 -44q-12 0 -25 2t-30.5 7.5t-26.5 9t-32 13t-29 11.5q-62 30 -107 30
q-55 0 -102 -90l-61 41q68 193 186 193z" />
    <glyph glyph-name="Odieresis" unicode="&#xd6;" horiz-adv-x="1568" 
d="M805 1362q139 0 263 -50t216 -138t145.5 -216.5t53.5 -277.5q0 -162 -55.5 -297t-151.5 -225t-224 -139.5t-272 -49.5q-151 0 -281 53.5t-220.5 146.5t-141.5 221t-51 274q0 107 29 208t89.5 190t144.5 156t201.5 105.5t254.5 38.5zM768 1276q-159 0 -264 -157t-105 -417
q0 -177 49 -322.5t145.5 -235t223.5 -89.5q153 0 252.5 148t99.5 420q0 302 -110.5 477.5t-290.5 175.5zM997 1704q60 0 100 -39t40 -98q0 -56 -40.5 -95.5t-99.5 -39.5q-56 0 -96.5 40t-40.5 95q0 58 40.5 97.5t96.5 39.5zM567 1704q59 0 99.5 -39.5t40.5 -97.5
q0 -56 -41 -95.5t-99 -39.5q-56 0 -96.5 40t-40.5 95q0 58 40.5 97.5t96.5 39.5z" />
    <glyph glyph-name="multiply" unicode="&#xd7;" horiz-adv-x="1181" 
d="M1063 123l-100 -103l-373 381l-371 -381l-98 103l368 381l-368 377l98 104l371 -379l373 383l100 -102l-373 -383z" />
    <glyph glyph-name="Oslash" unicode="&#xd8;" horiz-adv-x="1579" 
d="M1335 1380l-102 -157q118 -95 189 -234t71 -303q0 -159 -55 -294t-151 -227t-228 -144t-283 -52q-198 0 -352 92l-117 -167l-63 53l108 157q-123 94 -194.5 240.5t-71.5 317.5q0 100 28 198t87 189t142 160.5t203 111t261 41.5q200 0 356 -90l105 155zM485 289l570 829
q-105 158 -281 158q-163 0 -274 -159t-111 -427q0 -107 26 -215t70 -186zM1102 1042l-567 -833q47 -73 121 -113.5t157 -40.5q164 0 269.5 150.5t105.5 431.5q0 243 -86 405z" />
    <glyph glyph-name="Ugrave" unicode="&#xd9;" horiz-adv-x="1492" 
d="M1483 1331v-71q-158 -8 -174 -121q-19 -120 -19 -285v-223q0 -175 -32.5 -300t-114.5 -212q-70 -73 -169.5 -111.5t-209.5 -38.5q-229 0 -363 107q-88 67 -129 184t-41 297v481q0 52 -1.5 83t-9.5 57t-17.5 38.5t-32 22.5t-46 13.5t-65.5 7.5v71h617v-71q-42 -4 -65 -7.5
t-45 -13.5t-31.5 -22.5t-17.5 -38.5t-9.5 -57.5t-1.5 -82.5v-444q0 -233 84 -359t248 -126q180 0 265 132.5t85 393.5v219q0 157 -21 285q-8 56 -52.5 85.5t-145.5 35.5v71h514zM926 1460l-29 -59l-424 119l-6 24q6 35 41.5 93t62.5 75q135 -93 355 -252z" />
    <glyph glyph-name="Uacute" unicode="&#xda;" horiz-adv-x="1492" 
d="M1483 1331v-71q-158 -8 -174 -121q-19 -120 -19 -285v-223q0 -175 -32.5 -300t-114.5 -212q-70 -73 -169.5 -111.5t-209.5 -38.5q-229 0 -363 107q-88 67 -129 184t-41 297v481q0 52 -1.5 83t-9.5 57t-17.5 38.5t-32 22.5t-46 13.5t-65.5 7.5v71h617v-71q-42 -4 -65 -7.5
t-45 -13.5t-31.5 -22.5t-17.5 -38.5t-9.5 -57.5t-1.5 -82.5v-444q0 -233 84 -359t248 -126q180 0 265 132.5t85 393.5v219q0 157 -21 285q-8 56 -52.5 85.5t-145.5 35.5v71h514zM1112 1546l-8 -24l-420 -123l-31 57q298 210 355 250q28 -11 64 -65.5t40 -94.5z" />
    <glyph glyph-name="Ucircumflex" unicode="&#xdb;" horiz-adv-x="1492" 
d="M1483 1331v-71q-158 -8 -174 -121q-19 -120 -19 -285v-223q0 -175 -32.5 -300t-114.5 -212q-70 -73 -169.5 -111.5t-209.5 -38.5q-229 0 -363 107q-88 67 -129 184t-41 297v481q0 52 -1.5 83t-9.5 57t-17.5 38.5t-32 22.5t-46 13.5t-65.5 7.5v71h617v-71q-42 -4 -65 -7.5
t-45 -13.5t-31.5 -22.5t-17.5 -38.5t-9.5 -57.5t-1.5 -82.5v-444q0 -233 84 -359t248 -126q180 0 265 132.5t85 393.5v219q0 157 -21 285q-8 56 -52.5 85.5t-145.5 35.5v71h514zM1090 1454l-33 -53q-43 17 -88 37.5t-100.5 47.5t-82.5 40q-22 -10 -80.5 -39t-102 -49
t-85.5 -37l-33 53q128 105 271 252h63q113 -118 271 -252z" />
    <glyph glyph-name="Udieresis" unicode="&#xdc;" horiz-adv-x="1492" 
d="M1483 1331v-71q-158 -8 -174 -121q-19 -120 -19 -285v-223q0 -175 -32.5 -300t-114.5 -212q-70 -73 -169.5 -111.5t-209.5 -38.5q-229 0 -363 107q-88 67 -129 184t-41 297v481q0 52 -1.5 83t-9.5 57t-17.5 38.5t-32 22.5t-46 13.5t-65.5 7.5v71h617v-71q-42 -4 -65 -7.5
t-45 -13.5t-31.5 -22.5t-17.5 -38.5t-9.5 -57.5t-1.5 -82.5v-444q0 -233 84 -359t248 -126q180 0 265 132.5t85 393.5v219q0 157 -21 285q-8 56 -52.5 85.5t-145.5 35.5v71h514zM999 1696q60 0 100 -39t40 -98q0 -56 -40.5 -96t-99.5 -40q-56 0 -96.5 40.5t-40.5 95.5
q0 58 40.5 97.5t96.5 39.5zM569 1696q60 0 100 -39t40 -98q0 -56 -40.5 -96t-99.5 -40q-56 0 -96.5 40.5t-40.5 95.5q0 58 40.5 97.5t96.5 39.5z" />
    <glyph glyph-name="Yacute" unicode="&#xdd;" horiz-adv-x="1341" 
d="M1323 1331v-71q-66 -7 -107 -25.5t-70 -50.5t-69 -97q-121 -193 -229 -401q-23 -43 -30 -69t-7 -72v-262q0 -50 1.5 -79t10 -54.5t19 -36.5t36.5 -21t53.5 -14t78.5 -8v-70h-666v70q48 4 75 7.5t52 13.5t35.5 21.5t19 37t10 54.5t1.5 79v227q0 35 -5.5 56t-21.5 55
q-65 134 -254 464q-56 100 -96.5 131.5t-126.5 43.5v71h585v-71q-96 -13 -112.5 -38.5t16.5 -80.5q7 -13 234 -445q10 20 64.5 125t90.5 179t58 130q30 61 8.5 88.5t-129.5 41.5v71h475zM1042 1546l-6 -24l-422 -123l-30 57q41 29 113 80t131 93t110 77q29 -10 64 -65
t40 -95z" />
    <glyph glyph-name="Thorn" unicode="&#xde;" horiz-adv-x="1214" 
d="M676 1331v-71q-39 -4 -60.5 -8.5t-42 -14t-30 -22.5t-16.5 -38t-9 -55.5t-2 -79.5q57 2 170 2q221 0 341 -88t120 -268q0 -170 -129.5 -276.5t-345.5 -106.5l-156 31v-92q0 -100 34 -130t155 -42v-72h-625v72q110 9 139 42t29 146v815q0 61 -4.5 92t-23 52t-46 28
t-82.5 13v71h584zM516 885v-465q49 -17 96 -17q22 0 48.5 6.5t61.5 26t62.5 49.5t46.5 83.5t19 121.5q0 73 -20.5 127.5t-56.5 84.5t-77.5 44.5t-89.5 14.5q-53 0 -74 -21q-16 -11 -16 -55z" />
    <glyph glyph-name="germandbls" unicode="&#xdf;" horiz-adv-x="1171" 
d="M190 905v23q0 100 37 184q59 139 193 234q130 90 264 96q171 -3 266 -93.5t97 -226.5q0 -39 -21 -63q-95 -69 -138.5 -123t-43.5 -111q1 -29 9.5 -53.5t31.5 -53.5t38.5 -45t55.5 -55q65 -61 104 -127.5t39 -152.5q0 -87 -60 -172.5t-154 -138t-187 -52.5q-70 0 -121 31
q-54 29 -33 84q13 34 43 55q22 20 43 2q80 -71 158 -71q32 0 60 28t28 84q0 97 -106 209q-95 98 -137 159.5t-42 129.5q0 18 3.5 35.5t6.5 30t14.5 30.5t15.5 25.5t21.5 27.5t22 24.5t27.5 28t27 27.5q12 13 28.5 29t26.5 26t14 17q13 16 13 68q2 111 -63.5 198.5
t-158.5 87.5q-23 0 -42.5 -7t-34 -22t-26.5 -32t-20.5 -44t-14.5 -51t-10 -59.5t-6 -62.5t-3 -68t-1.5 -68t-0.5 -69v-643q0 -63 6 -90t20.5 -38t52.5 -19v-68h-469v68q87 10 107 34t20 111v588h-127l-10 26l56 78h81z" />
    <glyph glyph-name="agrave" unicode="&#xe0;" horiz-adv-x="954" 
d="M952 92l-223 -117q-79 0 -125 43q-34 30 -53 76q-11 -7 -33.5 -22t-36.5 -24t-34 -22t-34 -20.5t-29 -15.5t-26.5 -11.5t-19.5 -3.5q-124 0 -200.5 80.5t-76.5 182.5q0 77 37 121.5t119 74.5q27 10 92.5 33.5t101 36.5t76 32t56.5 33v62q0 95 -33.5 147.5t-91.5 52.5
q-42 0 -68 -36q-33 -38 -59 -142q-18 -69 -86 -69q-42 0 -84.5 32t-42.5 70q0 26 17 48t55 50q67 46 162.5 89t176.5 57q121 0 201 -60q62 -48 84.5 -111.5t22.5 -158.5v-338q0 -121 65 -121q21 0 70 17zM543 162v327q-5 -3 -113 -63q-50 -26 -73 -57.5t-23 -81.5
q0 -78 39.5 -118t83.5 -40q40 0 86 33zM553 1028l-64 -27q-56 69 -149 181t-115 139l8 29q21 15 99.5 29.5t109.5 9.5q71 -219 111 -361z" />
    <glyph glyph-name="aacute" unicode="&#xe1;" horiz-adv-x="954" 
d="M952 92l-223 -117q-79 0 -125 43q-34 30 -53 76q-11 -7 -33.5 -22t-36.5 -24t-34 -22t-34 -20.5t-29 -15.5t-26.5 -11.5t-19.5 -3.5q-124 0 -200.5 80.5t-76.5 182.5q0 77 37 121.5t119 74.5q27 10 92.5 33.5t101 36.5t76 32t56.5 33v62q0 95 -33.5 147.5t-91.5 52.5
q-42 0 -68 -36q-33 -38 -59 -142q-18 -69 -86 -69q-42 0 -84.5 32t-42.5 70q0 26 17 48t55 50q67 46 162.5 89t176.5 57q121 0 201 -60q62 -48 84.5 -111.5t22.5 -158.5v-338q0 -121 65 -121q21 0 70 17zM543 162v327q-5 -3 -113 -63q-50 -26 -73 -57.5t-23 -81.5
q0 -78 39.5 -118t83.5 -40q40 0 86 33zM444 1001l-63 27q16 50 55.5 185.5t44.5 152.5q15 10 106.5 19.5t117.5 3.5l12 -21z" />
    <glyph glyph-name="acircumflex" unicode="&#xe2;" horiz-adv-x="954" 
d="M952 92l-223 -117q-79 0 -125 43q-34 30 -53 76q-11 -7 -33.5 -22t-36.5 -24t-34 -22t-34 -20.5t-29 -15.5t-26.5 -11.5t-19.5 -3.5q-124 0 -200.5 80.5t-76.5 182.5q0 77 37 121.5t119 74.5q27 10 92.5 33.5t101 36.5t76 32t56.5 33v62q0 95 -33.5 147.5t-91.5 52.5
q-42 0 -68 -36q-33 -38 -59 -142q-18 -69 -86 -69q-42 0 -84.5 32t-42.5 70q0 26 17 48t55 50q67 46 162.5 89t176.5 57q121 0 201 -60q62 -48 84.5 -111.5t22.5 -158.5v-338q0 -121 65 -121q21 0 70 17zM543 162v327q-5 -3 -113 -63q-50 -26 -73 -57.5t-23 -81.5
q0 -78 39.5 -118t83.5 -40q40 0 86 33zM719 1036l-55 -45q-35 28 -69.5 60t-74 71.5t-59.5 57.5q-20 -18 -59.5 -58t-74 -72t-69.5 -59l-53 45q91 136 217 355h76q107 -189 221 -355z" />
    <glyph glyph-name="atilde" unicode="&#xe3;" horiz-adv-x="954" 
d="M952 92l-223 -117q-79 0 -125 43q-34 30 -53 76q-11 -7 -33.5 -22t-36.5 -24t-34 -22t-34 -20.5t-29 -15.5t-26.5 -11.5t-19.5 -3.5q-124 0 -200.5 80.5t-76.5 182.5q0 77 37 121.5t119 74.5q27 10 92.5 33.5t101 36.5t76 32t56.5 33v62q0 95 -33.5 147.5t-91.5 52.5
q-42 0 -68 -36q-33 -38 -59 -142q-18 -69 -86 -69q-42 0 -84.5 32t-42.5 70q0 26 17 48t55 50q67 46 162.5 89t176.5 57q121 0 201 -60q62 -48 84.5 -111.5t22.5 -158.5v-338q0 -121 65 -121q21 0 70 17zM543 162v327q-5 -3 -113 -63q-50 -26 -73 -57.5t-23 -81.5
q0 -78 39.5 -118t83.5 -40q40 0 86 33zM225 1049l-59 38q35 107 83.5 161.5t106.5 54.5q42 0 127 -43q80 -41 119 -41q55 0 103 94l57 -29q-36 -122 -83.5 -169.5t-94.5 -47.5q-53 0 -138 45q-69 41 -114 41q-62 0 -107 -104z" />
    <glyph glyph-name="adieresis" unicode="&#xe4;" horiz-adv-x="954" 
d="M952 92l-223 -117q-79 0 -125 43q-34 30 -53 76q-11 -7 -33.5 -22t-36.5 -24t-34 -22t-34 -20.5t-29 -15.5t-26.5 -11.5t-19.5 -3.5q-124 0 -200.5 80.5t-76.5 182.5q0 77 37 121.5t119 74.5q27 10 92.5 33.5t101 36.5t76 32t56.5 33v62q0 95 -33.5 147.5t-91.5 52.5
q-42 0 -68 -36q-33 -38 -59 -142q-18 -69 -86 -69q-42 0 -84.5 32t-42.5 70q0 26 17 48t55 50q67 46 162.5 89t176.5 57q121 0 201 -60q62 -48 84.5 -111.5t22.5 -158.5v-338q0 -121 65 -121q21 0 70 17zM543 162v327q-5 -3 -113 -63q-50 -26 -73 -57.5t-23 -81.5
q0 -78 39.5 -118t83.5 -40q40 0 86 33zM248 1063q-55 0 -96 40t-41 95q0 58 41.5 97.5t97.5 39.5q59 0 99 -39.5t40 -97.5q0 -56 -40.5 -95.5t-100.5 -39.5zM670 1063q-56 0 -97 40t-41 95q0 58 41 97.5t99 39.5q57 0 97 -39.5t40 -97.5q0 -56 -40.5 -95.5t-98.5 -39.5z" />
    <glyph glyph-name="aring" unicode="&#xe5;" horiz-adv-x="954" 
d="M952 92l-223 -117q-79 0 -125 43q-34 30 -53 76q-11 -7 -33.5 -22t-36.5 -24t-34 -22t-34 -20.5t-29 -15.5t-26.5 -11.5t-19.5 -3.5q-124 0 -200.5 80.5t-76.5 182.5q0 77 37 121.5t119 74.5q27 10 92.5 33.5t101 36.5t76 32t56.5 33v62q0 95 -33.5 147.5t-91.5 52.5
q-42 0 -68 -36q-33 -38 -59 -142q-18 -69 -86 -69q-42 0 -84.5 32t-42.5 70q0 26 17 48t55 50q67 46 162.5 89t176.5 57q121 0 201 -60q62 -48 84.5 -111.5t22.5 -158.5v-338q0 -121 65 -121q21 0 70 17zM543 162v327q-5 -3 -113 -63q-50 -26 -73 -57.5t-23 -81.5
q0 -78 39.5 -118t83.5 -40q40 0 86 33zM463 1022q-79 0 -138 52t-59 136q0 83 59.5 134t139.5 51q76 0 135 -51.5t59 -133.5q0 -84 -59 -136t-137 -52zM467 1102q40 0 64 29.5t24 78.5q0 45 -24.5 74t-65.5 29q-40 0 -67 -29t-27 -74q0 -49 27 -78.5t69 -29.5z" />
    <glyph glyph-name="ae" unicode="&#xe6;" horiz-adv-x="1374" 
d="M1290 244l39 -51q-43 -63 -97 -108.5t-104 -68t-89 -32t-70 -9.5q-112 0 -197.5 45.5t-136.5 126.5l-62 -51q-61 -50 -127 -85.5t-110 -35.5q-121 0 -197 79t-76 177q0 78 37 126t117 79q20 7 88 31.5t104 38t80.5 33.5t65.5 34v52q0 91 -41 147.5t-92 56.5
q-43 0 -70 -34q-27 -32 -55 -138q-18 -67 -86 -67q-41 0 -84 30t-43 66q0 49 74 100q163 108 336 144q94 0 165 -51q23 -15 44 -37t28 -41q58 59 133 94t140 35q142 0 239.5 -101t97.5 -231q0 -38 -11 -54.5t-44 -23.5q-26 -5 -189 -15t-313 -16q0 -161 79.5 -246t203.5 -85
q108 0 223 86zM958 844q-61 0 -107 -70t-56 -192q233 5 247 6q27 2 38.5 12t11.5 39q0 80 -37.5 142.5t-96.5 62.5zM461 137q35 0 73.5 19t65.5 53q-47 111 -47 287q-20 -11 -62.5 -33t-62.5 -33q-48 -28 -71 -60.5t-23 -82.5q0 -71 39.5 -110.5t87.5 -39.5z" />
    <glyph glyph-name="ccedilla" unicode="&#xe7;" horiz-adv-x="864" 
d="M821 250l37 -51q-127 -176 -303 -213l-29 -37q-15 -21 -9 -36t38 -48q72 -87 72 -146q0 -64 -65 -119.5t-187 -93.5l-29 60q58 30 91.5 62t33.5 61q0 27 -41 73q-39 43 -44.5 70t22.5 64l65 79q-188 13 -300 135t-112 302q0 112 55.5 215t153.5 176q171 127 344 127
q46 0 100.5 -14.5t84.5 -36.5q34 -25 30 -64q0 -46 -31 -84.5t-57 -38.5q-15 0 -45 23q-112 104 -209 104q-68 0 -118 -73.5t-50 -225.5q0 -78 20.5 -141.5t52 -103t70.5 -66.5t74 -38t64 -11q61 0 110 20t111 70z" />
    <glyph glyph-name="egrave" unicode="&#xe8;" horiz-adv-x="894" 
d="M817 252l37 -49q-84 -124 -185.5 -176t-183.5 -52q-196 0 -310 127t-114 312q0 112 41.5 207.5t110.5 162.5q146 146 315 146q138 0 236 -100.5t96 -229.5q0 -33 -13 -51.5t-46 -22.5q-184 -20 -488 -32q7 -158 85 -244t192 -86q123 0 227 88zM485 848
q-61 0 -106.5 -69.5t-54.5 -188.5q42 1 121.5 3t121.5 3q25 2 33.5 9t9.5 32q0 84 -34 147.5t-91 63.5zM561 1028l-63 -27q-45 55 -140.5 168.5t-126.5 151.5l9 29q23 15 100.5 29.5t108.5 9.5q51 -158 112 -361z" />
    <glyph glyph-name="eacute" unicode="&#xe9;" horiz-adv-x="894" 
d="M817 252l37 -49q-84 -124 -185.5 -176t-183.5 -52q-196 0 -310 127t-114 312q0 112 41.5 207.5t110.5 162.5q146 146 315 146q138 0 236 -100.5t96 -229.5q0 -33 -13 -51.5t-46 -22.5q-184 -20 -488 -32q7 -158 85 -244t192 -86q123 0 227 88zM485 848
q-61 0 -106.5 -69.5t-54.5 -188.5q42 1 121.5 3t121.5 3q25 2 33.5 9t9.5 32q0 84 -34 147.5t-91 63.5zM477 1001l-63 27q16 50 55.5 185.5t44.5 152.5q15 10 106 19.5t117 3.5l13 -21z" />
    <glyph glyph-name="ecircumflex" unicode="&#xea;" horiz-adv-x="894" 
d="M817 252l37 -49q-84 -124 -185.5 -176t-183.5 -52q-196 0 -310 127t-114 312q0 112 41.5 207.5t110.5 162.5q146 146 315 146q138 0 236 -100.5t96 -229.5q0 -33 -13 -51.5t-46 -22.5q-184 -20 -488 -32q7 -158 85 -244t192 -86q123 0 227 88zM485 848
q-61 0 -106.5 -69.5t-54.5 -188.5q42 1 121.5 3t121.5 3q25 2 33.5 9t9.5 32q0 84 -34 147.5t-91 63.5zM735 1036l-57 -45q-34 28 -68.5 60.5t-73 70.5t-59.5 58q-20 -18 -59.5 -58t-74 -72t-69.5 -59l-55 45q92 134 219 355h76q107 -189 221 -355z" />
    <glyph glyph-name="edieresis" unicode="&#xeb;" horiz-adv-x="894" 
d="M817 252l37 -49q-84 -124 -185.5 -176t-183.5 -52q-196 0 -310 127t-114 312q0 112 41.5 207.5t110.5 162.5q146 146 315 146q138 0 236 -100.5t96 -229.5q0 -33 -13 -51.5t-46 -22.5q-184 -20 -488 -32q7 -158 85 -244t192 -86q123 0 227 88zM485 848
q-61 0 -106.5 -69.5t-54.5 -188.5q42 1 121.5 3t121.5 3q25 2 33.5 9t9.5 32q0 84 -34 147.5t-91 63.5zM260 1063q-55 0 -96 40t-41 95q0 58 41.5 97.5t97.5 39.5q59 0 99 -39.5t40 -97.5q0 -56 -40.5 -95.5t-100.5 -39.5zM682 1063q-56 0 -96.5 40t-40.5 95q0 58 40.5 97.5
t98.5 39.5q57 0 97 -39.5t40 -97.5q0 -56 -40.5 -95.5t-98.5 -39.5z" />
    <glyph glyph-name="igrave" unicode="&#xec;" horiz-adv-x="604" 
d="M582 0h-521v68q87 9 108 39.5t21 142.5v389q0 36 -0.5 53t-4.5 37t-10.5 28t-20 17t-31.5 13t-47 8v61q192 22 375 74v-680q0 -44 0.5 -66.5t6 -45t12 -31.5t23.5 -18.5t35.5 -13t53.5 -7.5v-68zM379 1028l-66 -27q-56 69 -149 181t-115 139l8 29q23 15 100.5 29.5
t108.5 9.5q66 -205 113 -361z" />
    <glyph glyph-name="iacute" unicode="&#xed;" horiz-adv-x="604" 
d="M582 0h-521v68q87 9 108 39.5t21 142.5v389q0 36 -0.5 53t-4.5 37t-10.5 28t-20 17t-31.5 13t-47 8v61q192 22 375 74v-680q0 -44 0.5 -66.5t6 -45t12 -31.5t23.5 -18.5t35.5 -13t53.5 -7.5v-68zM301 1001l-63 27q16 50 55.5 185.5t44.5 152.5q15 10 106 19.5t117 3.5
l12 -21z" />
    <glyph glyph-name="icircumflex" unicode="&#xee;" horiz-adv-x="604" 
d="M582 0h-521v68q87 9 108 39.5t21 142.5v389q0 36 -0.5 53t-4.5 37t-10.5 28t-20 17t-31.5 13t-47 8v61q192 22 375 74v-680q0 -44 0.5 -66.5t6 -45t12 -31.5t23.5 -18.5t35.5 -13t53.5 -7.5v-68zM559 1036l-57 -45q-45 36 -113.5 103t-89.5 86q-14 -14 -56.5 -57t-76 -74
t-68.5 -58l-55 45q111 166 217 355h78q107 -189 221 -355z" />
    <glyph glyph-name="idieresis" unicode="&#xef;" horiz-adv-x="604" 
d="M582 0h-521v68q87 9 108 39.5t21 142.5v389q0 36 -0.5 53t-4.5 37t-10.5 28t-20 17t-31.5 13t-47 8v61q192 22 375 74v-680q0 -44 0.5 -66.5t6 -45t12 -31.5t23.5 -18.5t35.5 -13t53.5 -7.5v-68zM84 1063q-55 0 -96 40t-41 95q0 58 41.5 97.5t97.5 39.5q59 0 99 -39.5
t40 -97.5q0 -56 -40.5 -95.5t-100.5 -39.5zM506 1063q-56 0 -96.5 40t-40.5 95q0 58 40.5 97.5t98.5 39.5q57 0 97 -39.5t40 -97.5q0 -56 -40.5 -95.5t-98.5 -39.5z" />
    <glyph glyph-name="eth" unicode="&#xf0;" horiz-adv-x="1069" 
d="M952 1343l-252 -129q142 -131 218.5 -301.5t76.5 -361.5q0 -149 -38.5 -263t-105.5 -180.5t-150 -99.5t-179 -33q-111 0 -201 39.5t-146 105t-86 148t-28 172.5q1 114 43.5 208.5t111.5 155t156.5 93.5t182.5 33q53 0 98 -19q-25 100 -112 217l-297 -149l-39 76l280 137
q-74 73 -166.5 118t-175.5 58q-11 13 -4.5 39t23.5 33q249 -14 465 -164l286 145zM543 850q-83 0 -137 -92t-54 -258q-2 -202 51.5 -322.5t145.5 -120.5q26 0 48 9t44.5 36t38 71t26 120t11.5 178q3 238 -47 307q-54 72 -127 72z" />
    <glyph glyph-name="ntilde" unicode="&#xf1;" horiz-adv-x="1159" 
d="M1124 0h-477v66q25 4 37.5 7t25.5 10t17.5 16t9 28t5.5 42t1 62v349q0 102 -39.5 147t-101.5 45q-70 0 -151 -63v-496q0 -66 7.5 -93t24.5 -36.5t64 -17.5v-66h-494v66q39 5 55 8t36 10.5t25.5 15t12.5 26t7.5 39t0.5 58.5v424q0 40 -2.5 61.5t-7 38.5t-19 25.5t-31 13.5
t-50.5 11v59q173 21 371 78v-152q14 10 39 28.5t46.5 33.5t41.5 28q50 32 83.5 45t75.5 13q125 0 197 -87.5t72 -240.5v-387q0 -35 1 -55t6.5 -37t11 -25t22 -15t31 -9.5t46.5 -7.5v-66zM342 1049l-59 38q35 107 83.5 161.5t106.5 54.5q45 0 127 -43q80 -41 119 -41
q58 0 102 94l58 -29q-34 -122 -82 -169.5t-97 -47.5q-52 0 -137 45q-69 41 -114 41q-62 0 -107 -104z" />
    <glyph glyph-name="ograve" unicode="&#xf2;" horiz-adv-x="1075" 
d="M549 930q139 0 247 -64t164 -168.5t56 -228.5q0 -119 -40 -215.5t-107.5 -156t-151.5 -91t-176 -31.5q-94 0 -173.5 26t-135 70.5t-95 103.5t-58 124t-18.5 133q0 96 29 178.5t77.5 140t111.5 99t132 61t138 19.5zM522 850q-70 0 -119 -88.5t-49 -255.5q0 -126 25 -228
t73 -162.5t111 -60.5q33 0 58.5 13.5t50 49t38 109t13.5 181.5q0 214 -52 328t-149 114zM610 1028l-63 -27q-56 69 -149 181t-115 139l8 29q21 15 99.5 29.5t109.5 9.5q62 -193 110 -361z" />
    <glyph glyph-name="oacute" unicode="&#xf3;" horiz-adv-x="1075" 
d="M549 930q139 0 247 -64t164 -168.5t56 -228.5q0 -119 -40 -215.5t-107.5 -156t-151.5 -91t-176 -31.5q-94 0 -173.5 26t-135 70.5t-95 103.5t-58 124t-18.5 133q0 96 29 178.5t77.5 140t111.5 99t132 61t138 19.5zM522 850q-70 0 -119 -88.5t-49 -255.5q0 -126 25 -228
t73 -162.5t111 -60.5q33 0 58.5 13.5t50 49t38 109t13.5 181.5q0 214 -52 328t-149 114zM532 1001l-63 27q16 50 55.5 185.5t44.5 152.5q15 10 106.5 19.5t117.5 3.5l12 -21z" />
    <glyph glyph-name="ocircumflex" unicode="&#xf4;" horiz-adv-x="1075" 
d="M549 930q139 0 247 -64t164 -168.5t56 -228.5q0 -119 -40 -215.5t-107.5 -156t-151.5 -91t-176 -31.5q-94 0 -173.5 26t-135 70.5t-95 103.5t-58 124t-18.5 133q0 96 29 178.5t77.5 140t111.5 99t132 61t138 19.5zM522 850q-70 0 -119 -88.5t-49 -255.5q0 -126 25 -228
t73 -162.5t111 -60.5q33 0 58.5 13.5t50 49t38 109t13.5 181.5q0 214 -52 328t-149 114zM795 1036l-58 -45q-45 37 -119 110t-81 79q-20 -18 -59.5 -58t-74 -72t-69.5 -59l-55 45q111 166 217 355h77q102 -181 222 -355z" />
    <glyph glyph-name="otilde" unicode="&#xf5;" horiz-adv-x="1075" 
d="M549 930q139 0 247 -64t164 -168.5t56 -228.5q0 -119 -40 -215.5t-107.5 -156t-151.5 -91t-176 -31.5q-94 0 -173.5 26t-135 70.5t-95 103.5t-58 124t-18.5 133q0 96 29 178.5t77.5 140t111.5 99t132 61t138 19.5zM522 850q-70 0 -119 -88.5t-49 -255.5q0 -126 25 -228
t73 -162.5t111 -60.5q33 0 58.5 13.5t50 49t38 109t13.5 181.5q0 214 -52 328t-149 114zM295 1049l-59 38q35 107 83.5 161.5t106.5 54.5q45 0 127 -43q80 -41 119 -41q58 0 102 94l57 -29q-18 -65 -41.5 -110t-48 -67t-45.5 -31t-43 -9q-52 0 -137 45q-69 41 -115 41
q-61 0 -106 -104z" />
    <glyph glyph-name="odieresis" unicode="&#xf6;" horiz-adv-x="1075" 
d="M549 930q139 0 247 -64t164 -168.5t56 -228.5q0 -119 -40 -215.5t-107.5 -156t-151.5 -91t-176 -31.5q-94 0 -173.5 26t-135 70.5t-95 103.5t-58 124t-18.5 133q0 96 29 178.5t77.5 140t111.5 99t132 61t138 19.5zM522 850q-70 0 -119 -88.5t-49 -255.5q0 -126 25 -228
t73 -162.5t111 -60.5q33 0 58.5 13.5t50 49t38 109t13.5 181.5q0 214 -52 328t-149 114zM326 1063q-55 0 -96.5 40t-41.5 95q0 58 42 97.5t98 39.5q59 0 99 -39.5t40 -97.5q0 -56 -40.5 -95.5t-100.5 -39.5zM748 1063q-56 0 -97 40t-41 95q0 58 41 97.5t99 39.5
q57 0 97 -39.5t40 -97.5q0 -56 -40.5 -95.5t-98.5 -39.5z" />
    <glyph glyph-name="divide" unicode="&#xf7;" horiz-adv-x="1181" 
d="M594 715q-46 0 -83.5 36.5t-37.5 86.5q0 49 38 87t83 38q52 0 88.5 -37.5t36.5 -87.5q0 -51 -36.5 -87t-88.5 -36zM1087 453h-991v133h991v-133zM592 326q48 0 85.5 -36.5t37.5 -86.5q0 -49 -37.5 -87t-85.5 -38q-52 0 -87.5 37.5t-35.5 87.5q0 51 35.5 87t87.5 36z" />
    <glyph glyph-name="oslash" unicode="&#xf8;" horiz-adv-x="1087" 
d="M907 936l-67 -100q92 -64 139 -159t47 -204q0 -120 -40.5 -217t-109 -157t-154.5 -92t-181 -32q-128 0 -240 56l-74 -105l-59 47l72 103q-88 64 -133.5 159t-45.5 197q0 117 44.5 214t116.5 157.5t158.5 93.5t174.5 33q123 0 223 -53l72 102zM369 260l311 479
q-56 107 -154 107q-32 0 -64 -19.5t-62 -59t-49 -113.5t-19 -171q0 -122 37 -223zM721 662l-315 -484q59 -121 155 -121q29 0 54 8.5t51.5 33t45.5 64.5t31.5 108.5t12.5 158.5q0 136 -35 232z" />
    <glyph glyph-name="ugrave" unicode="&#xf9;" horiz-adv-x="1136" 
d="M1110 115v-66q-141 -19 -375 -74l-16 15v123q-77 -61 -103 -76q-94 -62 -178 -62q-128 0 -198 77.5t-70 213.5v424q0 73 -17 93t-96 40v60q174 8 379 37q-6 -129 -6 -310v-297q0 -93 40.5 -136.5t100.5 -43.5q88 0 148 57v498q0 30 -0.5 45t-6 31t-12 22.5t-23.5 14
t-35.5 12t-53.5 10.5v60q207 10 391 37v-666q0 -82 15 -105.5t71 -29.5zM643 1028l-65 -27q-56 69 -149.5 181t-115.5 139l9 29q23 15 100 29.5t108 9.5q66 -205 113 -361z" />
    <glyph glyph-name="uacute" unicode="&#xfa;" horiz-adv-x="1136" 
d="M1110 115v-66q-141 -19 -375 -74l-16 15v123q-77 -61 -103 -76q-94 -62 -178 -62q-128 0 -198 77.5t-70 213.5v424q0 73 -17 93t-96 40v60q174 8 379 37q-6 -129 -6 -310v-297q0 -93 40.5 -136.5t100.5 -43.5q88 0 148 57v498q0 30 -0.5 45t-6 31t-12 22.5t-23.5 14
t-35.5 12t-53.5 10.5v60q207 10 391 37v-666q0 -82 15 -105.5t71 -29.5zM553 1001l-64 27q16 50 56 185.5t45 152.5q15 10 106 19.5t117 3.5l12 -21z" />
    <glyph glyph-name="ucircumflex" unicode="&#xfb;" horiz-adv-x="1136" 
d="M1110 115v-66q-141 -19 -375 -74l-16 15v123q-77 -61 -103 -76q-94 -62 -178 -62q-128 0 -198 77.5t-70 213.5v424q0 73 -17 93t-96 40v60q174 8 379 37q-6 -129 -6 -310v-297q0 -93 40.5 -136.5t100.5 -43.5q88 0 148 57v498q0 30 -0.5 45t-6 31t-12 22.5t-23.5 14
t-35.5 12t-53.5 10.5v60q207 10 391 37v-666q0 -82 15 -105.5t71 -29.5zM817 1036l-55 -45q-35 28 -69.5 60t-74 71.5t-59.5 57.5q-20 -18 -59.5 -58t-74 -72t-69.5 -59l-53 45q91 136 217 355h76q107 -189 221 -355z" />
    <glyph glyph-name="udieresis" unicode="&#xfc;" horiz-adv-x="1136" 
d="M1110 115v-66q-141 -19 -375 -74l-16 15v123q-77 -61 -103 -76q-94 -62 -178 -62q-128 0 -198 77.5t-70 213.5v424q0 73 -17 93t-96 40v60q174 8 379 37q-6 -129 -6 -310v-297q0 -93 40.5 -136.5t100.5 -43.5q88 0 148 57v498q0 30 -0.5 45t-6 31t-12 22.5t-23.5 14
t-35.5 12t-53.5 10.5v60q207 10 391 37v-666q0 -82 15 -105.5t71 -29.5zM338 1063q-55 0 -96 40t-41 95q0 58 41.5 97.5t97.5 39.5q59 0 99 -39.5t40 -97.5q0 -56 -40.5 -95.5t-100.5 -39.5zM760 1063q-56 0 -96.5 40t-40.5 95q0 58 40.5 97.5t98.5 39.5q57 0 97 -39.5
t40 -97.5q0 -56 -40.5 -95.5t-98.5 -39.5z" />
    <glyph glyph-name="yacute" unicode="&#xfd;" horiz-adv-x="952" 
d="M989 905v-65q-73 -12 -102 -38t-68 -110q-18 -38 -43.5 -97t-48.5 -115t-66.5 -161.5t-78.5 -189.5q-139 -337 -215 -573q-17 -56 -76 -56q-46 0 -95 38.5t-49 90.5q0 24 12.5 42t43.5 38q62 33 100.5 66t67.5 80q30 59 39 84q12 39 -9 96q-167 468 -258 678
q-29 68 -58 92.5t-99 34.5v65h508v-65q-68 -12 -83 -28.5t1 -66.5l153 -454q71 174 154 436q17 51 -3.5 75.5t-94.5 37.5v65h368zM512 1001l-63 27q16 50 55.5 185.5t44.5 152.5q15 10 106 19.5t117 3.5l12 -21z" />
    <glyph glyph-name="thorn" unicode="&#xfe;" horiz-adv-x="1101" 
d="M410 1440v-621q31 17 178 94q39 17 84 17q89 0 161.5 -35.5t117 -93.5t68 -128t23.5 -143q0 -109 -41 -204.5t-111 -164.5t-159 -116.5t-190 -69.5q-62 0 -131 25v-229q0 -39 1.5 -62.5t8.5 -44.5t18 -31.5t32 -19.5t48 -12.5t70 -6.5v-65h-574v65q64 5 88.5 16.5
t34.5 43t10 108.5v1391q0 39 -2 60t-8.5 40t-21.5 28t-38 15.5t-61 10.5v59q204 20 394 74zM410 743v-591q84 -76 151 -76q85 0 150 93t65 263q0 89 -22 158.5t-58 109t-76.5 59t-82.5 19.5q-11 0 -21.5 -1t-21 -3t-17 -3.5t-18 -6t-15.5 -6.5t-17 -7.5t-17 -7.5z" />
    <glyph glyph-name="ydieresis" unicode="&#xff;" horiz-adv-x="952" 
d="M989 905v-65q-73 -12 -102 -38t-68 -110q-18 -38 -43.5 -97t-48.5 -115t-66.5 -161.5t-78.5 -189.5q-139 -337 -215 -573q-17 -56 -76 -56q-46 0 -95 38.5t-49 90.5q0 24 12.5 42t43.5 38q62 33 100.5 66t67.5 80q30 59 39 84q12 39 -9 96q-167 468 -258 678
q-29 68 -58 92.5t-99 34.5v65h508v-65q-68 -12 -83 -28.5t1 -66.5l153 -454q71 174 154 436q17 51 -3.5 75.5t-94.5 37.5v65h368zM287 1063q-54 0 -94.5 40t-40.5 95q0 58 40.5 97.5t96.5 39.5q59 0 99 -39.5t40 -97.5q0 -56 -40.5 -95.5t-100.5 -39.5zM709 1063
q-56 0 -97 40t-41 95q0 58 41 97.5t99 39.5q59 0 98 -39.5t39 -97.5q0 -56 -40 -95.5t-99 -39.5z" />
    <glyph glyph-name="Amacron" unicode="&#x100;" horiz-adv-x="1445" 
d="M1407 0h-586v72q89 13 107.5 39.5t-8.5 93.5q-26 79 -82 231h-394q-38 -104 -73 -219q-27 -73 -5 -102.5t130 -42.5v-72h-459l2 72q71 8 106 25.5t60 56t61 129.5l420 1052l105 27q373 -1020 391 -1067q23 -58 38.5 -91.5t33 -59.5t39.5 -39t47.5 -20.5t66.5 -12.5v-72z
M799 545l-152 442h-6q-12 -30 -162 -442h320zM993 1456h-501v139h501v-139z" />
    <glyph glyph-name="amacron" unicode="&#x101;" horiz-adv-x="954" 
d="M952 92l-223 -117q-79 0 -125 43q-34 30 -53 76q-11 -7 -33.5 -22t-36.5 -24t-34 -22t-34 -20.5t-29 -15.5t-26.5 -11.5t-19.5 -3.5q-124 0 -200.5 80.5t-76.5 182.5q0 77 37 121.5t119 74.5q27 10 92.5 33.5t101 36.5t76 32t56.5 33v62q0 95 -33.5 147.5t-91.5 52.5
q-42 0 -68 -36q-33 -38 -59 -142q-18 -69 -86 -69q-42 0 -84.5 32t-42.5 70q0 26 17 48t55 50q67 46 162.5 89t176.5 57q121 0 201 -60q62 -48 84.5 -111.5t22.5 -158.5v-338q0 -121 65 -121q21 0 70 17zM543 162v327q-5 -3 -113 -63q-50 -26 -73 -57.5t-23 -81.5
q0 -78 39.5 -118t83.5 -40q40 0 86 33zM702 1108h-509v149h509v-149z" />
    <glyph glyph-name="Abreve" unicode="&#x102;" horiz-adv-x="1445" 
d="M1407 0h-586v72q89 13 107.5 39.5t-8.5 93.5q-26 79 -82 231h-394q-38 -104 -73 -219q-27 -73 -5 -102.5t130 -42.5v-72h-459l2 72q71 8 106 25.5t60 56t61 129.5l420 1052l105 27q373 -1020 391 -1067q23 -58 38.5 -91.5t33 -59.5t39.5 -39t47.5 -20.5t66.5 -12.5v-72z
M799 545l-152 442h-6q-12 -30 -162 -442h320zM942 1696h62q-3 -281 -261 -281q-124 0 -192.5 65.5t-69.5 215.5h62q13 -65 66 -99t134 -34q170 0 199 133z" />
    <glyph glyph-name="abreve" unicode="&#x103;" horiz-adv-x="954" 
d="M952 92l-223 -117q-79 0 -125 43q-34 30 -53 76q-11 -7 -33.5 -22t-36.5 -24t-34 -22t-34 -20.5t-29 -15.5t-26.5 -11.5t-19.5 -3.5q-124 0 -200.5 80.5t-76.5 182.5q0 77 37 121.5t119 74.5q27 10 92.5 33.5t101 36.5t76 32t56.5 33v62q0 95 -33.5 147.5t-91.5 52.5
q-42 0 -68 -36q-33 -38 -59 -142q-18 -69 -86 -69q-42 0 -84.5 32t-42.5 70q0 26 17 48t55 50q67 46 162.5 89t176.5 57q121 0 201 -60q62 -48 84.5 -111.5t22.5 -158.5v-338q0 -121 65 -121q21 0 70 17zM543 162v327q-5 -3 -113 -63q-50 -26 -73 -57.5t-23 -81.5
q0 -78 39.5 -118t83.5 -40q40 0 86 33zM637 1352h65q0 -316 -251 -316q-248 0 -248 316h65q17 -76 65.5 -118t119.5 -42q72 0 119 42t65 118z" />
    <glyph glyph-name="Aogonek" unicode="&#x104;" horiz-adv-x="1445" 
d="M1407 0h-420q-46 -38 -80.5 -105.5t-34.5 -127.5q0 -53 33 -81t86 -28q35 0 78 16l18 -63l-131 -66q-36 -22 -73 -22q-88 0 -135.5 50t-47.5 126q0 63 40 133.5t73 106t102 101.5l13 13q29 25 16 68q-5 14 -48.5 141t-61.5 174h-390q-53 -144 -73 -211q-29 -81 -9 -111
t132 -44v-70h-457l2 70q49 6 78.5 15.5t56.5 34.5t48 64t48 107q348 870 416 1044q21 5 57 14.5t48 12.5q249 -690 387 -1059q27 -61 42.5 -92t35.5 -63t39.5 -45.5t46.5 -24t65 -15.5v-63zM799 543l-152 444h-4q-13 -35 -73.5 -196.5t-90.5 -247.5h320z" />
    <glyph glyph-name="aogonek" unicode="&#x105;" horiz-adv-x="956" 
d="M934 156l20 -62q-8 -4 -50 -24.5t-56 -28.5q-91 -44 -159 -125t-68 -162q0 -48 29 -70t75 -22q39 0 86 23l16 -62l-125 -72q-42 -26 -75 -26q-84 0 -131 44.5t-47 115.5q0 56 32.5 114t72 98t99.5 89q-28 12 -58 42t-42 66q-8 -5 -34 -22t-37 -24.5t-33.5 -21.5
t-35 -20.5t-28.5 -15t-27.5 -12t-19.5 -3.5q-124 0 -200.5 80.5t-76.5 182.5q0 77 36.5 120.5t119.5 75.5q12 4 72.5 25.5t84 30t66.5 25.5t67 29.5t38 24.5v60q0 95 -34 148.5t-91 53.5q-44 0 -70 -36q-26 -32 -57 -142q-16 -69 -84 -69q-43 0 -86 32t-43 70q0 26 17 48
t55 50q66 45 163.5 88.5t178.5 57.5q115 0 198 -60q62 -48 84.5 -111.5t22.5 -158.5v-340q0 -121 65 -121q31 0 70 17zM545 164v325q-17 -9 -54.5 -31t-60.5 -34q-49 -25 -72.5 -56t-23.5 -81q0 -78 39.5 -117t83.5 -39q42 0 88 33z" />
    <glyph glyph-name="Cacute" unicode="&#x106;" horiz-adv-x="1384" 
d="M1280 381l72 -33q-21 -78 -55.5 -175.5t-59.5 -149.5q-238 -54 -381 -54q-158 0 -289 39.5t-219 105.5t-148.5 154.5t-88 184t-27.5 196.5q0 208 100.5 370t286 252.5t426.5 90.5q47 0 95.5 -4t93.5 -12t75 -14t67 -15t42 -10q33 -208 47 -336l-76 -15q-88 316 -383 316
q-108 0 -197 -48.5t-145.5 -130t-87.5 -185.5t-31 -218q0 -280 135.5 -452t346.5 -172q126 0 224 78.5t177 236.5zM1106 1577l-8 -25l-420 -122l-31 57q41 29 113 80t131 93t110 77q28 -11 64.5 -66t40.5 -94z" />
    <glyph glyph-name="cacute" unicode="&#x107;" horiz-adv-x="864" 
d="M817 246l39 -49q-72 -101 -166 -161.5t-186 -60.5q-135 0 -238.5 63.5t-155 161.5t-51.5 212q0 113 54.5 216t152.5 175q91 67 184 97t164 30q115 0 177 -51q36 -25 36 -74q0 -42 -30 -77.5t-58 -35.5q-19 0 -45 23q-123 106 -207 106q-70 0 -121 -72.5t-51 -224.5
q0 -78 21 -142t53 -103.5t71.5 -67t74 -38.5t63.5 -11q65 0 114.5 18.5t104.5 65.5zM498 1001l-64 27q16 50 56 185.5t45 152.5q15 10 106 19.5t117 3.5l12 -21z" />
    <glyph glyph-name="Ccircumflex" unicode="&#x108;" horiz-adv-x="1384" 
d="M1280 381l72 -33q-21 -78 -55.5 -175.5t-59.5 -149.5q-238 -54 -381 -54q-158 0 -289 39.5t-219 105.5t-148.5 154.5t-88 184t-27.5 196.5q0 208 100.5 370t286 252.5t426.5 90.5q47 0 95.5 -4t93.5 -12t75 -14t67 -15t42 -10q33 -208 47 -336l-76 -15q-88 316 -383 316
q-108 0 -197 -48.5t-145.5 -130t-87.5 -185.5t-31 -218q0 -280 135.5 -452t346.5 -172q126 0 224 78.5t177 236.5zM1141 1479l-33 -54q-42 16 -87 37t-98.5 47.5t-82.5 40.5q-20 -10 -63.5 -31t-70.5 -34t-65.5 -30t-71.5 -30l-32 54q102 82 272 252h61q93 -98 271 -252z
" />
    <glyph glyph-name="ccircumflex" unicode="&#x109;" horiz-adv-x="864" 
d="M817 246l39 -49q-72 -101 -166 -161.5t-186 -60.5q-135 0 -238.5 63.5t-155 161.5t-51.5 212q0 113 54.5 216t152.5 175q91 67 184 97t164 30q115 0 177 -51q36 -25 36 -74q0 -42 -30 -77.5t-58 -35.5q-19 0 -45 23q-123 106 -207 106q-70 0 -121 -72.5t-51 -224.5
q0 -78 21 -142t53 -103.5t71.5 -67t74 -38.5t63.5 -11q65 0 114.5 18.5t104.5 65.5zM760 1036l-58 -45q-35 28 -69.5 60.5t-73.5 71t-59 57.5q-21 -20 -59.5 -58.5t-73 -71t-68.5 -59.5l-55 45q91 136 217 355h76q97 -173 223 -355z" />
    <glyph glyph-name="Cdotaccent" unicode="&#x10a;" horiz-adv-x="1384" 
d="M1280 381l72 -33q-21 -78 -55.5 -175.5t-59.5 -149.5q-238 -54 -381 -54q-158 0 -289 39.5t-219 105.5t-148.5 154.5t-88 184t-27.5 196.5q0 208 100.5 370t286 252.5t426.5 90.5q47 0 95.5 -4t93.5 -12t75 -14t67 -15t42 -10q33 -208 47 -336l-76 -15q-88 316 -383 316
q-108 0 -197 -48.5t-145.5 -130t-87.5 -185.5t-31 -218q0 -280 135.5 -452t346.5 -172q126 0 224 78.5t177 236.5zM848 1729q63 0 105 -41t42 -103q0 -59 -42.5 -101t-104.5 -42q-57 0 -100 42.5t-43 100.5q0 61 42.5 102.5t100.5 41.5z" />
    <glyph glyph-name="cdotaccent" unicode="&#x10b;" horiz-adv-x="864" 
d="M817 246l39 -49q-72 -101 -166 -161.5t-186 -60.5q-135 0 -238.5 63.5t-155 161.5t-51.5 212q0 113 54.5 216t152.5 175q91 67 184 97t164 30q115 0 177 -51q36 -25 36 -74q0 -42 -30 -77.5t-58 -35.5q-19 0 -45 23q-123 106 -207 106q-70 0 -121 -72.5t-51 -224.5
q0 -78 21 -142t53 -103.5t71.5 -67t74 -38.5t63.5 -11q65 0 114.5 18.5t104.5 65.5zM502 1059q-57 0 -100.5 42.5t-43.5 100.5q0 61 43.5 102.5t102.5 41.5q62 0 103.5 -41.5t41.5 -102.5q0 -59 -42.5 -101t-104.5 -42z" />
    <glyph glyph-name="Ccaron" unicode="&#x10c;" horiz-adv-x="1384" 
d="M1280 381l72 -33q-21 -78 -55.5 -175.5t-59.5 -149.5q-238 -54 -381 -54q-158 0 -289 39.5t-219 105.5t-148.5 154.5t-88 184t-27.5 196.5q0 208 100.5 370t286 252.5t426.5 90.5q47 0 95.5 -4t93.5 -12t75 -14t67 -15t42 -10q33 -208 47 -336l-76 -15q-88 316 -383 316
q-108 0 -197 -48.5t-145.5 -130t-87.5 -185.5t-31 -218q0 -280 135.5 -452t346.5 -172q126 0 224 78.5t177 236.5zM1102 1731l31 -54q-104 -81 -271 -252h-61q-131 141 -273 252l35 54q135 -56 268 -121q116 57 271 121z" />
    <glyph glyph-name="ccaron" unicode="&#x10d;" horiz-adv-x="864" 
d="M817 246l39 -49q-72 -101 -166 -161.5t-186 -60.5q-135 0 -238.5 63.5t-155 161.5t-51.5 212q0 113 54.5 216t152.5 175q91 67 184 97t164 30q115 0 177 -51q36 -25 36 -74q0 -42 -30 -77.5t-58 -35.5q-19 0 -45 23q-123 106 -207 106q-70 0 -121 -72.5t-51 -224.5
q0 -78 21 -142t53 -103.5t71.5 -67t74 -38.5t63.5 -11q65 0 114.5 18.5t104.5 65.5zM717 1411l57 -45q-86 -123 -217 -354h-78q-93 166 -221 354l55 45q36 -28 70 -59.5t74 -70.5t61 -58q13 12 56.5 55.5t76 74t66.5 58.5z" />
    <glyph glyph-name="Dcaron" unicode="&#x10e;" horiz-adv-x="1558" 
d="M84 1331h616q402 0 588 -178q180 -173 180 -434q0 -350 -256 -549q-225 -170 -620 -170h-526v72q45 4 70 7.5t48.5 12.5t33.5 20.5t18 35t10 51.5t2 75v783q0 47 -1.5 75.5t-9 52t-16.5 35t-30.5 20.5t-43.5 12.5t-63 7.5v71zM522 1106v-819q0 -114 35 -156.5t139 -42.5
q208 0 335.5 159.5t127.5 430.5q0 143 -40 257t-111 185q-130 127 -334 127q-101 0 -129 -28q-23 -23 -23 -113zM1006 1700l32 -53q-110 -83 -270 -252h-63q-131 141 -273 252l35 53q148 -62 270 -121q110 55 269 121z" />
    <glyph glyph-name="dcaron" unicode="&#x10f;" horiz-adv-x="1120" 
d="M1108 119v-66q-4 -1 -43 -6.5t-75 -11.5t-85.5 -15.5t-101.5 -21.5t-98 -25v119l-123 -80q-61 -37 -105 -37q-68 0 -139 28t-134.5 81t-104 142t-40.5 198q0 138 73.5 254t203 184t285.5 68q9 0 84 -10v247q0 45 -3.5 66.5t-19.5 37.5t-40 21t-75 11v63q257 31 400 74
v-1182q0 -61 7 -86t24.5 -34.5t64.5 -14.5zM705 164v573q-24 53 -63 80t-85 27q-18 0 -40.5 -7.5t-53 -32t-55 -62t-41.5 -106.5t-17 -157q1 -72 17 -132.5t41.5 -99.5t58 -66t64 -38.5t61.5 -11.5q62 0 113 33zM1161 1454q64 0 110 -54t46 -136q0 -94 -60.5 -155.5
t-158.5 -88.5l-23 53q111 58 111 141q0 72 -82 99q-11 4 -21 18t-10 35q0 39 27.5 63.5t60.5 24.5z" />
    <glyph glyph-name="Dcroat" unicode="&#x110;" horiz-adv-x="1556" 
d="M106 1331h615q385 0 573 -180q81 -78 128.5 -187.5t47.5 -242.5q0 -361 -253 -549q-229 -172 -609 -172h-518v70q44 4 70 8.5t48.5 15t33 22.5t17.5 37t9 53t2 75v364h-192v103h192v303q0 57 -3.5 89t-12 56.5t-29 36t-46.5 17.5t-73 10v71zM545 645v-364q0 -56 5.5 -88
t22.5 -57t50 -34.5t88 -9.5q197 0 324.5 161t127.5 425q0 300 -147 450q-115 115 -322 115q-105 0 -131 -29q-18 -18 -18 -100v-366h289v-103h-289z" />
    <glyph glyph-name="dcroat" unicode="&#x111;" horiz-adv-x="1122" 
d="M1110 119v-66q-4 -1 -43 -6.5t-75 -11.5t-85.5 -15.5t-101.5 -21.5t-98 -25v117l-125 -78q-61 -37 -103 -37q-54 0 -111 17t-112.5 53.5t-99 88t-70.5 127t-27 163.5q0 103 43.5 196.5t118.5 161.5t181 108t225 40q5 0 80 -10v157h-283v86h283v43q0 66 -18.5 81.5
t-101.5 29.5q-8 1 -12 2v61q247 30 394 74v-291h161v-86h-161v-811q0 -51 2 -75t14.5 -40t28.5 -20t53 -8zM707 166v573q-24 54 -63.5 79.5t-82.5 25.5q-17 0 -40 -7.5t-54 -32.5t-56.5 -62.5t-43 -106.5t-17.5 -156q1 -90 25.5 -161t63 -110t78.5 -59t77 -20q54 0 113 37z
" />
    <glyph glyph-name="Emacron" unicode="&#x112;" horiz-adv-x="1189" 
d="M1098 354l71 -14q-18 -138 -71 -340h-1045v72q49 4 75.5 7.5t52 12.5t36 20t19 34.5t10.5 51t2 74.5v787q0 47 -1.5 76t-9.5 52.5t-17 34.5t-31 19.5t-44 12t-63 6.5v71h965l4 -64t8 -119t8 -124l-74 -10q-35 127 -84 176q-26 28 -72 39.5t-132 11.5h-99q-58 0 -71 -11
t-13 -61v-434h137q57 0 87.5 2.5t57.5 10t40.5 26t23.5 44t19 71.5h74v-414h-74q-8 39 -14.5 62.5t-19.5 43t-25.5 28t-39 14.5t-53.5 7t-76 1h-137v-355q0 -77 10 -115t39 -52q49 -21 185 -21q164 0 227 66q57 65 115 200zM883 1458h-504v137h504v-137z" />
    <glyph glyph-name="emacron" unicode="&#x113;" horiz-adv-x="894" 
d="M817 252l37 -49q-84 -124 -185.5 -176t-183.5 -52q-196 0 -310 127t-114 312q0 112 41.5 207.5t110.5 162.5q146 146 315 146q138 0 236 -100.5t96 -229.5q0 -33 -13 -51.5t-46 -22.5q-184 -20 -488 -32q7 -158 85 -244t192 -86q123 0 227 88zM485 848
q-61 0 -106.5 -69.5t-54.5 -188.5q42 1 121.5 3t121.5 3q25 2 33.5 9t9.5 32q0 84 -34 147.5t-91 63.5zM737 1108h-510v149h510v-149z" />
    <glyph glyph-name="Ebreve" unicode="&#x114;" horiz-adv-x="1189" 
d="M1098 354l71 -14q-18 -138 -71 -340h-1045v72q49 4 75.5 7.5t52 12.5t36 20t19 34.5t10.5 51t2 74.5v787q0 47 -1.5 76t-9.5 52.5t-17 34.5t-31 19.5t-44 12t-63 6.5v71h965l4 -64t8 -119t8 -124l-74 -10q-35 127 -84 176q-26 28 -72 39.5t-132 11.5h-99q-58 0 -71 -11
t-13 -61v-434h137q57 0 87.5 2.5t57.5 10t40.5 26t23.5 44t19 71.5h74v-414h-74q-8 39 -14.5 62.5t-19.5 43t-25.5 28t-39 14.5t-53.5 7t-76 1h-137v-355q0 -77 10 -115t39 -52q49 -21 185 -21q164 0 227 66q57 65 115 200zM831 1700h62q-1 -150 -69.5 -215.5t-192.5 -65.5
q-122 0 -190.5 65.5t-69.5 215.5h61q13 -65 65.5 -99t133.5 -34q171 0 200 133z" />
    <glyph glyph-name="ebreve" unicode="&#x115;" horiz-adv-x="894" 
d="M817 252l37 -49q-84 -124 -185.5 -176t-183.5 -52q-196 0 -310 127t-114 312q0 112 41.5 207.5t110.5 162.5q146 146 315 146q138 0 236 -100.5t96 -229.5q0 -33 -13 -51.5t-46 -22.5q-184 -20 -488 -32q7 -158 85 -244t192 -86q123 0 227 88zM485 848
q-61 0 -106.5 -69.5t-54.5 -188.5q42 1 121.5 3t121.5 3q25 2 33.5 9t9.5 32q0 84 -34 147.5t-91 63.5zM670 1352h65q0 -316 -252 -316q-247 0 -247 316h65q17 -76 65 -118t119 -42q73 0 120.5 42t64.5 118z" />
    <glyph glyph-name="Edotaccent" unicode="&#x116;" horiz-adv-x="1189" 
d="M1098 354l71 -14q-18 -138 -71 -340h-1045v72q49 4 75.5 7.5t52 12.5t36 20t19 34.5t10.5 51t2 74.5v787q0 47 -1.5 76t-9.5 52.5t-17 34.5t-31 19.5t-44 12t-63 6.5v71h965l4 -64t8 -119t8 -124l-74 -10q-35 127 -84 176q-26 28 -72 39.5t-132 11.5h-99q-58 0 -71 -11
t-13 -61v-434h137q57 0 87.5 2.5t57.5 10t40.5 26t23.5 44t19 71.5h74v-414h-74q-8 39 -14.5 62.5t-19.5 43t-25.5 28t-39 14.5t-53.5 7t-76 1h-137v-355q0 -77 10 -115t39 -52q49 -21 185 -21q164 0 227 66q57 65 115 200zM625 1724q62 0 104.5 -41.5t42.5 -101.5
q0 -59 -43 -101t-104 -42q-59 0 -102.5 42.5t-43.5 100.5q0 59 43.5 101t102.5 42z" />
    <glyph glyph-name="edotaccent" unicode="&#x117;" horiz-adv-x="894" 
d="M817 252l37 -49q-84 -124 -185.5 -176t-183.5 -52q-196 0 -310 127t-114 312q0 112 41.5 207.5t110.5 162.5q146 146 315 146q138 0 236 -100.5t96 -229.5q0 -33 -13 -51.5t-46 -22.5q-184 -20 -488 -32q7 -158 85 -244t192 -86q123 0 227 88zM485 848
q-61 0 -106.5 -69.5t-54.5 -188.5q42 1 121.5 3t121.5 3q25 2 33.5 9t9.5 32q0 84 -34 147.5t-91 63.5zM483 1059q-57 0 -100 42.5t-43 100.5q0 61 43 102.5t102 41.5q62 0 104 -41.5t42 -102.5q0 -59 -43 -101t-105 -42z" />
    <glyph glyph-name="Eogonek" unicode="&#x118;" horiz-adv-x="1187" 
d="M1098 360l71 -20q-18 -138 -71 -340h-101q-155 -136 -155 -264q0 -39 28.5 -59.5t67.5 -20.5q47 0 94 20l19 -61l-107 -66q-21 -11 -52.5 -20.5t-45.5 -9.5q-85 0 -128.5 46t-43.5 107q0 150 231 328h-852v72q49 4 75.5 7.5t52 12.5t36 20t19 34.5t10.5 51t2 74.5v787
q0 46 -2 74.5t-9.5 52t-17 35t-30.5 20.5t-44 12.5t-63 6.5v71h965q1 -15 4 -62.5t8 -117.5t8 -123l-76 -10q-32 118 -86 172q-27 27 -71.5 38t-128.5 11h-95q-59 0 -73.5 -11t-14.5 -61v-428h127q49 0 79 1.5t57 7.5t41.5 15.5t27 28t19.5 41.5t14 60h74v-416h-74
q-7 38 -14 61t-19.5 42.5t-26.5 29t-41 16t-57 8t-80 1.5h-127v-367q0 -75 10.5 -111t40.5 -51q42 -18 183 -18q160 0 225 70q56 62 117 202z" />
    <glyph glyph-name="eogonek" unicode="&#x119;" horiz-adv-x="894" 
d="M563 -14l-4 4q-37 -15 -74 -15q-132 0 -230.5 61t-147 159.5t-48.5 218.5q0 218 152 370q69 69 151.5 107.5t163.5 38.5q138 0 237 -100.5t97 -229.5q0 -33 -13 -51.5t-46 -22.5q-182 -20 -488 -32q6 -160 81.5 -246t189.5 -86q130 0 231 90l37 -47q-61 -77 -111 -117
q-227 -220 -227 -340q0 -41 27.5 -64.5t66.5 -23.5q38 0 97 25l18 -60l-123 -71q-13 -9 -40 -17t-42 -8q-87 0 -128.5 43.5t-41.5 108.5t61 148t154 157zM483 848q-61 0 -106 -69.5t-55 -188.5q47 1 129.5 3t113.5 3q24 0 34 9.5t11 33.5q0 84 -35.5 146.5t-91.5 62.5z" />
    <glyph glyph-name="Ecaron" unicode="&#x11a;" horiz-adv-x="1189" 
d="M1098 354l71 -14q-18 -138 -71 -340h-1045v72q49 4 75.5 7.5t52 12.5t36 20t19 34.5t10.5 51t2 74.5v787q0 47 -1.5 76t-9.5 52.5t-17 34.5t-31 19.5t-44 12t-63 6.5v71h965l4 -64t8 -119t8 -124l-74 -10q-35 127 -84 176q-26 28 -72 39.5t-132 11.5h-99q-58 0 -71 -11
t-13 -61v-434h137q57 0 87.5 2.5t57.5 10t40.5 26t23.5 44t19 71.5h74v-414h-74q-8 39 -14.5 62.5t-19.5 43t-25.5 28t-39 14.5t-53.5 7t-76 1h-137v-355q0 -77 10 -115t39 -52q49 -21 185 -21q164 0 227 66q57 65 115 200zM893 1708l31 -53q-104 -81 -271 -252h-63
q-116 128 -271 252l33 53q155 -64 271 -121q137 67 270 121z" />
    <glyph glyph-name="ecaron" unicode="&#x11b;" horiz-adv-x="894" 
d="M817 252l37 -49q-84 -124 -185.5 -176t-183.5 -52q-196 0 -310 127t-114 312q0 112 41.5 207.5t110.5 162.5q146 146 315 146q138 0 236 -100.5t96 -229.5q0 -33 -13 -51.5t-46 -22.5q-184 -20 -488 -32q7 -158 85 -244t192 -86q123 0 227 88zM485 848
q-61 0 -106.5 -69.5t-54.5 -188.5q42 1 121.5 3t121.5 3q25 2 33.5 9t9.5 32q0 84 -34 147.5t-91 63.5zM688 1411l55 -45q-86 -123 -217 -354h-77q-101 181 -222 354l58 45q46 -38 121 -110t81 -78q15 14 45.5 44t50 49.5t49 46t56.5 48.5z" />
    <glyph glyph-name="Gcircumflex" unicode="&#x11c;" horiz-adv-x="1488" 
d="M1440 635v-70q-35 -7 -52 -12.5t-32 -14.5t-20.5 -27.5t-8 -43t-2.5 -68.5v-161q0 -129 12 -193q-302 -76 -467 -76q-355 0 -567.5 186t-212.5 494q0 137 43 253t118.5 200t177.5 143t222 88t250 29q40 0 83.5 -3.5t76 -7.5t75.5 -12t63.5 -12t58 -12.5t42.5 -9.5
q3 -38 33 -340l-76 -15q-37 164 -141.5 245t-255.5 81q-92 0 -175.5 -41t-146.5 -115t-100 -186.5t-37 -247.5q0 -95 18 -184.5t57.5 -171t95.5 -142.5t137.5 -97t179.5 -36q77 0 115 25q47 27 47 113v194q0 41 -1.5 62t-10 43t-20.5 31.5t-40 19t-62 13.5t-92 9v70h615z
M1153 1470l-33 -53q-43 16 -88 37t-99.5 48t-82.5 40q-19 -9 -80 -39t-104 -49.5t-86 -36.5l-31 53q123 101 270 252h64q117 -123 270 -252z" />
    <glyph glyph-name="gcircumflex" unicode="&#x11d;" horiz-adv-x="1007" 
d="M1012 899l8 -14q-10 -30 -36.5 -69.5t-51.5 -55.5l-117 8q55 -65 55 -156q0 -102 -56.5 -176t-143.5 -108.5t-191 -34.5q-23 0 -100 10q-29 -29 -29 -57q0 -31 32 -55t99 -23q33 0 94.5 1t94.5 1q43 0 82 -5t83.5 -21.5t76 -42.5t52.5 -72.5t21 -108.5q0 -113 -80 -211
t-206 -153.5t-261 -55.5q-95 0 -170.5 22.5t-120.5 59.5t-68.5 80t-23.5 88q0 58 64 113q22 18 46 33.5t60 37t49 29.5q-59 21 -93.5 48.5t-59.5 64.5q-35 50 -31 110q115 47 209 136q-93 31 -147 104t-54 168q0 82 36 148.5t94.5 106t127.5 60.5t140 21q110 0 219 -56
q66 3 297 25zM483 854q-51 0 -87 -60t-36 -167q0 -112 37 -185t105 -73q60 0 91.5 59.5t31.5 173.5q0 69 -14.5 124.5t-47.5 91.5t-80 36zM498 -43q-76 0 -113.5 -9t-60.5 -34q-48 -51 -48 -104q0 -78 74.5 -137.5t190.5 -59.5q114 0 180.5 54t66.5 138q0 53 -31.5 87
t-82.5 47q-71 18 -176 18zM752 1036l-58 -45q-45 36 -112.5 102.5t-89.5 86.5q-14 -14 -56.5 -57t-76 -74t-68.5 -58l-55 45q111 166 217 355h77q102 -181 222 -355z" />
    <glyph glyph-name="Gbreve" unicode="&#x11e;" horiz-adv-x="1488" 
d="M1440 635v-70q-35 -7 -52 -12.5t-32 -14.5t-20.5 -27.5t-8 -43t-2.5 -68.5v-161q0 -129 12 -193q-302 -76 -467 -76q-355 0 -567.5 186t-212.5 494q0 137 43 253t118.5 200t177.5 143t222 88t250 29q40 0 83.5 -3.5t76 -7.5t75.5 -12t63.5 -12t58 -12.5t42.5 -9.5
q3 -38 33 -340l-76 -15q-37 164 -141.5 245t-255.5 81q-92 0 -175.5 -41t-146.5 -115t-100 -186.5t-37 -247.5q0 -95 18 -184.5t57.5 -171t95.5 -142.5t137.5 -97t179.5 -36q77 0 115 25q47 27 47 113v194q0 41 -1.5 62t-10 43t-20.5 31.5t-40 19t-62 13.5t-92 9v70h615z
M1020 1718h61q0 -280 -260 -280q-124 0 -192 65t-68 215h60q15 -65 67 -99t133 -34q170 0 199 133z" />
    <glyph glyph-name="gbreve" unicode="&#x11f;" horiz-adv-x="1007" 
d="M1012 899l8 -14q-10 -30 -36.5 -69.5t-51.5 -55.5l-117 8q55 -65 55 -156q0 -102 -56.5 -176t-143.5 -108.5t-191 -34.5q-23 0 -100 10q-29 -29 -29 -57q0 -31 32 -55t99 -23q33 0 94.5 1t94.5 1q43 0 82 -5t83.5 -21.5t76 -42.5t52.5 -72.5t21 -108.5q0 -113 -80 -211
t-206 -153.5t-261 -55.5q-95 0 -170.5 22.5t-120.5 59.5t-68.5 80t-23.5 88q0 58 64 113q22 18 46 33.5t60 37t49 29.5q-59 21 -93.5 48.5t-59.5 64.5q-35 50 -31 110q115 47 209 136q-93 31 -147 104t-54 168q0 82 36 148.5t94.5 106t127.5 60.5t140 21q110 0 219 -56
q66 3 297 25zM483 854q-51 0 -87 -60t-36 -167q0 -112 37 -185t105 -73q60 0 91.5 59.5t31.5 173.5q0 69 -14.5 124.5t-47.5 91.5t-80 36zM498 -43q-76 0 -113.5 -9t-60.5 -34q-48 -51 -48 -104q0 -78 74.5 -137.5t190.5 -59.5q114 0 180.5 54t66.5 138q0 53 -31.5 87
t-82.5 47q-71 18 -176 18zM676 1352h65q0 -316 -252 -316q-247 0 -247 316h65q17 -76 65.5 -118t119.5 -42q72 0 119 42t65 118z" />
    <glyph glyph-name="Gdotaccent" unicode="&#x120;" horiz-adv-x="1488" 
d="M1440 635v-70q-35 -7 -52 -12.5t-32 -14.5t-20.5 -27.5t-8 -43t-2.5 -68.5v-161q0 -129 12 -193q-302 -76 -467 -76q-355 0 -567.5 186t-212.5 494q0 137 43 253t118.5 200t177.5 143t222 88t250 29q40 0 83.5 -3.5t76 -7.5t75.5 -12t63.5 -12t58 -12.5t42.5 -9.5
q3 -38 33 -340l-76 -15q-37 164 -141.5 245t-255.5 81q-92 0 -175.5 -41t-146.5 -115t-100 -186.5t-37 -247.5q0 -95 18 -184.5t57.5 -171t95.5 -142.5t137.5 -97t179.5 -36q77 0 115 25q47 27 47 113v194q0 41 -1.5 62t-10 43t-20.5 31.5t-40 19t-62 13.5t-92 9v70h615z
M862 1729q63 0 105.5 -42t42.5 -104q0 -59 -42.5 -100t-105.5 -41q-58 0 -100.5 41.5t-42.5 99.5q0 61 42.5 103.5t100.5 42.5z" />
    <glyph glyph-name="gdotaccent" unicode="&#x121;" horiz-adv-x="1007" 
d="M1012 899l8 -14q-10 -30 -36.5 -69.5t-51.5 -55.5l-117 8q55 -65 55 -156q0 -102 -56.5 -176t-143.5 -108.5t-191 -34.5q-23 0 -100 10q-29 -29 -29 -57q0 -31 32 -55t99 -23q33 0 94.5 1t94.5 1q43 0 82 -5t83.5 -21.5t76 -42.5t52.5 -72.5t21 -108.5q0 -113 -80 -211
t-206 -153.5t-261 -55.5q-95 0 -170.5 22.5t-120.5 59.5t-68.5 80t-23.5 88q0 58 64 113q22 18 46 33.5t60 37t49 29.5q-59 21 -93.5 48.5t-59.5 64.5q-35 50 -31 110q115 47 209 136q-93 31 -147 104t-54 168q0 82 36 148.5t94.5 106t127.5 60.5t140 21q110 0 219 -56
q66 3 297 25zM483 854q-51 0 -87 -60t-36 -167q0 -112 37 -185t105 -73q60 0 91.5 59.5t31.5 173.5q0 69 -14.5 124.5t-47.5 91.5t-80 36zM498 -43q-76 0 -113.5 -9t-60.5 -34q-48 -51 -48 -104q0 -78 74.5 -137.5t190.5 -59.5q114 0 180.5 54t66.5 138q0 53 -31.5 87
t-82.5 47q-71 18 -176 18zM481 1059q-57 0 -100 42.5t-43 100.5q0 61 43 102.5t102 41.5q62 0 104 -41.5t42 -102.5q0 -59 -43 -101t-105 -42z" />
    <glyph glyph-name="Gcommaaccent" unicode="&#x122;" horiz-adv-x="1488" 
d="M1440 635v-70q-35 -7 -52 -12.5t-32 -14.5t-20.5 -27.5t-8 -43t-2.5 -68.5v-161q0 -129 12 -193q-302 -76 -467 -76q-355 0 -567.5 186t-212.5 494q0 137 43 253t118.5 200t177.5 143t222 88t250 29q40 0 83.5 -3.5t76 -7.5t75.5 -12t63.5 -12t58 -12.5t42.5 -9.5
q3 -38 33 -340l-76 -15q-37 164 -141.5 245t-255.5 81q-92 0 -175.5 -41t-146.5 -115t-100 -186.5t-37 -247.5q0 -95 18 -184.5t57.5 -171t95.5 -142.5t137.5 -97t179.5 -36q77 0 115 25q47 27 47 113v194q0 41 -1.5 62t-10 43t-20.5 31.5t-40 19t-62 13.5t-92 9v70h615z
M813 -102q71 0 124.5 -54.5t53.5 -136.5q0 -95 -68.5 -155t-181.5 -89l-22 54q131 63 131 141q0 73 -102 100q-31 9 -31 54q0 40 29.5 63t66.5 23z" />
    <glyph glyph-name="gcommaaccent" unicode="&#x123;" horiz-adv-x="1007" 
d="M1012 899l8 -14q-10 -30 -36.5 -69.5t-51.5 -55.5l-117 8q55 -65 55 -156q0 -102 -56.5 -176t-143.5 -108.5t-191 -34.5q-23 0 -100 10q-29 -29 -29 -57q0 -31 32 -55t99 -23q33 0 94.5 1t94.5 1q43 0 82 -5t83.5 -21.5t76 -42.5t52.5 -72.5t21 -108.5q0 -113 -80 -211
t-206 -153.5t-261 -55.5q-95 0 -170.5 22.5t-120.5 59.5t-68.5 80t-23.5 88q0 58 64 113q22 18 46 33.5t60 37t49 29.5q-59 21 -93.5 48.5t-59.5 64.5q-35 50 -31 110q115 47 209 136q-93 31 -147 104t-54 168q0 82 36 148.5t94.5 106t127.5 60.5t140 21q110 0 219 -56
q66 3 297 25zM483 854q-51 0 -87 -60t-36 -167q0 -112 37 -185t105 -73q60 0 91.5 59.5t31.5 173.5q0 69 -14.5 124.5t-47.5 91.5t-80 36zM498 -43q-76 0 -113.5 -9t-60.5 -34q-48 -51 -48 -104q0 -78 74.5 -137.5t190.5 -59.5q114 0 180.5 54t66.5 138q0 53 -31.5 87
t-82.5 47q-71 18 -176 18zM510 1034q-71 0 -124.5 55t-53.5 136q0 95 69.5 155.5t180.5 87.5l22 -53q-131 -60 -131 -139q0 -73 102 -100q11 -4 21 -18.5t10 -35.5q0 -40 -29.5 -64t-66.5 -24z" />
    <glyph glyph-name="Hcircumflex" unicode="&#x124;" horiz-adv-x="1603" 
d="M1528 1331v-71q-45 -4 -69 -7.5t-46.5 -13t-31 -20t-16 -35t-8.5 -51t-1 -74.5v-789q0 -47 1.5 -74t9 -50.5t16.5 -34t31.5 -19.5t46 -12.5t67.5 -7.5v-72h-625v72q45 4 70.5 7.5t48 13t32 20t17 34.5t9 51t1.5 74v381h-559v-381q0 -47 1.5 -74.5t9 -51t16 -34.5
t30.5 -20t45 -12.5t66 -7.5v-72h-610v72q42 4 65 7.5t45 12.5t31 20t16.5 34.5t9 51t1.5 74.5v787q0 47 -1.5 74.5t-9.5 51.5t-17.5 35t-32 20t-47 12.5t-68.5 7.5v71h614v-71q-41 -4 -63.5 -7.5t-44 -12.5t-30 -20t-16 -35t-9 -51.5t-1.5 -74.5v-301h559v301
q0 47 -1.5 74.5t-9 51.5t-16.5 35t-30.5 20t-44.5 12.5t-66 7.5v71h615zM1102 1454l-33 -53q-55 22 -153.5 69.5t-116.5 55.5q-202 -99 -269 -125l-32 53q102 82 272 252h61q113 -118 271 -252z" />
    <glyph glyph-name="hcircumflex" unicode="&#x125;" horiz-adv-x="1126" 
d="M1090 0h-484v66q73 10 89 32.5t16 108.5v360q0 111 -41 161t-107 50q-90 0 -147 -57v-514q0 -85 15 -108t79 -33v-66h-485v66q49 5 70.5 9.5t37 21.5t18.5 41.5t3 76.5v954q0 34 -0.5 53t-6.5 35.5t-10.5 23t-21.5 13t-30 8t-46 5.5v59q170 22 377 74v-643
q56 58 128.5 95.5t143.5 37.5q135 0 209 -86.5t74 -253.5v-375q0 -35 0.5 -55.5t7.5 -37.5t11 -24t23 -14.5t31 -9.5t46 -8v-66zM569 1516l-32 -54q-43 17 -88 37.5t-100.5 47.5t-82.5 40q-19 -9 -80 -39t-104 -49.5t-86 -36.5l-31 54q113 92 271 251h63q99 -107 270 -251z
" />
    <glyph glyph-name="Hbar" unicode="&#x126;" horiz-adv-x="1603" 
d="M1516 952h-160v-682q0 -47 1.5 -74.5t9 -51.5t16.5 -34.5t31.5 -19.5t46 -12.5t67.5 -7.5v-70h-625v70q45 4 70.5 7.5t48 13t32 20t17 34.5t9 51t1.5 74v346h-559v-346q0 -47 1.5 -74.5t9 -51t16 -34.5t30.5 -20t45 -12.5t66 -7.5v-70h-610v70q42 4 65 7.5t45 12.5t31 20
t16.5 34.5t9 51t1.5 74.5v682h-164v88h164v31q0 35 -0.5 57.5t-5 43t-8 32t-15.5 22t-21.5 15t-32 9t-40.5 6t-53 4.5v71h614v-71l-49.5 -4.5t-37.5 -6t-30 -9t-20 -15t-14.5 -22t-7.5 -32t-4.5 -43t-0.5 -57.5v-31h559v29q0 47 -1 74t-9.5 50t-16 32.5t-31 18t-44.5 10.5
t-66 6v71h615v-71q-47 -4 -69 -6t-46 -10.5t-31.5 -17.5t-15.5 -32.5t-9 -49t-1 -73.5v-31h160v-88zM1081 719v233h-559v-233h559z" />
    <glyph glyph-name="hbar" unicode="&#x127;" horiz-adv-x="1128" 
d="M1092 0h-484v66q73 10 89 32.5t16 108.5v368q0 109 -42.5 157t-107.5 48q-80 0 -149 -63v-510q0 -48 2.5 -71.5t15 -39t28 -20t52.5 -10.5v-66h-485v66q31 4 46 6.5t32.5 9t24.5 15t14 25.5t8.5 39.5t1.5 57.5v858h-144v88h144v105q0 38 -11 50.5t-57 22.5v56
q215 30 328 55v-289h315v-88h-315v-278q57 57 132 94t148 37q135 0 207 -85.5t72 -250.5v-375q0 -34 1.5 -56t8 -39t12.5 -25.5t23 -15.5t30.5 -9.5t43.5 -7.5v-66z" />
    <glyph glyph-name="Itilde" unicode="&#x128;" horiz-adv-x="774" 
d="M692 0h-614v72q42 4 65.5 7.5t45.5 12.5t31.5 20.5t17 35t9 51t1.5 73.5v785q0 47 -1.5 75t-9 51.5t-17 35t-31.5 21t-45.5 13t-65.5 7.5v71h614v-71q-42 -4 -65.5 -7.5t-45.5 -13t-31.5 -21t-17 -35t-9 -51.5t-1.5 -75v-785q0 -46 1.5 -73.5t9 -51t17 -35t31.5 -20.5
t45.5 -12.5t65.5 -7.5v-72zM276 1634q48 0 132 -37q80 -34 124 -34q53 0 101 86l61 -31q-36 -112 -83.5 -156.5t-106.5 -44.5q-39 0 -144 43q-64 31 -106 31q-57 0 -104 -90l-60 41q68 192 186 192z" />
    <glyph glyph-name="itilde" unicode="&#x129;" horiz-adv-x="604" 
d="M582 0h-521v68q87 9 108 39.5t21 142.5v389q0 36 -0.5 53t-4.5 37t-10.5 28t-20 17t-31.5 13t-47 8v61q192 22 375 74v-680q0 -44 0.5 -66.5t6 -45t12 -31.5t23.5 -18.5t35.5 -13t53.5 -7.5v-68zM63 1049l-59 38q35 107 84 161.5t107 54.5q45 0 127 -43q80 -41 118 -41
q59 0 103 94l57 -29q-18 -65 -41.5 -110t-48 -67t-45.5 -31t-43 -9q-52 0 -137 45q-69 41 -115 41q-62 0 -107 -104z" />
    <glyph glyph-name="Imacron" unicode="&#x12a;" horiz-adv-x="774" 
d="M692 0h-614v72q42 4 65.5 7.5t45.5 12.5t31.5 20.5t17 35t9 51t1.5 73.5v785q0 47 -1.5 75t-9 51.5t-17 35t-31.5 21t-45.5 13t-65.5 7.5v71h614v-71q-42 -4 -65.5 -7.5t-45.5 -13t-31.5 -21t-17 -35t-9 -51.5t-1.5 -75v-785q0 -46 1.5 -73.5t9 -51t17 -35t31.5 -20.5
t45.5 -12.5t65.5 -7.5v-72zM639 1456h-504v139h504v-139z" />
    <glyph glyph-name="imacron" unicode="&#x12b;" horiz-adv-x="604" 
d="M582 0h-521v68q87 9 108 39.5t21 142.5v389q0 36 -0.5 53t-4.5 37t-10.5 28t-20 17t-31.5 13t-47 8v61q192 22 375 74v-680q0 -44 0.5 -66.5t6 -45t12 -31.5t23.5 -18.5t35.5 -13t53.5 -7.5v-68zM549 1108h-510v149h510v-149z" />
    <glyph glyph-name="Ibreve" unicode="&#x12c;" horiz-adv-x="774" 
d="M692 0h-614v72q42 4 65.5 7.5t45.5 12.5t31.5 20.5t17 35t9 51t1.5 73.5v785q0 47 -1.5 75t-9 51.5t-17 35t-31.5 21t-45.5 13t-65.5 7.5v71h614v-71q-42 -4 -65.5 -7.5t-45.5 -13t-31.5 -21t-17 -35t-9 -51.5t-1.5 -75v-785q0 -46 1.5 -73.5t9 -51t17 -35t31.5 -20.5
t45.5 -12.5t65.5 -7.5v-72zM586 1696h61q-1 -150 -69.5 -215.5t-192.5 -65.5q-122 0 -190.5 65.5t-69.5 215.5h61q13 -65 65.5 -99t133.5 -34q172 0 201 133z" />
    <glyph glyph-name="ibreve" unicode="&#x12d;" horiz-adv-x="604" 
d="M582 0h-521v68q87 9 108 39.5t21 142.5v389q0 36 -0.5 53t-4.5 37t-10.5 28t-20 17t-31.5 13t-47 8v61q192 22 375 74v-680q0 -44 0.5 -66.5t6 -45t12 -31.5t23.5 -18.5t35.5 -13t53.5 -7.5v-68zM481 1352h66q0 -316 -252 -316q-248 0 -248 316h66q17 -76 65 -118
t119 -42q72 0 119 42t65 118z" />
    <glyph glyph-name="Iogonek" unicode="&#x12e;" horiz-adv-x="774" 
d="M692 0h-256q-27 -42 -46 -110t-19 -128q0 -52 31.5 -77t76.5 -25q49 0 90 18l19 -61l-123 -68q-43 -24 -86 -24q-83 0 -130.5 47.5t-47.5 118.5q0 39 13.5 81t41.5 87t43.5 67t46.5 61q7 9 10 13h-278v70q42 4 65.5 7.5t45.5 12.5t31.5 20.5t17 35t9 51t1.5 73.5v789
q0 47 -1.5 75t-9 51.5t-17 35t-31.5 20.5t-45.5 12.5t-65.5 6.5v71h614v-71q-42 -3 -65.5 -6.5t-45.5 -12.5t-31.5 -20.5t-17 -35t-9 -51.5t-1.5 -75v-789q0 -46 1.5 -73.5t9 -51t17 -35t31.5 -20.5t45.5 -12.5t65.5 -7.5v-70z" />
    <glyph glyph-name="iogonek" unicode="&#x12f;" horiz-adv-x="606" 
d="M590 0h-223q-27 -45 -43.5 -107.5t-16.5 -121.5q0 -46 30.5 -75.5t74.5 -29.5t88 23l20 -64l-108 -69q-52 -27 -86 -27q-93 0 -139 47.5t-46 120.5q0 23 5 47.5t17 52t20.5 46t28 48.5l26 40t28.5 39l21 30h-232v66q35 4 54.5 7.5t36.5 12t24.5 18t12.5 30.5t6 43t1 63
v399q0 92 -18.5 119t-99.5 39v59q206 23 379 74v-690q0 -109 22.5 -137t116.5 -37v-66zM303 1059q-57 0 -100 42.5t-43 100.5q0 61 43 102.5t102 41.5q62 0 104 -41.5t42 -102.5q0 -59 -43 -101t-105 -42z" />
    <glyph glyph-name="Idotaccent" unicode="&#x130;" horiz-adv-x="774" 
d="M692 0h-614v72q42 4 65.5 7.5t45.5 12.5t31.5 20.5t17 35t9 51t1.5 73.5v785q0 47 -1.5 75t-9 51.5t-17 35t-31.5 21t-45.5 13t-65.5 7.5v71h614v-71q-42 -4 -65.5 -7.5t-45.5 -13t-31.5 -21t-17 -35t-9 -51.5t-1.5 -75v-785q0 -46 1.5 -73.5t9 -51t17 -35t31.5 -20.5
t45.5 -12.5t65.5 -7.5v-72zM385 1724q63 0 105 -41.5t42 -103.5q0 -59 -42.5 -101t-104.5 -42q-57 0 -100 42.5t-43 100.5q0 61 42.5 103t100.5 42z" />
    <glyph glyph-name="dotlessi" unicode="&#x131;" horiz-adv-x="604" 
d="M582 0h-521v68q87 9 108 39.5t21 142.5v389q0 36 -0.5 53t-4.5 37t-10.5 28t-20 17t-31.5 13t-47 8v61q192 22 375 74v-680q0 -44 0.5 -66.5t6 -45t12 -31.5t23.5 -18.5t35.5 -13t53.5 -7.5v-68z" />
    <glyph glyph-name="IJ" unicode="&#x132;" horiz-adv-x="1523" 
d="M692 0h-614v72q42 4 65.5 7.5t45.5 12.5t31.5 20.5t17 35t9 51t1.5 73.5v785q0 47 -1.5 75t-9 51.5t-17 35t-31.5 21t-45.5 13t-65.5 7.5v71h614v-71q-42 -4 -65.5 -7.5t-45.5 -13t-31.5 -21t-17 -35t-9 -51.5t-1.5 -75v-785q0 -46 1.5 -73.5t9 -51t17 -35t31.5 -20.5
t45.5 -12.5t65.5 -7.5v-72zM1464 1331v-71q-40 -4 -62 -7.5t-42.5 -13t-29 -21t-15.5 -35t-8.5 -51.5t-1.5 -75v-676q0 -80 -3.5 -138.5t-16 -125.5t-35 -119t-61.5 -105.5t-95 -99.5q-108 -92 -248 -127l-31 76q84 36 130 94t63 154q22 141 22 399v668q0 56 -4 87.5
t-12.5 54.5t-31 34t-49.5 16.5t-79 10.5v71h610z" />
    <glyph glyph-name="ij" unicode="&#x133;" horiz-adv-x="1193" 
d="M303 1059q-57 0 -100 42.5t-43 100.5q0 61 43 102.5t102 41.5q62 0 104 -41.5t42 -102.5q0 -59 -43 -101t-105 -42zM584 0h-525v66q41 5 60 9.5t36.5 13t23 28t8.5 44.5t3 72v406q0 36 -1 57.5t-6.5 39.5t-11.5 26.5t-21 16t-29.5 10.5t-42.5 8v59q191 22 373 74v-697
q0 -39 1 -60.5t6.5 -41.5t12.5 -28.5t24.5 -17t36 -12t52.5 -7.5v-66zM897 1059q-59 0 -101 42.5t-42 100.5q0 61 42.5 102.5t102.5 41.5t101.5 -41.5t41.5 -102.5q0 -59 -42 -101t-103 -42zM657 795v61q150 17 387 74v-666q0 -116 -12.5 -188t-44.5 -144
q-55 -130 -146 -248.5t-141 -152.5q-39 -31 -69 -31q-25 0 -53.5 33.5t-28.5 79.5q0 25 13 40t36 15q134 3 152 41q20 42 26 146q8 242 8 385v385q0 39 -1 62.5t-7.5 43t-12.5 28t-23.5 16.5t-33 11.5t-49.5 8.5z" />
    <glyph glyph-name="Jcircumflex" unicode="&#x134;" horiz-adv-x="749" 
d="M692 1331v-71q-48 -5 -72.5 -10.5t-45.5 -16.5t-28.5 -34t-11.5 -54.5t-4 -87.5v-676q0 -81 -3.5 -138.5t-15.5 -125t-34 -119.5t-61 -105.5t-94 -99.5q-108 -92 -250 -127l-31 76q85 36 131 94.5t61 153.5q23 147 23 399v668q0 56 -4 87.5t-12.5 54.5t-31 34t-49.5 16.5
t-79 10.5v71h612zM692 1454l-33 -53q-43 16 -88 37t-99.5 48t-82.5 40q-19 -9 -80 -39t-104 -49.5t-86 -36.5l-31 53q123 101 270 252h64q117 -123 270 -252z" />
    <glyph glyph-name="jcircumflex" unicode="&#x135;" horiz-adv-x="595" 
d="M63 797v59q153 17 392 74v-676q0 -112 -13.5 -184.5t-44.5 -145.5q-54 -129 -144.5 -247t-141.5 -156q-45 -29 -76 -29q-22 0 -49 31t-27 74q0 25 12.5 40t34.5 15q130 0 154 43q18 34 24 145q9 268 9 391v394q0 108 -19.5 134t-110.5 38zM561 1036l-57 -45
q-34 28 -68.5 60.5t-73 70.5t-59.5 58q-20 -18 -59.5 -58t-74 -72t-69.5 -59l-55 45q111 166 217 355h78q107 -189 221 -355z" />
    <glyph glyph-name="Kcommaaccent" unicode="&#x136;" horiz-adv-x="1439" 
d="M1432 0h-412q-211 290 -404 571q-31 45 -53 60t-47 12v-369q0 -47 1.5 -75t9.5 -51.5t17.5 -35t32 -20.5t47 -12.5t68.5 -7.5v-72h-612v72q41 4 64 7.5t44.5 12.5t31 20.5t17 35t9.5 52t2 74.5v783q0 47 -1.5 75t-9 51.5t-17 35t-31.5 21t-46 13t-67 7.5v71h602v-71
q-40 -4 -62.5 -7.5t-43.5 -13t-30 -21t-16 -35t-8.5 -51.5t-1.5 -75v-348q70 20 156 108q150 150 286 330q39 49 29 73t-80 33l-37 7v71h533v-71q-101 -10 -172 -39.5t-152 -104.5q-55 -50 -102.5 -98.5t-113 -118.5t-83.5 -88q197 -293 430 -588q62 -77 110.5 -109.5
t111.5 -41.5v-72zM760 -53q71 0 124.5 -54.5t53.5 -136.5q0 -95 -68.5 -154.5t-181.5 -88.5l-22 53q131 63 131 141q0 73 -103 100q-30 9 -30 54q0 40 29.5 63t66.5 23z" />
    <glyph glyph-name="kcommaaccent" unicode="&#x137;" horiz-adv-x="1050" 
d="M1098 0l-361 -4q-73 94 -266 405q-24 39 -45 39q-6 0 -14 -2v-217q0 -36 1 -57t7.5 -38.5t13 -26t24.5 -15.5t35 -10t52 -8v-66h-527v66q37 5 53.5 7.5t36 10t25.5 15.5t12.5 26t7.5 39t1 57v946q0 60 -9 86t-32.5 37.5t-81.5 18.5v57q215 27 381 74v-940q53 11 116 78
q31 35 65 87.5t54 90.5q21 32 8 52.5t-69 29.5v61l442 19v-62q-99 -18 -156.5 -41t-99.5 -65q-75 -75 -143 -168q35 -60 135 -197t162 -215q48 -54 82.5 -74.5t89.5 -29.5v-66zM545 -74q71 0 124.5 -54.5t53.5 -135.5q0 -95 -69 -156t-181 -88l-22 53q131 63 131 142
q0 71 -103 98q-30 9 -30 53q0 40 29.5 64t66.5 24z" />
    <glyph glyph-name="kgreenlandic" unicode="&#x138;" horiz-adv-x="1132" 
d="M1126 0h-378q-9 14 -94.5 165.5t-123.5 215.5q-20 34 -38 44.5t-41 8.5v-201q0 -47 2.5 -72t8 -44.5t21.5 -28t35 -13.5t57 -9v-66h-512v66q32 2 49.5 4.5t34 10t23.5 17t12.5 30t6.5 44t1 64.5v413q0 105 -20 134.5t-102 35.5v66q222 16 383 47v-434q17 2 43.5 14
t48.5 33q101 92 170 192q24 38 15.5 63t-44.5 31l-41 9v65h444v-65q-81 -7 -133 -28.5t-106 -68.5q-40 -36 -166 -168q184 -290 281 -409q42 -55 75.5 -75t87.5 -25v-66z" />
    <glyph glyph-name="Lacute" unicode="&#x139;" horiz-adv-x="1128" 
d="M1051 369l71 -23q-46 -245 -75 -346h-998v72q50 4 77.5 7.5t53 12.5t36.5 20.5t19.5 35t10.5 51t2 73.5v785q0 47 -1.5 75.5t-9.5 52t-18 35t-32.5 20.5t-46.5 12.5t-68 7.5v71h626v-71q-53 -5 -79.5 -10.5t-49.5 -16t-31 -34t-12 -54.5t-4 -88v-799q0 -75 10 -107
t41 -45q45 -18 154 -18q147 0 209 70q59 65 115 211zM741 1546l-6 -24l-422 -123l-30 57q41 29 113 80t131 93t110 77q29 -10 64 -65t40 -95z" />
    <glyph glyph-name="lacute" unicode="&#x13a;" horiz-adv-x="569" 
d="M551 0h-531v66q41 6 61 11.5t37.5 14t23.5 26.5t9 41.5t3 65.5v938q0 50 -2.5 73t-17.5 39.5t-35 21t-68 10.5v59q215 26 383 74v-1215q0 -37 1 -58.5t7 -40.5t13 -27t25.5 -15.5t36.5 -10.5t54 -7v-66zM571 1620l-8 -25l-422 -122l-28 57q41 29 113 80t131 93t110 77
q28 -12 64 -66.5t40 -93.5z" />
    <glyph glyph-name="Lcommaaccent" unicode="&#x13b;" horiz-adv-x="1128" 
d="M1051 369l71 -23q-46 -245 -75 -346h-998v72q50 4 77.5 7.5t53 12.5t36.5 20.5t19.5 35t10.5 51t2 73.5v785q0 47 -1.5 75.5t-9.5 52t-18 35t-32.5 20.5t-46.5 12.5t-68 7.5v71h626v-71q-53 -5 -79.5 -10.5t-49.5 -16t-31 -34t-12 -54.5t-4 -88v-799q0 -75 10 -107
t41 -45q45 -18 154 -18q147 0 209 70q59 65 115 211zM621 -74q71 0 124.5 -54.5t53.5 -135.5q0 -95 -68.5 -155t-181.5 -89l-23 53q131 63 131 142q0 36 -27.5 62t-74.5 38q-12 2 -22.5 16t-10.5 37q0 40 30.5 63t68.5 23z" />
    <glyph glyph-name="lcommaaccent" unicode="&#x13c;" horiz-adv-x="569" 
d="M551 0h-531v66q41 6 61 11.5t37.5 14t23.5 26.5t9 41.5t3 65.5v938q0 50 -2.5 73t-17.5 39.5t-35 21t-68 10.5v59q215 26 383 74v-1215q0 -37 1 -58.5t7 -40.5t13 -27t25.5 -15.5t36.5 -10.5t54 -7v-66zM264 -70q71 0 124.5 -54.5t53.5 -135.5q0 -95 -68 -155t-181 -89
l-23 53q131 63 131 142q0 36 -27.5 62t-74.5 38q-12 2 -21.5 16t-9.5 37q0 40 29.5 63t66.5 23z" />
    <glyph glyph-name="Lcaron" unicode="&#x13d;" horiz-adv-x="1128" 
d="M1051 369l71 -23q-46 -245 -75 -346h-998v72q50 4 77.5 7.5t53 12.5t36.5 20.5t19.5 35t10.5 51t2 73.5v785q0 47 -1.5 75.5t-9.5 52t-18 35t-32.5 20.5t-46.5 12.5t-68 7.5v71h626v-71q-53 -5 -79.5 -10.5t-49.5 -16t-31 -34t-12 -54.5t-4 -88v-799q0 -75 10 -107
t41 -45q45 -18 154 -18q147 0 209 70q59 65 115 211zM862 1337q64 0 110 -54t46 -136q0 -94 -60.5 -155.5t-158.5 -88.5l-23 53q111 58 111 142q0 71 -82 98q-11 4 -21 18t-10 35q0 39 28 63.5t60 24.5z" />
    <glyph glyph-name="lcaron" unicode="&#x13e;" horiz-adv-x="569" 
d="M551 0h-531v66q41 6 61 11.5t37.5 14t23.5 26.5t9 41.5t3 65.5v938q0 50 -2.5 73t-17.5 39.5t-35 21t-68 10.5v59q215 26 383 74v-1215q0 -37 1 -58.5t7 -40.5t13 -27t25.5 -15.5t36.5 -10.5t54 -7v-66zM590 1454q64 0 109.5 -53.5t45.5 -136.5q0 -94 -60 -154.5
t-159 -89.5l-20 53q108 61 108 141q0 36 -22 62.5t-60 38.5q-10 2 -20 16t-10 35q0 40 27.5 64t60.5 24z" />
    <glyph glyph-name="Ldot" unicode="&#x13f;" horiz-adv-x="1128" 
d="M1051 369l71 -23q-46 -245 -75 -346h-998v72q50 4 77.5 7.5t53 12.5t36.5 20.5t19.5 35t10.5 51t2 73.5v785q0 47 -1.5 75.5t-9.5 52t-18 35t-32.5 20.5t-46.5 12.5t-68 7.5v71h626v-71q-53 -5 -79.5 -10.5t-49.5 -16t-31 -34t-12 -54.5t-4 -88v-799q0 -75 10 -107
t41 -45q45 -18 154 -18q147 0 209 70q59 65 115 211zM811 877q63 0 105 -42t42 -104q0 -59 -42.5 -101t-104.5 -42q-57 0 -100 42.5t-43 100.5q0 61 42.5 103.5t100.5 42.5z" />
    <glyph glyph-name="ldot" unicode="&#x140;" horiz-adv-x="686" 
d="M627 872q59 0 98 -40t39 -99q0 -57 -39 -98t-98 -41q-53 0 -92 41t-39 98q0 58 39 98.5t92 40.5zM551 0h-531v66q41 6 61 11.5t37.5 14t23.5 26.5t9 41.5t3 65.5v938q0 50 -2.5 73t-17.5 39.5t-35 21t-68 10.5v59q215 26 383 74v-1215q0 -37 1 -58.5t7 -40.5t13 -27
t25.5 -15.5t36.5 -10.5t54 -7v-66z" />
    <glyph glyph-name="Lslash" unicode="&#x141;" horiz-adv-x="1153" 
d="M1069 367l78 -21q-45 -245 -76 -346h-997v72q48 4 77 8t53.5 14t36 22.5t19.5 37t10 53t2 76.5v258l-204 -138v107l204 137v402q0 71 -4.5 105.5t-24 59.5t-51 32.5t-94.5 13.5v71h629l-4 -71q-42 -4 -68 -8t-47.5 -14.5t-32 -23t-17.5 -37t-9 -53t-2 -75.5v-230l272 182
v-110l-272 -180v-445q0 -77 10 -112t41 -48q38 -16 158 -16q145 0 205 68q52 60 108 209z" />
    <glyph glyph-name="lslash" unicode="&#x142;" horiz-adv-x="618" 
d="M612 950l-172 -141v-563q0 -41 1 -64.5t7.5 -44.5t14 -30.5t25.5 -18t37.5 -12.5t54.5 -8v-68h-541v68q42 4 64.5 9.5t39.5 14.5t23.5 30.5t9 47.5t2.5 76v362l-145 -119v111l145 121v473q0 46 -8 66t-34.5 33.5t-90.5 27.5v57q225 30 395 74v-530l172 139v-111z" />
    <glyph glyph-name="Nacute" unicode="&#x143;" horiz-adv-x="1515" 
d="M1483 1331v-71q-85 -5 -121 -31.5t-43 -95.5q-19 -199 -19 -340v-813h-98l-852 1019h-6v-460q0 -169 16 -332q8 -71 47.5 -101t149.5 -34v-72h-502v72q87 6 125.5 35t44.5 94q21 179 21 338v428q0 104 -7.5 144.5t-35.5 74.5q-27 36 -65 52t-105 22v71h379l782 -899h8
v361q0 62 -2 121t-4.5 91t-5.5 72t-4 51q-8 68 -50.5 97t-152.5 35v71h500zM1079 1546l-6 -24l-422 -123l-30 57q41 29 113 80t131 93t110 77q29 -10 64 -65t40 -95z" />
    <glyph glyph-name="nacute" unicode="&#x144;" horiz-adv-x="1159" 
d="M1124 0h-477v66q25 4 37.5 7t25.5 10t17.5 16t9 28t5.5 42t1 62v349q0 102 -39.5 147t-101.5 45q-70 0 -151 -63v-496q0 -66 7.5 -93t24.5 -36.5t64 -17.5v-66h-494v66q39 5 55 8t36 10.5t25.5 15t12.5 26t7.5 39t0.5 58.5v424q0 40 -2.5 61.5t-7 38.5t-19 25.5t-31 13.5
t-50.5 11v59q173 21 371 78v-152q14 10 39 28.5t46.5 33.5t41.5 28q50 32 83.5 45t75.5 13q125 0 197 -87.5t72 -240.5v-387q0 -35 1 -55t6.5 -37t11 -25t22 -15t31 -9.5t46.5 -7.5v-66zM582 1001l-64 27q16 50 55.5 185.5t44.5 152.5q15 10 106.5 19.5t117.5 3.5l12 -21z
" />
    <glyph glyph-name="Ncommaaccent" unicode="&#x145;" horiz-adv-x="1515" 
d="M1483 1331v-71q-85 -5 -121 -31.5t-43 -95.5q-19 -199 -19 -340v-813h-98l-852 1019h-6v-460q0 -169 16 -332q8 -71 47.5 -101t149.5 -34v-72h-502v72q87 6 125.5 35t44.5 94q21 179 21 338v428q0 104 -7.5 144.5t-35.5 74.5q-27 36 -65 52t-105 22v71h379l782 -899h8
v361q0 62 -2 121t-4.5 91t-5.5 72t-4 51q-8 68 -50.5 97t-152.5 35v71h500zM774 -33q71 0 123.5 -54.5t52.5 -135.5q0 -96 -68.5 -156.5t-181.5 -87.5l-20 53q131 64 131 142q0 72 -104 98q-11 4 -21 18t-10 35q0 40 30 64t68 24z" />
    <glyph glyph-name="ncommaaccent" unicode="&#x146;" horiz-adv-x="1159" 
d="M1124 0h-477v66q25 4 37.5 7t25.5 10t17.5 16t9 28t5.5 42t1 62v349q0 102 -39.5 147t-101.5 45q-70 0 -151 -63v-496q0 -66 7.5 -93t24.5 -36.5t64 -17.5v-66h-494v66q39 5 55 8t36 10.5t25.5 15t12.5 26t7.5 39t0.5 58.5v424q0 40 -2.5 61.5t-7 38.5t-19 25.5t-31 13.5
t-50.5 11v59q173 21 371 78v-152q14 10 39 28.5t46.5 33.5t41.5 28q50 32 83.5 45t75.5 13q125 0 197 -87.5t72 -240.5v-387q0 -35 1 -55t6.5 -37t11 -25t22 -15t31 -9.5t46.5 -7.5v-66zM588 -84q71 0 124.5 -54.5t53.5 -135.5q0 -95 -69 -156t-181 -88l-22 53
q68 32 99.5 66t31.5 75q0 36 -28 61.5t-75 37.5q-30 9 -30 53q0 40 29.5 64t66.5 24z" />
    <glyph glyph-name="Ncaron" unicode="&#x147;" horiz-adv-x="1515" 
d="M1483 1331v-71q-85 -5 -121 -31.5t-43 -95.5q-19 -199 -19 -340v-813h-98l-852 1019h-6v-460q0 -169 16 -332q8 -71 47.5 -101t149.5 -34v-72h-502v72q87 6 125.5 35t44.5 94q21 179 21 338v428q0 104 -7.5 144.5t-35.5 74.5q-27 36 -65 52t-105 22v71h379l782 -899h8
v361q0 62 -2 121t-4.5 91t-5.5 72t-4 51q-8 68 -50.5 97t-152.5 35v71h500zM1042 1669l31 -53q-100 -78 -270 -252h-64q-119 131 -270 252l33 53q148 -62 270 -121q137 67 270 121z" />
    <glyph glyph-name="ncaron" unicode="&#x148;" horiz-adv-x="1159" 
d="M1124 0h-477v66q25 4 37.5 7t25.5 10t17.5 16t9 28t5.5 42t1 62v349q0 102 -39.5 147t-101.5 45q-70 0 -151 -63v-496q0 -66 7.5 -93t24.5 -36.5t64 -17.5v-66h-494v66q39 5 55 8t36 10.5t25.5 15t12.5 26t7.5 39t0.5 58.5v424q0 40 -2.5 61.5t-7 38.5t-19 25.5t-31 13.5
t-50.5 11v59q173 21 371 78v-152q14 10 39 28.5t46.5 33.5t41.5 28q50 32 83.5 45t75.5 13q125 0 197 -87.5t72 -240.5v-387q0 -35 1 -55t6.5 -37t11 -25t22 -15t31 -9.5t46.5 -7.5v-66zM778 1411l56 -45q-80 -117 -218 -354h-77q-97 174 -220 354l56 45q35 -28 69 -59.5
t75 -70.5t61 -58q16 15 57 56.5t74 72.5t67 59z" />
    <glyph glyph-name="napostrophe" unicode="&#x149;" horiz-adv-x="1159" 
d="M109 1468q87 0 155 -59.5t68 -163.5t-85.5 -171.5t-217.5 -98.5l-23 57q156 68 156 166q0 45 -36.5 75.5t-98.5 41.5q-8 2 -17.5 18t-9.5 41q0 41 33.5 67.5t75.5 26.5zM1124 0h-477v66q25 4 37.5 7t25.5 10t17.5 16t9 28t5.5 42t1 62v349q0 102 -39.5 147t-101.5 45
q-70 0 -151 -63v-496q0 -66 7.5 -93t24.5 -36.5t64 -17.5v-66h-494v66q39 5 55 8t36 10.5t25.5 15t12.5 26t7.5 39t0.5 58.5v424q0 40 -2.5 61.5t-7 38.5t-19 25.5t-31 13.5t-50.5 11v59q173 21 371 78v-152q14 10 39 28.5t46.5 33.5t41.5 28q50 32 83.5 45t75.5 13
q125 0 197 -87.5t72 -240.5v-387q0 -35 1 -55t6.5 -37t11 -25t22 -15t31 -9.5t46.5 -7.5v-66z" />
    <glyph glyph-name="Eng" unicode="&#x14a;" horiz-adv-x="1515" 
d="M1483 1331v-69q-85 -5 -121.5 -32t-42.5 -95q-19 -150 -19 -344v-730q0 -231 -71 -352q-82 -133 -193 -133q-50 0 -86.5 34.5t-36.5 86.5q0 51 31 51q13 0 41 -8t55 -8q80 0 119 71.5t39 180.5l-846 1011h-8v-448q0 -198 14 -340q8 -71 49 -101t152 -36v-70h-504v70
q86 6 125.5 35.5t46.5 93.5q0 4 5 56t7 80t4.5 88.5t2.5 123.5v418q0 104 -7.5 146t-35.5 77q-27 36 -65 52t-105 22v69h375l788 -897h6v359q0 133 -14 340q-8 67 -51 95t-154 34v69h500z" />
    <glyph glyph-name="eng" unicode="&#x14b;" horiz-adv-x="1142" 
d="M451 934v-146q10 7 51.5 35t68.5 45q52 33 86.5 47.5t75.5 14.5q126 0 198.5 -84.5t72.5 -237.5v-313q0 -136 -15 -227t-59 -183q-52 -111 -150 -209q-100 -100 -172 -100q-36 0 -66 35t-30 90q0 18 9 30.5t22 12.5t60.5 -17.5t64.5 -17.5q48 0 59 49q11 43 13.5 102
t2.5 240v475q0 103 -39.5 150t-99.5 47q-69 0 -153 -65v-488q0 -52 2.5 -76t17.5 -42t37 -23.5t70 -11.5v-66h-523v66q52 6 74.5 11t39 23.5t19 44t2.5 80.5v426q0 87 -17 111t-93 39v57q159 22 371 76z" />
    <glyph glyph-name="Omacron" unicode="&#x14c;" horiz-adv-x="1568" 
d="M805 1362q139 0 263 -50t216 -138t145.5 -216.5t53.5 -277.5q0 -162 -55.5 -297t-151.5 -225t-224 -139.5t-272 -49.5q-151 0 -281 53.5t-220.5 146.5t-141.5 221t-51 274q0 107 29 208t89.5 190t144.5 156t201.5 105.5t254.5 38.5zM768 1276q-159 0 -264 -157t-105 -417
q0 -177 49 -322.5t145.5 -235t223.5 -89.5q153 0 252.5 148t99.5 420q0 302 -110.5 477.5t-290.5 175.5zM1032 1460h-502v137h502v-137z" />
    <glyph glyph-name="omacron" unicode="&#x14d;" horiz-adv-x="1075" 
d="M549 930q139 0 247 -64t164 -168.5t56 -228.5q0 -119 -40 -215.5t-107.5 -156t-151.5 -91t-176 -31.5q-94 0 -173.5 26t-135 70.5t-95 103.5t-58 124t-18.5 133q0 96 29 178.5t77.5 140t111.5 99t132 61t138 19.5zM522 850q-70 0 -119 -88.5t-49 -255.5q0 -126 25 -228
t73 -162.5t111 -60.5q33 0 58.5 13.5t50 49t38 109t13.5 181.5q0 214 -52 328t-149 114zM795 1108h-512v149h512v-149z" />
    <glyph glyph-name="Obreve" unicode="&#x14e;" horiz-adv-x="1568" 
d="M805 1362q139 0 263 -50t216 -138t145.5 -216.5t53.5 -277.5q0 -162 -55.5 -297t-151.5 -225t-224 -139.5t-272 -49.5q-151 0 -281 53.5t-220.5 146.5t-141.5 221t-51 274q0 107 29 208t89.5 190t144.5 156t201.5 105.5t254.5 38.5zM768 1276q-159 0 -264 -157t-105 -417
q0 -177 49 -322.5t145.5 -235t223.5 -89.5q153 0 252.5 148t99.5 420q0 302 -110.5 477.5t-290.5 175.5zM971 1708h61q0 -281 -260 -281q-124 0 -192 65.5t-68 215.5h61q13 -65 65.5 -99t133.5 -34q170 0 199 133z" />
    <glyph glyph-name="obreve" unicode="&#x14f;" horiz-adv-x="1075" 
d="M549 930q139 0 247 -64t164 -168.5t56 -228.5q0 -119 -40 -215.5t-107.5 -156t-151.5 -91t-176 -31.5q-94 0 -173.5 26t-135 70.5t-95 103.5t-58 124t-18.5 133q0 96 29 178.5t77.5 140t111.5 99t132 61t138 19.5zM522 850q-70 0 -119 -88.5t-49 -255.5q0 -126 25 -228
t73 -162.5t111 -60.5q33 0 58.5 13.5t50 49t38 109t13.5 181.5q0 214 -52 328t-149 114zM711 1352h65q0 -316 -252 -316q-248 0 -248 316h66q17 -76 65 -118t119 -42q73 0 120.5 42t64.5 118z" />
    <glyph glyph-name="Ohungarumlaut" unicode="&#x150;" horiz-adv-x="1568" 
d="M805 1362q139 0 263 -50t216 -138t145.5 -216.5t53.5 -277.5q0 -162 -55.5 -297t-151.5 -225t-224 -139.5t-272 -49.5q-151 0 -281 53.5t-220.5 146.5t-141.5 221t-51 274q0 107 29 208t89.5 190t144.5 156t201.5 105.5t254.5 38.5zM768 1276q-159 0 -264 -157t-105 -417
q0 -177 49 -322.5t145.5 -235t223.5 -89.5q153 0 252.5 148t99.5 420q0 302 -110.5 477.5t-290.5 175.5zM1182 1647l-217 -238l-66 23q16 49 45 139t39 119q38 9 109.5 -2t87.5 -25zM856 1647l-215 -238l-66 23q35 103 82 258q38 9 110.5 -2t88.5 -25v-16z" />
    <glyph glyph-name="ohungarumlaut" unicode="&#x151;" horiz-adv-x="1075" 
d="M549 930q139 0 247 -64t164 -168.5t56 -228.5q0 -119 -40 -215.5t-107.5 -156t-151.5 -91t-176 -31.5q-94 0 -173.5 26t-135 70.5t-95 103.5t-58 124t-18.5 133q0 96 29 178.5t77.5 140t111.5 99t132 61t138 19.5zM522 850q-70 0 -119 -88.5t-49 -255.5q0 -126 25 -228
t73 -162.5t111 -60.5q33 0 58.5 13.5t50 49t38 109t13.5 181.5q0 214 -52 328t-149 114zM381 999l-59 23q11 46 27 122t30 145t16 77q15 10 92.5 20t104.5 5l10 -23zM694 999l-61 23q17 71 44.5 204t29.5 140q15 10 92 20t104 5l10 -23z" />
    <glyph glyph-name="OE" unicode="&#x152;" horiz-adv-x="2031" 
d="M1939 367l72 -17q-25 -137 -72 -350h-665q-122 0 -215 -10q-133 -13 -209 -13q-154 0 -282 36t-216.5 98.5t-149.5 148t-89.5 183.5t-28.5 206q0 203 98 363t281.5 251t423.5 91q36 0 72.5 -2t77.5 -6t63 -5q147 -10 182 -10h604q2 -50 23 -303l-76 -10q-32 118 -86 172
q-26 29 -72 40t-143 11h-94q-55 0 -67.5 -11t-12.5 -61v-434h143q47 0 74.5 1.5t54 7t40 14.5t26.5 27.5t20 42t15 61.5h73v-414h-73q-8 40 -15 64t-20.5 43t-26 27.5t-40 14t-53 6.5t-75.5 1h-143v-332q0 -102 9.5 -141.5t39.5 -51.5q42 -18 180 -18q167 0 230 68
q62 62 122 211zM1087 205v936q0 43 -13 64.5t-44 33.5q-65 27 -156 27q-216 0 -347.5 -158t-131.5 -434q0 -98 19.5 -188t59.5 -167t96.5 -134t135 -89.5t171.5 -32.5q86 0 137 21q42 18 57.5 43t15.5 78z" />
    <glyph glyph-name="oe" unicode="&#x153;" horiz-adv-x="1576" 
d="M1487 244l37 -49q-42 -64 -94.5 -110.5t-102 -68.5t-88 -31.5t-70.5 -9.5q-204 0 -325 156q-66 -80 -150.5 -118t-167.5 -38q-110 0 -201.5 40t-149 106t-89 147.5t-31.5 167.5q0 94 29 175.5t77.5 139t111.5 98.5t131.5 61t136.5 20q206 0 329 -170q154 170 326 170
q143 0 243.5 -100t100.5 -232q0 -63 -55 -74q-24 -6 -188.5 -17.5t-321.5 -17.5q2 -150 79 -240.5t210 -90.5q111 0 223 86zM1153 844q-60 0 -109.5 -71t-58.5 -193q166 4 258 8q26 0 35.5 8.5t9.5 36.5q0 81 -38 146t-97 65zM522 848q-67 0 -119 -89.5t-53 -258.5
q-1 -118 23.5 -217t74.5 -161t115 -63q29 0 54.5 15t51 51t40.5 110.5t16 180.5q3 211 -52.5 321.5t-150.5 110.5z" />
    <glyph glyph-name="Racute" unicode="&#x154;" horiz-adv-x="1349" 
d="M1352 47l-13 -65q-4 0 -25.5 1t-35.5 1q-127 6 -206.5 29.5t-124.5 61.5t-89 107q-24 37 -51 86t-62.5 114.5t-54.5 100.5q-25 48 -55.5 68.5t-79.5 21.5h-39v-299q0 -45 2 -72.5t9.5 -51t17.5 -35.5t31.5 -21.5t46.5 -13.5t67 -8v-72h-618v72q42 4 67 8t47 13.5
t32.5 21.5t18 35.5t9.5 51t2 72.5v787q0 44 -1.5 71t-9 50t-17 35t-30.5 21.5t-45.5 13.5t-64.5 8v71h575q135 0 219.5 -18t145.5 -60q64 -42 101.5 -111t37.5 -161q0 -227 -256 -334q60 -122 166 -291q116 -177 158 -221q35 -36 63 -56t62 -32zM516 653h53q140 0 201 56
q98 80 98 243q0 150 -71.5 223.5t-169.5 73.5q-72 0 -92 -20q-19 -16 -19 -76v-500zM958 1546l-8 -24l-422 -123l-28 57q41 29 113 80t131 93t110 77q28 -11 64 -65.5t40 -94.5z" />
    <glyph glyph-name="racute" unicode="&#x155;" horiz-adv-x="827" 
d="M451 715h6q125 215 229 215q60 0 98.5 -36.5t38.5 -90.5t-28.5 -95t-71.5 -57q-39 -13 -64 8q-52 43 -94 43q-68 0 -114 -106v-381q0 -35 1 -54.5t8.5 -37.5t16 -25.5t31 -14.5t45.5 -10t68 -7v-66h-562v66q47 5 68.5 10t38 21.5t20.5 42t4 75.5v447q0 41 -3 62t-17.5 36
t-32 21t-57.5 16v57q203 26 371 78v-217zM440 1001l-63 27q16 50 55.5 185.5t44.5 152.5q15 10 106 19.5t117 3.5l13 -21z" />
    <glyph glyph-name="Rcommaaccent" unicode="&#x156;" horiz-adv-x="1349" 
d="M1352 47l-13 -65q-4 0 -25.5 1t-35.5 1q-127 6 -206.5 29.5t-124.5 61.5t-89 107q-24 37 -51 86t-62.5 114.5t-54.5 100.5q-25 48 -55.5 68.5t-79.5 21.5h-39v-299q0 -45 2 -72.5t9.5 -51t17.5 -35.5t31.5 -21.5t46.5 -13.5t67 -8v-72h-618v72q42 4 67 8t47 13.5
t32.5 21.5t18 35.5t9.5 51t2 72.5v787q0 44 -1.5 71t-9 50t-17 35t-30.5 21.5t-45.5 13.5t-64.5 8v71h575q135 0 219.5 -18t145.5 -60q64 -42 101.5 -111t37.5 -161q0 -227 -256 -334q60 -122 166 -291q116 -177 158 -221q35 -36 63 -56t62 -32zM516 653h53q140 0 201 56
q98 80 98 243q0 150 -71.5 223.5t-169.5 73.5q-72 0 -92 -20q-19 -16 -19 -76v-500zM733 -55q71 0 124.5 -55t53.5 -136q0 -95 -68.5 -155.5t-180.5 -87.5l-23 53q131 63 131 141q0 71 -102 98q-12 3 -21.5 17.5t-9.5 36.5q0 40 29.5 64t66.5 24z" />
    <glyph glyph-name="rcommaaccent" unicode="&#x157;" horiz-adv-x="827" 
d="M451 715h6q125 215 229 215q60 0 98.5 -36.5t38.5 -90.5t-28.5 -95t-71.5 -57q-39 -13 -64 8q-52 43 -94 43q-68 0 -114 -106v-381q0 -35 1 -54.5t8.5 -37.5t16 -25.5t31 -14.5t45.5 -10t68 -7v-66h-562v66q47 5 68.5 10t38 21.5t20.5 42t4 75.5v447q0 41 -3 62t-17.5 36
t-32 21t-57.5 16v57q203 26 371 78v-217zM309 -84q71 0 123.5 -54.5t52.5 -135.5q0 -96 -68 -156.5t-181 -87.5l-21 53q131 64 131 141q0 36 -27.5 61.5t-76.5 37.5q-11 4 -21 18t-10 35q0 40 30 64t68 24z" />
    <glyph glyph-name="Rcaron" unicode="&#x158;" horiz-adv-x="1349" 
d="M1352 47l-13 -65q-4 0 -25.5 1t-35.5 1q-127 6 -206.5 29.5t-124.5 61.5t-89 107q-24 37 -51 86t-62.5 114.5t-54.5 100.5q-25 48 -55.5 68.5t-79.5 21.5h-39v-299q0 -45 2 -72.5t9.5 -51t17.5 -35.5t31.5 -21.5t46.5 -13.5t67 -8v-72h-618v72q42 4 67 8t47 13.5
t32.5 21.5t18 35.5t9.5 51t2 72.5v787q0 44 -1.5 71t-9 50t-17 35t-30.5 21.5t-45.5 13.5t-64.5 8v71h575q135 0 219.5 -18t145.5 -60q64 -42 101.5 -111t37.5 -161q0 -227 -256 -334q60 -122 166 -291q116 -177 158 -221q35 -36 63 -56t62 -32zM516 653h53q140 0 201 56
q98 80 98 243q0 150 -71.5 223.5t-169.5 73.5q-72 0 -92 -20q-19 -16 -19 -76v-500zM893 1700l31 -53q-104 -81 -271 -252h-61q-122 131 -273 252l35 53q142 -59 269 -121q137 67 270 121z" />
    <glyph glyph-name="rcaron" unicode="&#x159;" horiz-adv-x="827" 
d="M451 715h6q125 215 229 215q60 0 98.5 -36.5t38.5 -90.5t-28.5 -95t-71.5 -57q-39 -13 -64 8q-52 43 -94 43q-68 0 -114 -106v-381q0 -35 1 -54.5t8.5 -37.5t16 -25.5t31 -14.5t45.5 -10t68 -7v-66h-562v66q47 5 68.5 10t38 21.5t20.5 42t4 75.5v447q0 41 -3 62t-17.5 36
t-32 21t-57.5 16v57q203 26 371 78v-217zM637 1411l55 -45q-73 -107 -217 -354h-78q-102 182 -219 354l55 45q27 -22 57.5 -49.5t47.5 -43.5t53 -51t45 -44q20 19 59 57.5t73 70.5t69 60z" />
    <glyph glyph-name="Sacute" unicode="&#x15a;" horiz-adv-x="1034" 
d="M905 1014l-69 -17q-15 44 -30.5 79.5t-41 74.5t-54.5 65.5t-71 44t-90 17.5q-86 0 -142.5 -57.5t-56.5 -145.5q0 -82 57 -140t197 -128q87 -42 148.5 -82t112.5 -91t76.5 -113t25.5 -136q0 -178 -138.5 -297t-359.5 -119q-109 0 -207 29q-51 14 -125 45q-29 83 -59 348
l72 23q14 -43 34 -88t53 -95.5t71.5 -88.5t91 -63.5t108.5 -25.5q93 0 149 59t56 156q0 86 -59.5 149.5t-184.5 129.5q-86 43 -146 82.5t-110 89.5t-75 110t-25 132q0 173 128 287t341 114q139 0 284 -55q4 -41 18 -138.5t21 -154.5zM842 1565l-8 -25l-420 -123l-31 58
q268 189 354 249q28 -12 64.5 -66t40.5 -93z" />
    <glyph glyph-name="sacute" unicode="&#x15b;" horiz-adv-x="784" 
d="M692 659l-61 -18q-44 101 -96.5 155t-120.5 54q-41 0 -73 -31.5t-32 -79.5q0 -47 36.5 -84t115.5 -73q69 -30 114.5 -56t85 -61.5t58 -81.5t18.5 -104q0 -96 -56.5 -167.5t-138 -104t-171.5 -32.5q-76 0 -150 22t-108 48q-9 26 -20.5 114.5t-12.5 159.5l61 7
q24 -70 60.5 -128.5t91 -100.5t113.5 -42q50 0 81 32t31 79q0 49 -33.5 88.5t-122.5 81.5q-31 15 -45 22.5t-47 27t-51 34.5t-43.5 40.5t-39 50t-24 58.5t-10.5 70q0 124 93.5 207.5t250.5 83.5q110 0 197 -37q13 -32 29 -113t20 -121zM408 1001l-64 27q16 50 55.5 185.5
t44.5 152.5q15 10 106.5 19.5t117.5 3.5l12 -21z" />
    <glyph glyph-name="Scircumflex" unicode="&#x15c;" horiz-adv-x="1034" 
d="M905 1014l-69 -17q-15 44 -30.5 79.5t-41 74.5t-54.5 65.5t-71 44t-90 17.5q-86 0 -142.5 -57.5t-56.5 -145.5q0 -82 57 -140t197 -128q87 -42 148.5 -82t112.5 -91t76.5 -113t25.5 -136q0 -178 -138.5 -297t-359.5 -119q-109 0 -207 29q-51 14 -125 45q-29 83 -59 348
l72 23q14 -43 34 -88t53 -95.5t71.5 -88.5t91 -63.5t108.5 -25.5q93 0 149 59t56 156q0 86 -59.5 149.5t-184.5 129.5q-86 43 -146 82.5t-110 89.5t-75 110t-25 132q0 173 128 287t341 114q139 0 284 -55q4 -41 18 -138.5t21 -154.5zM844 1464l-33 -53q-42 16 -87 37
t-100 48t-83 40q-19 -9 -80 -39t-104 -49.5t-85 -36.5l-32 53q113 91 270 252h63q113 -118 271 -252z" />
    <glyph glyph-name="scircumflex" unicode="&#x15d;" horiz-adv-x="784" 
d="M692 659l-61 -18q-44 101 -96.5 155t-120.5 54q-41 0 -73 -31.5t-32 -79.5q0 -47 36.5 -84t115.5 -73q69 -30 114.5 -56t85 -61.5t58 -81.5t18.5 -104q0 -96 -56.5 -167.5t-138 -104t-171.5 -32.5q-76 0 -150 22t-108 48q-9 26 -20.5 114.5t-12.5 159.5l61 7
q24 -70 60.5 -128.5t91 -100.5t113.5 -42q50 0 81 32t31 79q0 49 -33.5 88.5t-122.5 81.5q-31 15 -45 22.5t-47 27t-51 34.5t-43.5 40.5t-39 50t-24 58.5t-10.5 70q0 124 93.5 207.5t250.5 83.5q110 0 197 -37q13 -32 29 -113t20 -121zM659 1036l-57 -45q-34 28 -68.5 60.5
t-73 70.5t-59.5 58q-20 -19 -59 -58t-73.5 -71.5t-69.5 -59.5l-56 45q111 166 217 355h78q107 -189 221 -355z" />
    <glyph glyph-name="Scedilla" unicode="&#x15e;" horiz-adv-x="1034" 
d="M907 1012l-65 -15q-96 279 -289 279q-89 0 -144 -58t-55 -141q0 -82 58.5 -141t197.5 -125q174 -80 266.5 -179.5t92.5 -242.5q0 -150 -98 -260t-261 -141l-43 -47q-16 -21 -11 -36.5t32 -41.5q82 -82 82 -142q0 -67 -66 -119.5t-190 -84.5l-23 53q55 26 89 58.5t34 58.5
q0 34 -47 71q-43 39 -48.5 70t32.5 76l61 69q-12 -4 -39 -4q-105 0 -217 33q-35 11 -77 26.5t-44 16.5q-31 77 -61 346l71 25q12 -41 33 -86.5t55.5 -95.5t75 -89.5t94.5 -65.5t111 -26q93 0 150 59t57 150q0 94 -63 161.5t-187 131.5q-172 82 -263 177t-91 231
q0 172 126.5 285.5t338.5 113.5q133 0 286 -55q7 -63 39 -295z" />
    <glyph glyph-name="scedilla" unicode="&#x15f;" horiz-adv-x="792" 
d="M700 659l-63 -20q-93 211 -217 211q-45 0 -77 -31.5t-32 -81.5q0 -47 37.5 -84t116.5 -71q69 -30 115.5 -56.5t85.5 -62.5t58 -82.5t19 -104.5q0 -116 -74 -188.5t-182 -95.5l-43 -49q-17 -19 -12.5 -35t31.5 -43q82 -74 82 -139q0 -67 -66 -123t-182 -88l-27 59
q56 25 90.5 59t34.5 60q0 28 -47 69q-43 38 -47.5 70t33.5 76l61 69q-14 -2 -35 -2q-67 0 -142.5 23t-111.5 49q-10 28 -20.5 121t-9.5 166l61 4q39 -112 113 -198.5t160 -86.5q50 0 83 33t33 84q0 46 -35 84t-124 82q-107 55 -151 89q-112 89 -112 214t93 208t254 83
q113 0 200 -37q13 -31 29 -113t20 -121z" />
    <glyph glyph-name="Scaron" unicode="&#x160;" horiz-adv-x="1034" 
d="M905 1014l-69 -17q-15 44 -30.5 79.5t-41 74.5t-54.5 65.5t-71 44t-90 17.5q-86 0 -142.5 -57.5t-56.5 -145.5q0 -82 57 -140t197 -128q87 -42 148.5 -82t112.5 -91t76.5 -113t25.5 -136q0 -178 -138.5 -297t-359.5 -119q-109 0 -207 29q-51 14 -125 45q-29 83 -59 348
l72 23q14 -43 34 -88t53 -95.5t71.5 -88.5t91 -63.5t108.5 -25.5q93 0 149 59t56 156q0 86 -59.5 149.5t-184.5 129.5q-86 43 -146 82.5t-110 89.5t-75 110t-25 132q0 173 128 287t341 114q139 0 284 -55q4 -41 18 -138.5t21 -154.5zM805 1726l31 -53q-104 -81 -271 -252
h-61q-132 139 -273 252l35 53q155 -64 269 -120q108 53 270 120z" />
    <glyph glyph-name="scaron" unicode="&#x161;" horiz-adv-x="784" 
d="M692 659l-61 -18q-44 101 -96.5 155t-120.5 54q-41 0 -73 -31.5t-32 -79.5q0 -47 36.5 -84t115.5 -73q69 -30 114.5 -56t85 -61.5t58 -81.5t18.5 -104q0 -96 -56.5 -167.5t-138 -104t-171.5 -32.5q-76 0 -150 22t-108 48q-9 26 -20.5 114.5t-12.5 159.5l61 7
q24 -70 60.5 -128.5t91 -100.5t113.5 -42q50 0 81 32t31 79q0 49 -33.5 88.5t-122.5 81.5q-31 15 -45 22.5t-47 27t-51 34.5t-43.5 40.5t-39 50t-24 58.5t-10.5 70q0 124 93.5 207.5t250.5 83.5q110 0 197 -37q13 -32 29 -113t20 -121zM614 1411l56 -45q-86 -123 -217 -354
h-78q-93 166 -221 354l55 45q36 -28 70 -59.5t74 -70.5t61 -58l56 56t76.5 74t67.5 58z" />
    <glyph glyph-name="uni0162" unicode="&#x162;" horiz-adv-x="1312" 
d="M1190 1382h49q3 -138 23 -397l-74 -4q-37 158 -90 211q-26 28 -71.5 38.5t-135.5 10.5h-94v-969q0 -47 1.5 -74.5t10.5 -51t20 -34.5t37 -20t53 -12.5t78 -7.5v-72h-249l-52 -53q-18 -21 -14.5 -37.5t31.5 -44.5q84 -84 84 -146q0 -70 -68.5 -124.5t-196.5 -88.5l-26 54
q59 27 94 62.5t35 64.5q0 34 -47 69q-44 41 -48.5 73.5t33.5 78.5l78 92h-321v72q48 4 74.5 7.5t51.5 12.5t35 20t19 34.5t10.5 51t1.5 74.5v969h-69q-116 0 -162.5 -13t-73.5 -42q-43 -46 -86 -207h-74q4 68 13.5 208t11.5 195h49q23 -33 46.5 -42t70.5 -9h823q41 0 67 11
t52 40z" />
    <glyph glyph-name="uni0163" unicode="&#x163;" horiz-adv-x="694" 
d="M473 -14l-35 -37q-19 -20 -16 -37t31 -45q42 -42 60.5 -74t18.5 -67q0 -67 -66 -120t-187 -87l-27 51q58 25 90.5 59.5t32.5 63.5q0 33 -45 69q-43 40 -47 72t34 78l58 65q-201 25 -201 256v574h-129l-10 24l57 74h82v150l232 159l28 -12v-297h201q19 -17 15.5 -51.5
t-27.5 -46.5h-189v-506q0 -178 117 -178q49 0 102 24l21 -71l-166 -78q-6 -2 -17.5 -6t-17.5 -6z" />
    <glyph glyph-name="Tcaron" unicode="&#x164;" horiz-adv-x="1312" 
d="M1262 985l-74 -4q-37 158 -90 211q-26 28 -71.5 38.5t-135.5 10.5h-94v-969q0 -47 1.5 -74.5t10.5 -51t20 -34.5t37 -20t53 -12.5t78 -7.5v-72h-667v72q48 4 74.5 7.5t51.5 12.5t35 20t19 34.5t10.5 51t1.5 74.5v969h-69q-116 0 -162.5 -13t-73.5 -42q-43 -46 -86 -207
h-74q4 68 13.5 208t11.5 195h49q23 -33 46.5 -42t70.5 -9h823q41 0 67 11t52 40h49q3 -138 23 -397zM928 1700l30 -53q-100 -78 -270 -252h-61q-131 141 -273 252l35 53q135 -56 268 -121q116 57 271 121z" />
    <glyph glyph-name="tcaron" unicode="&#x165;" horiz-adv-x="694" 
d="M674 76l-166 -78q-61 -23 -84 -23q-122 0 -186 62t-64 196v574h-129l-10 24l57 74h82v150l232 159l28 -12v-297h201q19 -17 15.5 -51.5t-27.5 -46.5h-189v-506q0 -178 117 -178q49 0 102 24zM631 1466q64 0 109.5 -54t45.5 -136q0 -94 -61 -155.5t-158 -88.5l-22 53
q110 58 110 140q0 73 -82 100q-11 4 -20.5 18t-9.5 35q0 39 27.5 63.5t60.5 24.5z" />
    <glyph glyph-name="Tbar" unicode="&#x166;" horiz-adv-x="1304" 
d="M1253 995l-71 -6q-37 157 -84 209q-45 45 -226 45h-79v-518h288v-92h-288v-361q0 -47 1.5 -74.5t10.5 -51t20 -34.5t37 -20t53 -12.5t78 -7.5v-72h-669v72q48 4 74.5 7.5t51.5 12.5t35 20t19 34.5t10.5 51t1.5 74.5v361h-289v92h289v518h-57q-118 0 -168 -13t-74 -42
q-49 -55 -88 -199h-72q4 66 13.5 201.5t11.5 191.5h47q22 -33 46 -42t71 -9h819q41 0 67 11t52 40h47q3 -147 22 -387z" />
    <glyph glyph-name="tbar" unicode="&#x167;" horiz-adv-x="688" 
d="M670 76l-166 -78q-61 -23 -84 -23q-122 0 -186 62t-64 196v226h-135v88h135v256h-129l-12 24l59 78h82v150l231 159l29 -12v-297h203q18 -17 14.5 -53.5t-26.5 -48.5h-191v-256h197v-88h-197v-154q0 -56 12 -95.5t31.5 -57t37 -24.5t36.5 -7q53 0 104 22z" />
    <glyph glyph-name="Utilde" unicode="&#x168;" horiz-adv-x="1492" 
d="M1483 1331v-71q-158 -8 -174 -121q-19 -120 -19 -285v-223q0 -175 -32.5 -300t-114.5 -212q-70 -73 -169.5 -111.5t-209.5 -38.5q-229 0 -363 107q-88 67 -129 184t-41 297v481q0 52 -1.5 83t-9.5 57t-17.5 38.5t-32 22.5t-46 13.5t-65.5 7.5v71h617v-71q-42 -4 -65 -7.5
t-45 -13.5t-31.5 -22.5t-17.5 -38.5t-9.5 -57.5t-1.5 -82.5v-444q0 -233 84 -359t248 -126q180 0 265 132.5t85 393.5v219q0 157 -21 285q-8 56 -52.5 85.5t-145.5 35.5v71h514zM707 1634q47 0 131 -37q83 -34 125 -34q56 0 100 86l61 -31q-36 -112 -83 -156.5t-105 -44.5
q-38 0 -143 43q-64 31 -109 31q-55 0 -102 -90l-62 41q68 192 187 192z" />
    <glyph glyph-name="utilde" unicode="&#x169;" horiz-adv-x="1136" 
d="M1110 115v-66q-141 -19 -375 -74l-16 15v123q-77 -61 -103 -76q-94 -62 -178 -62q-128 0 -198 77.5t-70 213.5v424q0 73 -17 93t-96 40v60q174 8 379 37q-6 -129 -6 -310v-297q0 -93 40.5 -136.5t100.5 -43.5q88 0 148 57v498q0 30 -0.5 45t-6 31t-12 22.5t-23.5 14
t-35.5 12t-53.5 10.5v60q207 10 391 37v-666q0 -82 15 -105.5t71 -29.5zM326 1049l-60 38q35 107 84 161.5t107 54.5q45 0 127 -43q80 -41 118 -41q59 0 103 94l57 -29q-18 -65 -41.5 -110t-48 -67t-45.5 -31t-43 -9q-52 0 -137 45q-69 41 -115 41q-61 0 -106 -104z" />
    <glyph glyph-name="Umacron" unicode="&#x16a;" horiz-adv-x="1492" 
d="M1483 1331v-71q-158 -8 -174 -121q-19 -120 -19 -285v-223q0 -175 -32.5 -300t-114.5 -212q-70 -73 -169.5 -111.5t-209.5 -38.5q-229 0 -363 107q-88 67 -129 184t-41 297v481q0 52 -1.5 83t-9.5 57t-17.5 38.5t-32 22.5t-46 13.5t-65.5 7.5v71h617v-71q-42 -4 -65 -7.5
t-45 -13.5t-31.5 -22.5t-17.5 -38.5t-9.5 -57.5t-1.5 -82.5v-444q0 -233 84 -359t248 -126q180 0 265 132.5t85 393.5v219q0 157 -21 285q-8 56 -52.5 85.5t-145.5 35.5v71h514zM1038 1460h-503v137h503v-137z" />
    <glyph glyph-name="umacron" unicode="&#x16b;" horiz-adv-x="1136" 
d="M1110 115v-66q-141 -19 -375 -74l-16 15v123q-77 -61 -103 -76q-94 -62 -178 -62q-128 0 -198 77.5t-70 213.5v424q0 73 -17 93t-96 40v60q174 8 379 37q-6 -129 -6 -310v-297q0 -93 40.5 -136.5t100.5 -43.5q88 0 148 57v498q0 30 -0.5 45t-6 31t-12 22.5t-23.5 14
t-35.5 12t-53.5 10.5v60q207 10 391 37v-666q0 -82 15 -105.5t71 -29.5zM817 1108h-512v149h512v-149z" />
    <glyph glyph-name="Ubreve" unicode="&#x16c;" horiz-adv-x="1492" 
d="M1483 1331v-71q-158 -8 -174 -121q-19 -120 -19 -285v-223q0 -175 -32.5 -300t-114.5 -212q-70 -73 -169.5 -111.5t-209.5 -38.5q-229 0 -363 107q-88 67 -129 184t-41 297v481q0 52 -1.5 83t-9.5 57t-17.5 38.5t-32 22.5t-46 13.5t-65.5 7.5v71h617v-71q-42 -4 -65 -7.5
t-45 -13.5t-31.5 -22.5t-17.5 -38.5t-9.5 -57.5t-1.5 -82.5v-444q0 -233 84 -359t248 -126q180 0 265 132.5t85 393.5v219q0 157 -21 285q-8 56 -52.5 85.5t-145.5 35.5v71h514zM1016 1686h61q0 -281 -260 -281q-124 0 -192 65.5t-68 215.5h59q15 -65 67.5 -99.5
t133.5 -34.5q170 0 199 134z" />
    <glyph glyph-name="ubreve" unicode="&#x16d;" horiz-adv-x="1136" 
d="M1110 115v-66q-141 -19 -375 -74l-16 15v123q-77 -61 -103 -76q-94 -62 -178 -62q-128 0 -198 77.5t-70 213.5v424q0 73 -17 93t-96 40v60q174 8 379 37q-6 -129 -6 -310v-297q0 -93 40.5 -136.5t100.5 -43.5q88 0 148 57v498q0 30 -0.5 45t-6 31t-12 22.5t-23.5 14
t-35.5 12t-53.5 10.5v60q207 10 391 37v-666q0 -82 15 -105.5t71 -29.5zM745 1352h66q0 -316 -252 -316q-248 0 -248 316h66q17 -76 65 -118t119 -42q72 0 119 42t65 118z" />
    <glyph glyph-name="Uring" unicode="&#x16e;" horiz-adv-x="1492" 
d="M1483 1331v-71q-158 -8 -174 -121q-19 -120 -19 -285v-223q0 -175 -32.5 -300t-114.5 -212q-70 -73 -169.5 -111.5t-209.5 -38.5q-229 0 -363 107q-88 67 -129 184t-41 297v481q0 52 -1.5 83t-9.5 57t-17.5 38.5t-32 22.5t-46 13.5t-65.5 7.5v71h617v-71q-42 -4 -65 -7.5
t-45 -13.5t-31.5 -22.5t-17.5 -38.5t-9.5 -57.5t-1.5 -82.5v-444q0 -233 84 -359t248 -126q180 0 265 132.5t85 393.5v219q0 157 -21 285q-8 56 -52.5 85.5t-145.5 35.5v71h514zM805 1749q77 0 136.5 -50.5t59.5 -131.5q0 -84 -59.5 -136.5t-136.5 -52.5t-135 52.5
t-58 136.5q0 81 58 131.5t135 50.5zM807 1671q-40 0 -67 -30t-27 -74q0 -47 27 -78t67 -31q41 0 66.5 30.5t25.5 76.5t-25.5 76t-66.5 30z" />
    <glyph glyph-name="uring" unicode="&#x16f;" horiz-adv-x="1136" 
d="M1110 115v-66q-141 -19 -375 -74l-16 15v123q-77 -61 -103 -76q-94 -62 -178 -62q-128 0 -198 77.5t-70 213.5v424q0 73 -17 93t-96 40v60q174 8 379 37q-6 -129 -6 -310v-297q0 -93 40.5 -136.5t100.5 -43.5q88 0 148 57v498q0 30 -0.5 45t-6 31t-12 22.5t-23.5 14
t-35.5 12t-53.5 10.5v60q207 10 391 37v-666q0 -82 15 -105.5t71 -29.5zM567 1022q-78 0 -136 52t-58 136q0 83 58.5 134t137.5 51q77 0 136 -51.5t59 -133.5q0 -84 -59.5 -136t-137.5 -52zM571 1102q40 0 64 29.5t24 78.5q0 45 -24.5 74t-65.5 29q-40 0 -67 -29t-27 -74
q0 -49 27 -78.5t69 -29.5z" />
    <glyph glyph-name="Uhungarumlaut" unicode="&#x170;" horiz-adv-x="1492" 
d="M1483 1331v-71q-158 -8 -174 -121q-19 -120 -19 -285v-223q0 -175 -32.5 -300t-114.5 -212q-70 -73 -169.5 -111.5t-209.5 -38.5q-229 0 -363 107q-88 67 -129 184t-41 297v481q0 52 -1.5 83t-9.5 57t-17.5 38.5t-32 22.5t-46 13.5t-65.5 7.5v71h617v-71q-42 -4 -65 -7.5
t-45 -13.5t-31.5 -22.5t-17.5 -38.5t-9.5 -57.5t-1.5 -82.5v-444q0 -233 84 -359t248 -126q180 0 265 132.5t85 393.5v219q0 157 -21 285q-8 56 -52.5 85.5t-145.5 35.5v71h514zM1167 1638l-217 -237l-65 20q16 48 44.5 137.5t39.5 122.5q38 9 109 -1.5t87 -24.5zM842 1638
l-215 -237l-66 20q28 84 82 260q38 9 110.5 -1.5t88.5 -24.5v-17z" />
    <glyph glyph-name="uhungarumlaut" unicode="&#x171;" horiz-adv-x="1136" 
d="M1110 115v-66q-141 -19 -375 -74l-16 15v123q-77 -61 -103 -76q-94 -62 -178 -62q-128 0 -198 77.5t-70 213.5v424q0 73 -17 93t-96 40v60q174 8 379 37q-6 -129 -6 -310v-297q0 -93 40.5 -136.5t100.5 -43.5q88 0 148 57v498q0 30 -0.5 45t-6 31t-12 22.5t-23.5 14
t-35.5 12t-53.5 10.5v60q207 10 391 37v-666q0 -82 15 -105.5t71 -29.5zM410 999l-62 23q11 46 27 121t31 146.5t16 76.5q15 10 92 20t104 5l11 -23zM721 999l-62 23q17 71 44.5 204t29.5 140q17 10 94.5 20t102.5 5l12 -23z" />
    <glyph glyph-name="Uogonek" unicode="&#x172;" horiz-adv-x="1492" 
d="M1483 1331v-71q-158 -8 -174 -121q-19 -120 -19 -285v-223q0 -175 -32.5 -300t-114.5 -212q-88 -92 -238 -129q-125 -131 -125 -240q0 -47 30 -68.5t73 -21.5q45 0 90 18l16 -59l-125 -74q-34 -20 -88 -20q-79 0 -122.5 45t-43.5 108q0 136 199 297q-258 -17 -408 101
q-88 67 -129 184t-41 297v481q0 52 -1.5 83t-9.5 57t-17.5 38.5t-32 22.5t-46 13.5t-65.5 7.5v71h617v-71q-42 -4 -65 -7.5t-45 -13.5t-31.5 -22.5t-17.5 -38.5t-9.5 -57.5t-1.5 -82.5v-442q0 -233 82.5 -358t247.5 -125q180 0 266 132.5t86 393.5v215q0 169 -19 285
q-9 57 -54.5 86t-147.5 35v71h516z" />
    <glyph glyph-name="uogonek" unicode="&#x173;" horiz-adv-x="1136" 
d="M1110 115v-66q-45 -5 -160 -26q-71 -54 -117.5 -132.5t-46.5 -136.5q0 -47 29.5 -68.5t71.5 -21.5q38 0 94 23l16 -60l-137 -76q-40 -24 -78 -24q-84 0 -128 43.5t-44 112.5q0 80 68.5 169.5t148.5 143.5q-54 -11 -92 -21l-16 15v123q-77 -61 -103 -76q-94 -62 -178 -62
q-128 0 -198 77.5t-70 213.5v424q0 73 -17 93t-96 40v60q174 8 379 37q-6 -129 -6 -310v-297q0 -93 40.5 -136.5t100.5 -43.5q88 0 148 57v498q0 30 -0.5 45t-6 31t-12 22.5t-23.5 14t-35.5 12t-53.5 10.5v60q207 10 391 37v-666q0 -82 15 -105.5t71 -29.5z" />
    <glyph glyph-name="Wcircumflex" unicode="&#x174;" horiz-adv-x="2004" 
d="M1985 1331v-71q-55 -9 -85.5 -20t-57 -35.5t-44.5 -62t-39 -104.5q-132 -367 -340 -1061h-106q-155 427 -334 910h-4q-212 -617 -307 -910h-109q-247 820 -328 1076q-25 82 -49 122t-57.5 58t-97.5 27v71h606v-71q-112 -13 -134 -44t5 -108q122 -432 209 -705h4
q208 630 295 916h98q236 -638 344 -924h4q107 337 193 690q17 60 11.5 96.5t-40.5 53.5t-119 25v71h482zM1362 1438l-33 -54q-67 26 -270 125q-179 -90 -271 -125l-30 54q101 83 270 252h62q109 -114 272 -252z" />
    <glyph glyph-name="wcircumflex" unicode="&#x175;" horiz-adv-x="1398" 
d="M1432 905v-65q-72 -12 -97.5 -35.5t-58.5 -104.5q-78 -196 -262 -723h-78q-34 82 -116 276t-124 296q-45 -109 -123 -308.5t-104 -263.5h-78q-47 143 -133 398.5t-113 335.5q-27 75 -51.5 98.5t-87.5 30.5v65h506v-65q-87 -13 -106.5 -33.5t-2.5 -73.5q11 -35 121 -399h4
q32 79 67 170.5t78 208.5t68 182h80q85 -215 232 -565h4q28 82 65 205t49 184q11 38 5.5 62t-32.5 37t-91 22v65h379zM1022 1036l-55 -45q-35 28 -69.5 60t-74 71.5t-59.5 57.5q-20 -18 -59.5 -58t-74 -72t-69.5 -59l-53 45q91 136 217 355h76q107 -189 221 -355z" />
    <glyph glyph-name="Ycircumflex" unicode="&#x176;" horiz-adv-x="1341" 
d="M1323 1331v-71q-66 -7 -107 -25.5t-70 -50.5t-69 -97q-121 -193 -229 -401q-23 -43 -30 -69t-7 -72v-262q0 -50 1.5 -79t10 -54.5t19 -36.5t36.5 -21t53.5 -14t78.5 -8v-70h-666v70q48 4 75 7.5t52 13.5t35.5 21.5t19 37t10 54.5t1.5 79v227q0 35 -5.5 56t-21.5 55
q-65 134 -254 464q-56 100 -96.5 131.5t-126.5 43.5v71h585v-71q-96 -13 -112.5 -38.5t16.5 -80.5q7 -13 234 -445q10 20 64.5 125t90.5 179t58 130q30 61 8.5 88.5t-129.5 41.5v71h475zM1016 1454l-35 -53q-42 16 -87 37t-98.5 47.5t-82.5 40.5q-20 -10 -63.5 -31
t-70.5 -34t-65.5 -30t-71.5 -30l-32 53q102 82 272 252h61q118 -124 273 -252z" />
    <glyph glyph-name="ycircumflex" unicode="&#x177;" horiz-adv-x="952" 
d="M989 905v-65q-73 -12 -102 -38t-68 -110q-18 -38 -43.5 -97t-48.5 -115t-66.5 -161.5t-78.5 -189.5q-139 -337 -215 -573q-17 -56 -76 -56q-46 0 -95 38.5t-49 90.5q0 24 12.5 42t43.5 38q62 33 100.5 66t67.5 80q30 59 39 84q12 39 -9 96q-167 468 -258 678
q-29 68 -58 92.5t-99 34.5v65h508v-65q-68 -12 -83 -28.5t1 -66.5l153 -454q71 174 154 436q17 51 -3.5 75.5t-94.5 37.5v65h368zM776 1036l-57 -45q-35 28 -69.5 60t-74 71.5t-59.5 57.5q-21 -20 -59.5 -58.5t-73 -71t-68.5 -59.5l-55 45q91 136 217 355h76
q97 -173 223 -355z" />
    <glyph glyph-name="Ydieresis" unicode="&#x178;" horiz-adv-x="1341" 
d="M1323 1331v-71q-66 -7 -107 -25.5t-70 -50.5t-69 -97q-121 -193 -229 -401q-23 -43 -30 -69t-7 -72v-262q0 -50 1.5 -79t10 -54.5t19 -36.5t36.5 -21t53.5 -14t78.5 -8v-70h-666v70q48 4 75 7.5t52 13.5t35.5 21.5t19 37t10 54.5t1.5 79v227q0 35 -5.5 56t-21.5 55
q-65 134 -254 464q-56 100 -96.5 131.5t-126.5 43.5v71h585v-71q-96 -13 -112.5 -38.5t16.5 -80.5q7 -13 234 -445q10 20 64.5 125t90.5 179t58 130q30 61 8.5 88.5t-129.5 41.5v71h475zM918 1696q60 0 99.5 -39t39.5 -98q0 -56 -40 -96t-99 -40q-56 0 -97 40.5t-41 95.5
q0 58 41 97.5t97 39.5zM487 1696q59 0 99.5 -39.5t40.5 -97.5q0 -56 -41 -96t-99 -40q-56 0 -96.5 40.5t-40.5 95.5q0 58 40.5 97.5t96.5 39.5z" />
    <glyph glyph-name="Zacute" unicode="&#x179;" horiz-adv-x="1267" 
d="M1174 395l69 -16q-45 -283 -76 -379h-1085l-25 35q266 400 783 1204h-258q-101 0 -159 -9t-80.5 -22.5t-41.5 -40.5q-50 -68 -80 -194l-69 2q3 85 12.5 222.5t11.5 184.5h53q22 -35 43.5 -43t73.5 -8h834l16 -31q-525 -812 -766 -1196q102 -12 254 -12q290 0 363 68
q38 36 66.5 89t60.5 146zM1028 1546l-8 -24l-422 -123l-29 57q137 98 355 250q28 -11 64 -65.5t40 -94.5z" />
    <glyph glyph-name="zacute" unicode="&#x17a;" horiz-adv-x="911" 
d="M840 311l59 -28q-14 -41 -35 -105.5t-35.5 -107t-25.5 -70.5h-727l-27 33q136 217 463 784h-109q-102 0 -151.5 -29t-93.5 -116l-35 -68l-64 27q49 158 84 319h45q12 -25 39 -35t86 -10h502l19 -28q-70 -119 -143 -246t-164.5 -289t-143.5 -252h131q112 0 173.5 32.5
t117.5 131.5zM463 1001l-64 27q16 50 56 185.5t45 152.5q15 10 106 19.5t117 3.5l12 -21z" />
    <glyph glyph-name="Zdotaccent" unicode="&#x17b;" horiz-adv-x="1267" 
d="M1174 395l69 -16q-45 -283 -76 -379h-1085l-25 35q266 400 783 1204h-258q-101 0 -159 -9t-80.5 -22.5t-41.5 -40.5q-50 -68 -80 -194l-69 2q3 85 12.5 222.5t11.5 184.5h53q22 -35 43.5 -43t73.5 -8h834l16 -31q-525 -812 -766 -1196q102 -12 254 -12q290 0 363 68
q38 36 66.5 89t60.5 146zM676 1726q63 0 105 -41.5t42 -101.5q0 -59 -42.5 -101t-104.5 -42q-57 0 -100.5 42.5t-43.5 100.5q0 59 43 101t101 42z" />
    <glyph glyph-name="zdotaccent" unicode="&#x17c;" horiz-adv-x="911" 
d="M840 311l59 -28q-14 -41 -35 -105.5t-35.5 -107t-25.5 -70.5h-727l-27 33q136 217 463 784h-109q-102 0 -151.5 -29t-93.5 -116l-35 -68l-64 27q49 158 84 319h45q12 -25 39 -35t86 -10h502l19 -28q-70 -119 -143 -246t-164.5 -289t-143.5 -252h131q112 0 173.5 32.5
t117.5 131.5zM477 1059q-57 0 -100 42.5t-43 100.5q0 61 43 102.5t102 41.5q62 0 104 -41.5t42 -102.5q0 -59 -43 -101t-105 -42z" />
    <glyph glyph-name="Zcaron" unicode="&#x17d;" horiz-adv-x="1267" 
d="M1174 395l69 -16q-45 -283 -76 -379h-1085l-25 35q266 400 783 1204h-258q-101 0 -159 -9t-80.5 -22.5t-41.5 -40.5q-50 -68 -80 -194l-69 2q3 85 12.5 222.5t11.5 184.5h53q22 -35 43.5 -43t73.5 -8h834l16 -31q-525 -812 -766 -1196q102 -12 254 -12q290 0 363 68
q38 36 66.5 89t60.5 146zM940 1700l31 -53q-104 -81 -271 -252h-63q-119 131 -270 252l32 53q155 -64 271 -121q137 67 270 121z" />
    <glyph glyph-name="zcaron" unicode="&#x17e;" horiz-adv-x="911" 
d="M840 311l59 -28q-14 -41 -35 -105.5t-35.5 -107t-25.5 -70.5h-727l-27 33q136 217 463 784h-109q-102 0 -151.5 -29t-93.5 -116l-35 -68l-64 27q49 158 84 319h45q12 -25 39 -35t86 -10h502l19 -28q-70 -119 -143 -246t-164.5 -289t-143.5 -252h131q112 0 173.5 32.5
t117.5 131.5zM668 1411l55 -45q-86 -123 -217 -354h-78q-93 166 -221 354l55 45q36 -28 70 -59.5t74 -70.5t61 -58q15 14 45.5 44t50 49.5t49 46t56.5 48.5z" />
    <glyph glyph-name="longs" unicode="&#x17f;" horiz-adv-x="606" 
d="M109 905h81v35q0 55 25 139q47 144 178 250q110 93 236 111q123 -5 182 -64q42 -39 16 -92q-13 -39 -61 -74q-38 -30 -70 -2q-41 44 -90.5 77.5t-87.5 33.5q-29 0 -45 -19t-24 -61q-4 -53 -3.5 -86t3 -134t2.5 -175v-619q0 -36 1 -57t7 -39t12 -26.5t23 -16.5t33 -11.5
t48 -8.5v-66h-507v66q46 7 66.5 12.5t35.5 23t17.5 42t2.5 75.5v588h-133l-8 24z" />
    <glyph glyph-name="florin" unicode="&#x192;" horiz-adv-x="1024" 
d="M334 770l14 76q23 121 73.5 207.5t139.5 158.5q152 123 285 123q51 0 98.5 -30t44.5 -74q-1 -36 -32 -75.5t-58 -41.5q-14 0 -42.5 28t-62.5 55.5t-61 27.5q-34 0 -53 -54q-27 -80 -68 -401h219v-94h-233l-45 -291q-18 -118 -47 -211.5t-57.5 -151t-72 -107t-73.5 -73.5
t-80 -57q-101 -68 -194 -68q-47 0 -86 28t-39 67q0 41 36.5 79.5t65.5 38.5q10 0 36 -22.5t57 -45t55 -22.5q37 0 49 45q23 80 47 289l69 502h-180v94h195z" />
    <glyph glyph-name="Ohorn" unicode="&#x1a0;" horiz-adv-x="1568" 
d="M766 1276q-158 0 -262.5 -157t-104.5 -417q0 -177 49 -322.5t145.5 -235t223.5 -89.5q153 0 252.5 148t99.5 420q0 302 -111 477.5t-292 175.5zM807 1360q231 0 407 -129q40 -21 89 -21q53 0 79.5 23t26.5 51q0 23 -15.5 33t-58.5 16q-19 4 -39 23t-20 49q0 41 30 68.5
t74 27.5q63 0 103.5 -44t40.5 -124q0 -85 -58 -135.5t-155 -56.5q81 -87 126.5 -205t45.5 -256q0 -162 -55.5 -297t-151.5 -225t-224 -139.5t-272 -49.5q-151 0 -281 53.5t-220.5 146.5t-141.5 221t-51 274q0 134 47.5 257.5t135.5 222t227.5 157.5t310.5 59z" />
    <glyph glyph-name="ohorn" unicode="&#x1a1;" horiz-adv-x="1103" 
d="M520 850q-69 0 -117.5 -88.5t-48.5 -255.5q0 -126 25 -228t73 -162.5t111 -60.5q33 0 58.5 13.5t50 49t38 109t13.5 181.5q0 214 -52.5 328t-150.5 114zM551 930q135 0 258 -68q37 -18 78 -18q50 0 76 17t26 38t-13 31t-48 18q-12 3 -23 8.5t-23 21.5t-12 38
q0 38 30.5 64t74.5 26q52 0 86.5 -39t34.5 -111q0 -76 -53.5 -122.5t-143.5 -55.5q55 -59 86 -140t31 -169q0 -119 -40 -215.5t-107.5 -156t-151.5 -91t-176 -31.5q-94 0 -173.5 26t-135 70.5t-95 103.5t-58 124t-18.5 133q0 96 29 178.5t77.5 140t112 99t132.5 61t139 19.5
z" />
    <glyph glyph-name="Uhorn" unicode="&#x1af;" horiz-adv-x="1492" 
d="M969 1260v71h374q61 0 97.5 18.5t36.5 47.5q0 39 -72 57q-59 14 -59 72q0 41 28.5 67.5t71.5 26.5q61 0 99 -43.5t38 -122.5q0 -71 -40 -120t-93 -66q-75 -25 -104.5 -52t-38.5 -83q-17 -104 -17 -279v-223q0 -175 -32.5 -300t-114.5 -212q-70 -73 -169.5 -111.5
t-209.5 -38.5q-229 0 -363 107q-88 67 -129 184t-41 297v481q0 52 -1.5 83t-9.5 57t-17.5 38.5t-32 22.5t-46 13.5t-65.5 7.5v71h617v-71q-42 -4 -65 -7.5t-45 -13.5t-31.5 -22.5t-17.5 -38.5t-9.5 -57.5t-1.5 -82.5v-444q0 -233 84 -359t248 -126q180 0 265 132.5t85 393.5
v219q0 157 -21 285q-8 56 -52.5 85.5t-145.5 35.5z" />
    <glyph glyph-name="uhorn" unicode="&#x1b0;" horiz-adv-x="1165" 
d="M1110 115v-66q-149 -20 -375 -74l-16 15v123q-77 -61 -103 -76q-94 -62 -178 -62q-128 0 -198 77.5t-70 213.5v424q0 73 -17 93.5t-96 39.5v60q174 8 379 37q-6 -129 -6 -310v-297q0 -93 40.5 -136.5t100.5 -43.5q88 0 148 57v498q0 29 -0.5 42.5t-5 30.5t-11.5 23.5
t-23 15t-36.5 13t-54.5 10.5v60q276 11 356 28q54 10 81.5 26.5t27.5 45.5q0 41 -68 49q-20 4 -38.5 21t-18.5 49q0 39 28.5 65.5t73.5 26.5q54 0 90.5 -39.5t36.5 -114.5q0 -42 -17 -76.5t-45 -57t-56.5 -36.5t-59.5 -22v-594q0 -82 15 -105.5t71 -29.5z" />
    <glyph glyph-name="Aringacute" unicode="&#x1fa;" horiz-adv-x="1445" 
d="M1407 0h-586v72q89 13 107.5 39.5t-8.5 93.5q-26 79 -82 231h-394q-38 -104 -73 -219q-27 -73 -5 -102.5t130 -42.5v-72h-459l2 72q71 8 106 25.5t60 56t61 129.5l420 1052l105 27q373 -1020 391 -1067q23 -58 38.5 -91.5t33 -59.5t39.5 -39t47.5 -20.5t66.5 -12.5v-72z
M799 545l-152 442h-6q-12 -30 -162 -442h320zM723 1767q77 0 136 -50.5t59 -131.5q0 -84 -59 -136t-136 -52q-78 0 -136.5 52t-58.5 136q0 81 58.5 131.5t136.5 50.5zM725 1690q-41 0 -68.5 -30.5t-27.5 -74.5q0 -47 27.5 -77.5t68.5 -30.5t65.5 30t24.5 76q0 47 -24.5 77
t-65.5 30zM1034 1937l-6 -24l-422 -123l-31 57q298 210 355 250q29 -10 64 -65t40 -95z" />
    <glyph glyph-name="aringacute" unicode="&#x1fb;" horiz-adv-x="954" 
d="M952 92l-223 -117q-79 0 -125 43q-34 30 -53 76q-11 -7 -33.5 -22t-36.5 -24t-34 -22t-34 -20.5t-29 -15.5t-26.5 -11.5t-19.5 -3.5q-124 0 -200.5 80.5t-76.5 182.5q0 77 37 121.5t119 74.5q27 10 92.5 33.5t101 36.5t76 32t56.5 33v62q0 95 -33.5 147.5t-91.5 52.5
q-42 0 -68 -36q-33 -38 -59 -142q-18 -69 -86 -69q-42 0 -84.5 32t-42.5 70q0 26 17 48t55 50q67 46 162.5 89t176.5 57q121 0 201 -60q62 -48 84.5 -111.5t22.5 -158.5v-338q0 -121 65 -121q21 0 70 17zM543 162v327q-5 -3 -113 -63q-50 -26 -73 -57.5t-23 -81.5
q0 -78 39.5 -118t83.5 -40q40 0 86 33zM477 1022q-79 0 -137.5 52t-58.5 136q0 83 59 134t139 51q75 0 135 -51.5t60 -133.5q0 -84 -60 -136t-137 -52zM479 1102q41 0 65.5 29t24.5 79q0 45 -25 74t-67 29q-39 0 -65.5 -29t-26.5 -74q0 -49 26.5 -78.5t67.5 -29.5zM485 1448
l-65 27q15 47 55 181.5t47 153.5q15 12 105.5 21.5t117.5 3.5l11 -23z" />
    <glyph glyph-name="AEacute" unicode="&#x1fc;" horiz-adv-x="1806" 
d="M1716 358l70 -18q-35 -189 -76 -340h-1026v72q45 4 71.5 8t49.5 15t33.5 24t18 39.5t9.5 57t2 81.5v301h-344q-42 -84 -71.5 -146.5t-57.5 -126.5t-39 -87q-39 -89 -18 -120t133 -46v-72h-500v72q97 12 147 50t107 142q200 367 463 887q25 49 18.5 68.5t-53.5 25.5
l-123 15v71h1133q10 -182 20 -301l-71 -10q-35 127 -80 172q-46 49 -207 49h-106q-55 0 -68.5 -11t-13.5 -61v-475h133q135 0 174.5 25t56.5 127h76v-412h-76q-6 40 -12 65t-19 44.5t-26 29t-40.5 15.5t-55.5 7t-78 1l-133 2v-313q0 -90 10 -127t41 -52q42 -16 184 -16
q165 0 223 66q73 77 121 202zM868 696v529q-24 0 -45 -8q-28 -58 -78 -158t-91 -184.5t-85 -178.5h299zM1452 1546l-8 -24l-420 -123l-31 57q297 210 355 250q28 -11 64 -65.5t40 -94.5z" />
    <glyph glyph-name="aeacute" unicode="&#x1fd;" horiz-adv-x="1374" 
d="M1290 244l39 -51q-43 -63 -97 -108.5t-104 -68t-89 -32t-70 -9.5q-112 0 -197.5 45.5t-136.5 126.5l-62 -51q-61 -50 -127 -85.5t-110 -35.5q-121 0 -197 79t-76 177q0 78 37 126t117 79q20 7 88 31.5t104 38t80.5 33.5t65.5 34v52q0 91 -41 147.5t-92 56.5
q-43 0 -70 -34q-27 -32 -55 -138q-18 -67 -86 -67q-41 0 -84 30t-43 66q0 49 74 100q163 108 336 144q94 0 165 -51q23 -15 44 -37t28 -41q58 59 133 94t140 35q142 0 239.5 -101t97.5 -231q0 -38 -11 -54.5t-44 -23.5q-26 -5 -189 -15t-313 -16q0 -161 79.5 -246t203.5 -85
q108 0 223 86zM958 844q-61 0 -107 -70t-56 -192q233 5 247 6q27 2 38.5 12t11.5 39q0 80 -37.5 142.5t-96.5 62.5zM461 137q35 0 73.5 19t65.5 53q-47 111 -47 287q-20 -11 -62.5 -33t-62.5 -33q-48 -28 -71 -60.5t-23 -82.5q0 -71 39.5 -110.5t87.5 -39.5zM702 1001
l-63 27q16 50 55.5 185.5t44.5 152.5q15 10 106.5 19.5t117.5 3.5l12 -21z" />
    <glyph glyph-name="Oslashacute" unicode="&#x1fe;" horiz-adv-x="1579" 
d="M1335 1380l-102 -157q118 -95 189 -234t71 -303q0 -159 -55 -294t-151 -227t-228 -144t-283 -52q-198 0 -352 92l-117 -167l-63 53l108 157q-123 94 -194.5 240.5t-71.5 317.5q0 100 28 198t87 189t142 160.5t203 111t261 41.5q200 0 356 -90l105 155zM485 289l570 829
q-105 158 -281 158q-163 0 -274 -159t-111 -427q0 -107 26 -215t70 -186zM1102 1042l-567 -833q47 -73 121 -113.5t157 -40.5q164 0 269.5 150.5t105.5 431.5q0 243 -86 405zM1102 1559l-8 -23l-422 -123l-29 55q168 120 354 250q28 -11 64.5 -64.5t40.5 -94.5z" />
    <glyph glyph-name="oslashacute" unicode="&#x1ff;" horiz-adv-x="1087" 
d="M907 936l-67 -100q92 -64 139 -159t47 -204q0 -120 -40.5 -217t-109 -157t-154.5 -92t-181 -32q-128 0 -240 56l-74 -105l-59 47l72 103q-88 64 -133.5 159t-45.5 197q0 117 44.5 214t116.5 157.5t158.5 93.5t174.5 33q123 0 223 -53l72 102zM369 260l311 479
q-56 107 -154 107q-32 0 -64 -19.5t-62 -59t-49 -113.5t-19 -171q0 -122 37 -223zM721 662l-315 -484q59 -121 155 -121q29 0 54 8.5t51.5 33t45.5 64.5t31.5 108.5t12.5 158.5q0 136 -35 232zM528 1001l-63 27q16 50 55.5 185.5t44.5 152.5q15 10 106 19.5t117 3.5l13 -21z
" />
    <glyph glyph-name="Scommaaccent" unicode="&#x218;" horiz-adv-x="1034" 
d="M905 1014l-69 -17q-15 44 -30.5 79.5t-41 74.5t-54.5 65.5t-71 44t-90 17.5q-86 0 -142.5 -57.5t-56.5 -145.5q0 -82 57 -140t197 -128q87 -42 148.5 -82t112.5 -91t76.5 -113t25.5 -136q0 -178 -138.5 -297t-359.5 -119q-109 0 -207 29q-51 14 -125 45q-29 83 -59 348
l72 23q14 -43 34 -88t53 -95.5t71.5 -88.5t91 -63.5t108.5 -25.5q93 0 149 59t56 156q0 86 -59.5 149.5t-184.5 129.5q-86 43 -146 82.5t-110 89.5t-75 110t-25 132q0 173 128 287t341 114q139 0 284 -55q4 -41 18 -138.5t21 -154.5zM504 -111q71 0 124.5 -54t53.5 -136
q0 -95 -68.5 -155t-181.5 -89l-22 53q131 63 131 142q0 73 -103 100q-32 9 -32 53q0 40 29.5 63t68.5 23z" />
    <glyph glyph-name="scommaaccent" unicode="&#x219;" horiz-adv-x="784" 
d="M692 659l-61 -18q-44 101 -96.5 155t-120.5 54q-41 0 -73 -31.5t-32 -79.5q0 -47 36.5 -84t115.5 -73q69 -30 114.5 -56t85 -61.5t58 -81.5t18.5 -104q0 -96 -56.5 -167.5t-138 -104t-171.5 -32.5q-76 0 -150 22t-108 48q-9 26 -20.5 114.5t-12.5 159.5l61 7
q24 -70 60.5 -128.5t91 -100.5t113.5 -42q50 0 81 32t31 79q0 49 -33.5 88.5t-122.5 81.5q-31 15 -45 22.5t-47 27t-51 34.5t-43.5 40.5t-39 50t-24 58.5t-10.5 70q0 124 93.5 207.5t250.5 83.5q110 0 197 -37q13 -32 29 -113t20 -121zM381 -96q71 0 123.5 -54t52.5 -137
q0 -95 -68 -154.5t-182 -88.5l-20 55q131 61 131 139q0 73 -105 100q-11 4 -20.5 18t-9.5 36q0 40 29.5 63t68.5 23z" />
    <glyph glyph-name="uni021A" unicode="&#x21a;" horiz-adv-x="1312" 
d="M1262 985l-74 -4q-37 158 -90 211q-26 28 -71.5 38.5t-135.5 10.5h-94v-969q0 -47 1.5 -74.5t10.5 -51t20 -34.5t37 -20t53 -12.5t78 -7.5v-72h-667v72q48 4 74.5 7.5t51.5 12.5t35 20t19 34.5t10.5 51t1.5 74.5v969h-69q-116 0 -162.5 -13t-73.5 -42q-43 -46 -86 -207
h-74q4 68 13.5 208t11.5 195h49q23 -33 46.5 -42t70.5 -9h823q41 0 67 11t52 40h49q3 -138 23 -397zM635 -74q71 0 124.5 -54t53.5 -136q0 -95 -69 -155t-183 -89l-20 53q131 63 131 142q0 73 -105 100q-30 10 -30 53q0 40 29.5 63t68.5 23z" />
    <glyph glyph-name="uni021B" unicode="&#x21b;" horiz-adv-x="694" 
d="M674 76l-166 -78q-61 -23 -84 -23q-122 0 -186 62t-64 196v574h-129l-10 24l57 74h82v150l232 159l28 -12v-297h201q19 -17 15.5 -51.5t-27.5 -46.5h-189v-506q0 -178 117 -178q49 0 102 24zM362 -98q71 0 124 -55t53 -136q0 -95 -69 -155.5t-181 -87.5l-21 53
q131 64 131 141q0 72 -104 98q-12 3 -21.5 17.5t-9.5 36.5q0 40 30 64t68 24z" />
    <glyph glyph-name="uni021C" unicode="&#x21c;" horiz-adv-x="1110" 
d="M254 530l-29 82q224 85 321 175t97 231q0 114 -57 181t-140 67q-92 0 -159.5 -77t-120.5 -228l-78 14q35 182 49 303q29 8 92.5 27t99.5 28t94.5 18t115.5 9q113 0 202 -34t141.5 -99.5t53.5 -151.5q0 -187 -266 -332v-4q160 -29 261 -128.5t101 -252.5
q0 -154 -102 -284.5t-287.5 -217.5t-425.5 -114l-147 108l22 52q137 -35 221 -35q180 0 298 104.5t118 288.5q0 66 -17.5 120.5t-45.5 90.5t-65 60.5t-73.5 35.5t-72.5 11q-68 0 -201 -48z" />
    <glyph glyph-name="uni021D" unicode="&#x21d;" horiz-adv-x="831" 
d="M143 215l-24 68q168 68 237.5 141.5t69.5 167.5q0 85 -42 128.5t-108 43.5q-48 0 -95 -25.5t-111 -81.5l-50 54q175 219 369 219q127 0 213 -70t86 -196q0 -104 -113 -193q-27 -24 -79 -53v-6q121 -29 200.5 -113.5t79.5 -206.5q0 -137 -89 -255.5t-238.5 -194.5
t-333.5 -101l-119 86l20 47q82 -20 144 -20q151 0 243.5 91t92.5 257q0 65 -18.5 114t-49 75.5t-63 39.5t-66.5 13q-65 0 -156 -29z" />
    <glyph glyph-name="uni0232" unicode="&#x232;" horiz-adv-x="1341" 
d="M1323 1331v-71q-66 -7 -107 -25.5t-70 -50.5t-69 -97q-121 -193 -229 -401q-23 -43 -30 -69t-7 -72v-262q0 -50 1.5 -79t10 -54.5t19 -36.5t36.5 -21t53.5 -14t78.5 -8v-70h-666v70q48 4 75 7.5t52 13.5t35.5 21.5t19 37t10 54.5t1.5 79v227q0 35 -5.5 56t-21.5 55
q-65 134 -254 464q-56 100 -96.5 131.5t-126.5 43.5v71h585v-71q-96 -13 -112.5 -38.5t16.5 -80.5q7 -13 234 -445q10 20 64.5 125t90.5 179t58 130q30 61 8.5 88.5t-129.5 41.5v71h475zM975 1460h-502v137h502v-137z" />
    <glyph glyph-name="uni0233" unicode="&#x233;" horiz-adv-x="952" 
d="M989 905v-65q-73 -12 -102 -38t-68 -110q-18 -38 -43.5 -97t-48.5 -115t-66.5 -161.5t-78.5 -189.5q-139 -337 -215 -573q-17 -56 -76 -56q-46 0 -95 38.5t-49 90.5q0 24 12.5 42t43.5 38q62 33 100.5 66t67.5 80q30 59 39 84q12 39 -9 96q-167 468 -258 678
q-29 68 -58 92.5t-99 34.5v65h508v-65q-68 -12 -83 -28.5t1 -66.5l153 -454q71 174 154 436q17 51 -3.5 75.5t-94.5 37.5v65h368zM780 1108h-512v149h512v-149z" />
    <glyph glyph-name="uni0237" unicode="&#x237;" horiz-adv-x="589" 
d="M63 795v61q150 17 388 74v-666q0 -115 -13 -187t-45 -145q-53 -130 -143.5 -247.5t-140.5 -153.5q-42 -31 -72 -31q-25 0 -53.5 33.5t-28.5 79.5q0 25 13.5 40t35.5 15q133 3 154 41q18 37 24 146q8 242 8 385v385q0 39 -1 62.5t-7.5 43t-12.5 28t-23.5 16.5t-33 11.5
t-49.5 8.5z" />
    <glyph glyph-name="circumflex" unicode="&#x2c6;" 
d="M668 1036l-58 -45q-35 28 -69.5 60.5t-73.5 71t-59 57.5q-21 -20 -59.5 -58.5t-73 -71t-68.5 -59.5l-55 45q91 136 217 355h75q93 -164 224 -355z" />
    <glyph glyph-name="caron" unicode="&#x2c7;" 
d="M612 1411l56 -45q-86 -123 -217 -354h-78q-93 166 -221 354l55 45q36 -28 70 -59.5t74 -70.5t61 -58l56 56t76.5 74t67.5 58z" />
    <glyph glyph-name="uni02C9" unicode="&#x2c9;" 
d="M666 1108h-512v149h512v-149z" />
    <glyph glyph-name="breve" unicode="&#x2d8;" 
d="M594 1352h65q0 -316 -251 -316q-248 0 -248 316h65q17 -76 65.5 -118t119.5 -42q72 0 119 42t65 118z" />
    <glyph glyph-name="dotaccent" unicode="&#x2d9;" 
d="M408 1059q-57 0 -100.5 42.5t-43.5 100.5q0 61 43.5 102.5t102.5 41.5q62 0 103.5 -41.5t41.5 -102.5q0 -59 -42.5 -101t-104.5 -42z" />
    <glyph glyph-name="ring" unicode="&#x2da;" 
d="M410 1022q-79 0 -138 52t-59 136q0 83 59.5 134t139.5 51q76 0 135 -51.5t59 -133.5q0 -84 -59 -136t-137 -52zM414 1102q40 0 64 29.5t24 78.5q0 45 -24.5 74t-65.5 29q-40 0 -67.5 -29t-27.5 -74q0 -49 27.5 -78.5t69.5 -29.5z" />
    <glyph glyph-name="ogonek" unicode="&#x2db;" 
d="M586 -381l-103 -61q-36 -23 -77 -23q-79 0 -126 47.5t-47 110.5q0 32 13.5 71t27 65.5t44 69.5t39.5 54t38 47h78q-30 -50 -56 -119.5t-26 -122.5q0 -50 27.5 -75t68.5 -25q37 0 82 20z" />
    <glyph glyph-name="tilde" unicode="&#x2dc;" 
d="M166 1049l-60 38q35 107 84 161.5t107 54.5q45 0 127 -43q80 -41 119 -41q58 0 102 94l57 -29q-18 -65 -41.5 -110t-48 -67t-45.5 -31t-43 -9q-52 0 -137 45q-69 41 -115 41q-61 0 -106 -104z" />
    <glyph glyph-name="hungarumlaut" unicode="&#x2dd;" 
d="M262 999l-61 23q11 46 27 122t30 145t16 77q17 10 94.5 20t102.5 5l10 -23zM575 999l-61 23q11 51 28.5 131.5t30 140t15.5 72.5q15 10 92 20t104 5l11 -23z" />
    <glyph glyph-name="uni0374" unicode="&#x374;" horiz-adv-x="540" 
d="M500 1321l8 -39q-92 -170 -297 -524l-64 10q53 256 105 563q23 13 121.5 9t126.5 -19z" />
    <glyph glyph-name="uni0375" unicode="&#x375;" horiz-adv-x="540" 
d="M426 287l8 -39q-169 -310 -297 -524l-65 10q46 213 106 563q23 14 122 10.5t126 -20.5z" />
    <glyph glyph-name="uni037E" unicode="&#x37e;" horiz-adv-x="540" 
d="M283 510q-71 0 -119.5 49.5t-48.5 126.5q0 74 48.5 123t119.5 49q73 0 122.5 -49t49.5 -123q0 -77 -49.5 -126.5t-122.5 -49.5zM106 -276l-65 14q70 322 113 559q21 14 120 10.5t125 -20.5l11 -39q-127 -229 -304 -524z" />
    <glyph glyph-name="tonos" unicode="&#x384;" 
d="M594 1389l-154 -371l-65 -2q6 355 6 366q10 13 91 26t106 5z" />
    <glyph glyph-name="dieresistonos" unicode="&#x385;" 
d="M662 1038q-53 0 -86 32.5t-33 84.5q0 48 34 85.5t85 37.5q48 0 80 -37.5t32 -83.5q0 -53 -31.5 -86t-80.5 -33zM532 1362l-112 -373h-62q-20 293 -24 371q12 7 89.5 18t96.5 8zM162 1038q-51 0 -84 32.5t-33 84.5q0 48 34 85.5t83 37.5q48 0 81 -37.5t33 -85.5
q0 -52 -32 -84.5t-82 -32.5z" />
    <glyph glyph-name="Alphatonos" unicode="&#x386;" horiz-adv-x="1445" 
d="M1407 0h-586v72q89 13 107.5 39.5t-8.5 93.5q-26 79 -82 231h-394q-38 -104 -73 -219q-27 -73 -5 -102.5t130 -42.5v-72h-459l2 72q71 8 106 25.5t60 56t61 129.5l420 1052l105 27q373 -1020 391 -1067q23 -58 38.5 -91.5t33 -59.5t39.5 -39t47.5 -20.5t66.5 -12.5v-72z
M799 545l-152 442h-6q-12 -30 -162 -442h320zM461 1450l-154 -371l-67 -2q10 284 8 367q10 13 90.5 26t105.5 5z" />
    <glyph glyph-name="anoteleia" unicode="&#x387;" horiz-adv-x="540" 
d="M268 381q-72 0 -120 48.5t-48 125.5q0 74 48.5 123t119.5 49q74 0 123 -48.5t49 -123.5q0 -77 -49 -125.5t-123 -48.5z" />
    <glyph glyph-name="Epsilontonos" unicode="&#x388;" horiz-adv-x="1189" 
d="M1098 354l71 -14q-18 -138 -71 -340h-1045v72q49 4 75.5 7.5t52 12.5t36 20t19 34.5t10.5 51t2 74.5v787q0 47 -1.5 76t-9.5 52.5t-17 34.5t-31 19.5t-44 12t-63 6.5v71h965l4 -64t8 -119t8 -124l-74 -10q-35 127 -84 176q-26 28 -72 39.5t-132 11.5h-99q-58 0 -71 -11
t-13 -61v-434h137q57 0 87.5 2.5t57.5 10t40.5 26t23.5 44t19 71.5h74v-414h-74q-8 39 -14.5 62.5t-19.5 43t-25.5 28t-39 14.5t-53.5 7t-76 1h-137v-355q0 -77 10 -115t39 -52q49 -21 185 -21q164 0 227 66q57 65 115 200zM20 1450l-151 -371l-68 -2q1 35 3.5 127t3 133.5
t-0.5 106.5q12 13 92.5 26t106.5 5z" />
    <glyph glyph-name="Etatonos" unicode="&#x389;" horiz-adv-x="1603" 
d="M1528 1331v-71q-45 -4 -69 -7.5t-46.5 -13t-31 -20t-16 -35t-8.5 -51t-1 -74.5v-789q0 -47 1.5 -74t9 -50.5t16.5 -34t31.5 -19.5t46 -12.5t67.5 -7.5v-72h-625v72q45 4 70.5 7.5t48 13t32 20t17 34.5t9 51t1.5 74v381h-559v-381q0 -47 1.5 -74.5t9 -51t16 -34.5
t30.5 -20t45 -12.5t66 -7.5v-72h-610v72q42 4 65 7.5t45 12.5t31 20t16.5 34.5t9 51t1.5 74.5v787q0 47 -1.5 74.5t-9.5 51.5t-17.5 35t-32 20t-47 12.5t-68.5 7.5v71h614v-71q-41 -4 -63.5 -7.5t-44 -12.5t-30 -20t-16 -35t-9 -51.5t-1.5 -74.5v-301h559v301
q0 47 -1.5 74.5t-9 51.5t-16.5 35t-30.5 20t-44.5 12.5t-66 7.5v71h615zM12 1450l-153 -371l-66 -2q6 355 6 367q10 13 91.5 26t107.5 5z" />
    <glyph glyph-name="Iotatonos" unicode="&#x38a;" horiz-adv-x="774" 
d="M692 0h-614v72q42 4 65.5 7.5t45.5 12.5t31.5 20.5t17 35t9 51t1.5 73.5v785q0 47 -1.5 75t-9 51.5t-17 35t-31.5 21t-45.5 13t-65.5 7.5v71h614v-71q-42 -4 -65.5 -7.5t-45.5 -13t-31.5 -21t-17 -35t-9 -51.5t-1.5 -75v-785q0 -46 1.5 -73.5t9 -51t17 -35t31.5 -20.5
t45.5 -12.5t65.5 -7.5v-72zM16 1450l-153 -371l-66 -2q6 355 6 367q10 13 91 26t106 5z" />
    <glyph glyph-name="Omicrontonos" unicode="&#x38c;" horiz-adv-x="1568" 
d="M805 1362q139 0 263 -50t216 -138t145.5 -216.5t53.5 -277.5q0 -162 -55.5 -297t-151.5 -225t-224 -139.5t-272 -49.5q-151 0 -281 53.5t-220.5 146.5t-141.5 221t-51 274q0 107 29 208t89.5 190t144.5 156t201.5 105.5t254.5 38.5zM768 1276q-159 0 -264 -157t-105 -417
q0 -177 49 -322.5t145.5 -235t223.5 -89.5q153 0 252.5 148t99.5 420q0 302 -110.5 477.5t-290.5 175.5zM172 1430l-152 -371l-67 -2q1 35 3.5 127t3 133t-0.5 106q12 13 92.5 26t106.5 5z" />
    <glyph glyph-name="Upsilontonos" unicode="&#x38e;" horiz-adv-x="1363" 
d="M1006 0h-652v74q49 4 73 6.5t50.5 10.5t36 18t19 32t11 49.5t1.5 73.5v139q0 164 -17.5 275t-56.5 207q-133 329 -401 329q-24 0 -58 -6l-12 64q59 34 146 62t157 28q190 0 293 -139q34 -45 58.5 -107.5t38 -114.5t23 -132.5t12.5 -120t7 -119.5h17q19 154 77 311
t148 268q65 79 136.5 116.5t129.5 37.5q38 0 70.5 -39.5t44.5 -87.5l-4 -18h-29q-76 0 -167.5 -59.5t-172.5 -186.5q-166 -265 -166 -570v-137q0 -35 0.5 -57.5t5 -43.5t8 -32.5t16.5 -22t22.5 -15t34 -9t43.5 -6l57 -4.5v-74zM-27 1450l-151 -371l-68 -2q1 35 3.5 127
t3 133.5t-0.5 106.5q12 13 92.5 26t106.5 5z" />
    <glyph glyph-name="Omegatonos" unicode="&#x38f;" horiz-adv-x="1576" 
d="M1501 336l-45 -336h-522l-19 29q32 58 52.5 96.5t58.5 123.5t61 156t41.5 166t18.5 181q0 251 -90.5 387.5t-261.5 136.5q-170 0 -260.5 -142t-92.5 -403q0 -82 18 -172.5t38 -153t60 -151t56.5 -119.5t55.5 -104l-15 -31h-532l-33 336h64q31 -78 61 -97.5t104 -19.5h152
q-44 32 -78.5 59.5t-85.5 80.5t-84.5 105.5t-58.5 127t-25 151.5q0 182 85 323.5t234.5 218.5t338.5 77q287 0 469 -170t182 -440q0 -73 -23 -142.5t-54 -119.5t-81 -104t-84.5 -84t-84.5 -71l-15 -12h176q67 0 95.5 19.5t60.5 97.5h63zM182 1430l-151 -371l-68 -2
q1 35 3.5 127t3 133t-0.5 106q12 13 92.5 26t106.5 5z" />
    <glyph glyph-name="iotadieresistonos" unicode="&#x390;" horiz-adv-x="571" 
d="M553 147l20 -59q-135 -113 -249 -113q-80 0 -132.5 55t-52.5 181v672l262 49v-672q0 -129 76 -129q40 0 76 16zM539 1071q-53 0 -86 32.5t-33 84.5q0 48 34 85.5t85 37.5q48 0 80 -37.5t32 -83.5q0 -54 -31 -86.5t-81 -32.5zM442 1384l-186 -368l-66 16q42 281 50 354
q12 7 91.5 17.5t98.5 7.5zM39 1071q-51 0 -84 32.5t-33 84.5q0 48 34 85.5t83 37.5q48 0 81.5 -38t33.5 -85q0 -52 -32.5 -84.5t-82.5 -32.5z" />
    <glyph glyph-name="Alpha" unicode="&#x391;" horiz-adv-x="1445" 
d="M1407 0h-586v72q89 13 107.5 39.5t-8.5 93.5q-26 79 -82 231h-394q-38 -104 -73 -219q-27 -73 -5 -102.5t130 -42.5v-72h-459l2 72q71 8 106 25.5t60 56t61 129.5l420 1052l105 27q373 -1020 391 -1067q23 -58 38.5 -91.5t33 -59.5t39.5 -39t47.5 -20.5t66.5 -12.5v-72z
M799 545l-152 442h-6q-12 -30 -162 -442h320z" />
    <glyph glyph-name="Beta" unicode="&#x392;" horiz-adv-x="1304" 
d="M821 723v-8q187 -23 291.5 -101t104.5 -219q0 -100 -51.5 -179t-141.5 -128q-155 -88 -432 -88h-520v72q44 4 68.5 7.5t47 12.5t32 20.5t17.5 35t9.5 51.5t1.5 75v783q0 46 -1.5 74.5t-9 52t-16.5 35t-30 21t-44 13t-63 7.5v71h598q229 0 338 -71q58 -37 89.5 -97.5
t31.5 -136.5q0 -70 -28.5 -125t-77.5 -89.5t-101 -55.5t-113 -33zM518 743h47q147 0 216 60t69 188q0 129 -64 191.5t-157 62.5q-68 0 -92 -24q-19 -19 -19 -88v-390zM518 662v-383q0 -112 33.5 -153.5t116.5 -39.5q97 2 170 74.5t73 212.5q0 143 -89 216t-263 73h-41z" />
    <glyph glyph-name="Gamma" unicode="&#x393;" horiz-adv-x="1107" 
d="M1061 1012l-74 -13q-42 131 -74 172q-26 39 -71 54.5t-131 15.5h-107q-53 0 -66.5 -12.5t-13.5 -61.5v-876q0 -53 1.5 -83.5t10 -56.5t18 -37.5t35 -21.5t50.5 -13t74 -7v-72h-635v72q44 4 66 7.5t45.5 12.5t32 21t17 38t10 57t1.5 83v756q0 49 -1.5 79t-9.5 54.5
t-17.5 37t-31.5 22t-46 13t-66 7.5v71h960q8 -132 23 -319z" />
    <glyph glyph-name="uni0394" unicode="&#x394;" horiz-adv-x="1355" 
d="M1274 0h-1194v59l555 1282l82 21l557 -1303v-59zM946 119l-352 878l-350 -878h702z" />
    <glyph glyph-name="Epsilon" unicode="&#x395;" horiz-adv-x="1189" 
d="M1098 354l71 -14q-18 -138 -71 -340h-1045v72q49 4 75.5 7.5t52 12.5t36 20t19 34.5t10.5 51t2 74.5v787q0 47 -1.5 76t-9.5 52.5t-17 34.5t-31 19.5t-44 12t-63 6.5v71h965l4 -64t8 -119t8 -124l-74 -10q-35 127 -84 176q-26 28 -72 39.5t-132 11.5h-99q-58 0 -71 -11
t-13 -61v-434h137q57 0 87.5 2.5t57.5 10t40.5 26t23.5 44t19 71.5h74v-414h-74q-8 39 -14.5 62.5t-19.5 43t-25.5 28t-39 14.5t-53.5 7t-76 1h-137v-355q0 -77 10 -115t39 -52q49 -21 185 -21q164 0 227 66q57 65 115 200z" />
    <glyph glyph-name="Zeta" unicode="&#x396;" horiz-adv-x="1267" 
d="M1174 395l69 -16q-45 -283 -76 -379h-1085l-25 35q266 400 783 1204h-258q-101 0 -159 -9t-80.5 -22.5t-41.5 -40.5q-50 -68 -80 -194l-69 2q3 85 12.5 222.5t11.5 184.5h53q22 -35 43.5 -43t73.5 -8h834l16 -31q-525 -812 -766 -1196q102 -12 254 -12q290 0 363 68
q38 36 66.5 89t60.5 146z" />
    <glyph glyph-name="Eta" unicode="&#x397;" horiz-adv-x="1603" 
d="M1528 1331v-71q-45 -4 -69 -7.5t-46.5 -13t-31 -20t-16 -35t-8.5 -51t-1 -74.5v-789q0 -47 1.5 -74t9 -50.5t16.5 -34t31.5 -19.5t46 -12.5t67.5 -7.5v-72h-625v72q45 4 70.5 7.5t48 13t32 20t17 34.5t9 51t1.5 74v381h-559v-381q0 -47 1.5 -74.5t9 -51t16 -34.5
t30.5 -20t45 -12.5t66 -7.5v-72h-610v72q42 4 65 7.5t45 12.5t31 20t16.5 34.5t9 51t1.5 74.5v787q0 47 -1.5 74.5t-9.5 51.5t-17.5 35t-32 20t-47 12.5t-68.5 7.5v71h614v-71q-41 -4 -63.5 -7.5t-44 -12.5t-30 -20t-16 -35t-9 -51.5t-1.5 -74.5v-301h559v301
q0 47 -1.5 74.5t-9 51.5t-16.5 35t-30.5 20t-44.5 12.5t-66 7.5v71h615z" />
    <glyph glyph-name="Theta" unicode="&#x398;" horiz-adv-x="1556" 
d="M793 1362q186 0 340.5 -86.5t245.5 -243t91 -350.5q0 -158 -55 -293t-149 -226.5t-222 -142.5t-272 -51q-121 0 -228.5 34t-190.5 96.5t-143.5 147.5t-92 189t-31.5 219q0 103 28 203.5t87 191.5t141 160.5t198.5 110.5t252.5 41zM762 1272q-161 0 -262 -155t-101 -417
q0 -179 47.5 -323t143 -231t223.5 -87q156 0 250 141.5t94 417.5q0 305 -106.5 479.5t-288.5 174.5zM1012 455h-70q-12 86 -30 107.5t-78 21.5h-113q-60 0 -79.5 -21.5t-29.5 -107.5h-71v469h71q10 -85 29 -106t82 -21h113q59 0 76.5 20.5t29.5 106.5h70v-469z" />
    <glyph glyph-name="Iota" unicode="&#x399;" horiz-adv-x="774" 
d="M692 0h-614v72q42 4 65.5 7.5t45.5 12.5t31.5 20.5t17 35t9 51t1.5 73.5v785q0 47 -1.5 75t-9 51.5t-17 35t-31.5 21t-45.5 13t-65.5 7.5v71h614v-71q-42 -4 -65.5 -7.5t-45.5 -13t-31.5 -21t-17 -35t-9 -51.5t-1.5 -75v-785q0 -46 1.5 -73.5t9 -51t17 -35t31.5 -20.5
t45.5 -12.5t65.5 -7.5v-72z" />
    <glyph glyph-name="Kappa" unicode="&#x39a;" horiz-adv-x="1439" 
d="M1432 0h-412q-211 290 -404 571q-31 45 -53 60t-47 12v-369q0 -47 1.5 -75t9.5 -51.5t17.5 -35t32 -20.5t47 -12.5t68.5 -7.5v-72h-612v72q41 4 64 7.5t44.5 12.5t31 20.5t17 35t9.5 52t2 74.5v783q0 47 -1.5 75t-9 51.5t-17 35t-31.5 21t-46 13t-67 7.5v71h602v-71
q-40 -4 -62.5 -7.5t-43.5 -13t-30 -21t-16 -35t-8.5 -51.5t-1.5 -75v-348q70 20 156 108q150 150 286 330q39 49 29 73t-80 33l-37 7v71h533v-71q-101 -10 -172 -39.5t-152 -104.5q-55 -50 -102.5 -98.5t-113 -118.5t-83.5 -88q197 -293 430 -588q62 -77 110.5 -109.5
t111.5 -41.5v-72z" />
    <glyph glyph-name="Lambda" unicode="&#x39b;" horiz-adv-x="1431" 
d="M1397 0h-588v72q94 15 112.5 44t-10.5 101q-33 91 -129 362t-145 406h-6q-205 -572 -264 -758q-29 -81 -8.5 -109t130.5 -46v-72h-456l2 72q66 8 101 27t63 61.5t65 136.5q38 98 185.5 466t224.5 570l106 29q34 -93 119.5 -329t147 -403t122.5 -325q28 -72 50.5 -114.5
t50 -68t55 -35t72.5 -15.5v-72z" />
    </font>
</defs>
</svg>
